<?xml version="1.0" encoding="UTF-8" standalone="no"?>
<!DOCTYPE svg PUBLIC "-//W3C//DTD SVG 1.1//EN" "http://www.w3.org/Graphics/SVG/1.1/DTD/svg11.dtd">
<svg xmlns="http://www.w3.org/2000/svg" version="1.1" viewBox="0.00 0.00 2811.00 1119.00">
<g stroke-width="2.00" fill="none" stroke-linecap="butt">
<path stroke="#867c5e" d="
  M 1973.50 867.13
  L 1972.20 867.52"
/>
<path stroke="#867c5e" d="
  M 1062.69 882.77
  Q 1061.98 882.86 1061.75 883.20"
/>
<path stroke="#867c5e" d="
  M 136.53 813.29
  L 137.10 812.94"
/>
<path stroke="#867c5e" d="
  M 1299.01 460.87
  Q 1298.90 461.05 1299.22 460.91
  Q 1299.75 460.66 1299.55 460.31"
/>
<path stroke="#867c5e" d="
  M 1952.27 808.14
  Q 1952.89 808.14 1953.97 807.68
  Q 2002.28 786.94 2036.69 747.70
  Q 2048.86 733.82 2057.84 717.91
  Q 2075.14 687.29 2083.44 651.49
  Q 2086.11 639.93 2087.85 624.35
  Q 2090.58 599.76 2090.79 597.00
  C 2092.79 570.19 2090.28 542.31 2085.62 515.64
  C 2083.01 500.72 2077.37 485.47 2072.03 471.66
  Q 2046.42 405.42 1985.39 369.35
  Q 1980.28 366.33 1974.77 364.07
  Q 1970.11 362.15 1965.30 359.68
  Q 1960.67 357.30 1955.68 355.59
  Q 1939.67 350.09 1922.24 346.18
  Q 1904.12 342.11 1886.31 339.47
  C 1883.44 339.05 1881.02 339.24 1878.30 338.61
  C 1873.88 337.59 1867.92 336.97 1864.25 336.64
  Q 1840.70 334.54 1809.73 334.58
  Q 1692.95 334.71 1648.51 334.42
  C 1634.35 334.32 1635.04 359.39 1635.98 368.43
  Q 1636.38 372.31 1637.80 373.90
  Q 1640.11 376.50 1642.78 376.70
  C 1659.46 377.95 1674.35 383.99 1683.00 398.73
  C 1686.55 404.78 1687.76 411.10 1687.70 418.25
  C 1687.23 475.88 1687.59 533.35 1687.84 590.92
  C 1688.06 639.68 1687.44 688.80 1687.60 735.10
  Q 1687.63 745.61 1686.86 750.88
  C 1684.66 766.06 1680.34 779.43 1664.19 784.47
  Q 1655.66 787.13 1646.33 788.27
  A 2.64 2.25 26.3 0 0 1645.74 788.42
  Q 1641.32 790.06 1641.37 794.92
  Q 1641.58 813.54 1641.76 823.99
  A 1.88 1.85 27.9 0 0 1642.08 825.00
  C 1644.49 828.56 1649.55 829.69 1653.63 829.70
  Q 1816.28 829.79 1840.25 829.82
  Q 1859.14 829.84 1875.01 827.99
  Q 1900.51 825.03 1931.36 816.04
  Q 1937.37 814.29 1952.20 808.47
  A 0.11 0.06 -25.2 0 0 1952.28 808.36
  Q 1952.20 808.24 1952.08 808.23
  A 0.15 0.03 -11.8 0 1 1952.27 808.14"
/>
<path stroke="#867c5e" d="
  M 856.61 786.23
  Q 851.04 787.65 844.01 788.31
  C 839.32 788.75 833.65 788.65 833.67 794.50
  Q 833.67 795.33 833.82 820.35
  A 3.00 2.62 41.2 0 0 833.92 821.09
  C 835.33 826.25 841.08 828.31 845.94 828.81
  Q 849.58 829.18 867.75 829.34
  Q 949.08 830.06 1024.75 829.74
  C 1028.60 829.73 1041.12 827.05 1041.06 820.75
  Q 1040.86 799.70 1040.66 792.79
  Q 1040.63 791.72 1038.70 788.95
  A 1.21 1.19 -9.8 0 0 1037.98 788.45
  L 1026.03 785.58
  A 0.62 0.46 53.3 0 1 1025.93 785.55
  Q 1022.77 784.26 1020.00 783.71
  A 5.92 5.32 59.4 0 1 1018.98 783.39
  Q 1016.18 782.22 1013.58 781.12
  Q 1001.95 776.24 992.86 766.88
  Q 988.87 762.78 988.81 758.45
  Q 988.03 703.97 987.31 628.00
  Q 987.28 624.94 990.37 624.80
  Q 1004.00 624.14 1015.07 624.84
  C 1025.76 625.51 1031.70 627.17 1037.13 636.13
  Q 1063.52 679.72 1085.61 726.44
  Q 1087.20 729.80 1093.47 743.11
  C 1097.27 751.15 1102.56 760.25 1106.24 767.52
  Q 1115.13 785.05 1127.56 799.38
  Q 1156.06 832.23 1199.71 832.57
  Q 1220.69 832.73 1227.75 832.53
  Q 1238.47 832.23 1245.74 830.96
  Q 1262.05 828.11 1263.26 827.92
  C 1281.03 825.03 1280.67 805.92 1278.78 792.30
  A 1.90 1.89 -4.3 0 0 1276.88 790.67
  Q 1270.92 790.74 1265.32 789.17
  Q 1259.64 787.58 1253.59 784.91
  Q 1251.54 784.00 1249.63 782.78
  Q 1245.82 780.32 1245.78 780.29
  Q 1228.42 766.03 1218.25 752.45
  Q 1206.01 736.09 1200.05 725.21
  Q 1169.79 669.98 1153.94 642.57
  Q 1145.80 628.50 1130.57 608.44
  C 1128.56 605.80 1123.68 598.56 1125.58 595.83
  Q 1126.04 595.17 1128.23 594.74
  Q 1131.38 594.14 1132.83 593.30
  Q 1136.60 591.15 1140.86 589.12
  Q 1144.77 587.25 1148.74 584.70
  Q 1171.35 570.19 1187.48 550.20
  Q 1196.12 539.49 1202.00 527.98
  Q 1208.42 515.42 1211.80 503.32
  Q 1220.45 472.31 1215.66 438.57
  Q 1213.50 423.31 1205.83 408.96
  Q 1189.75 378.87 1161.41 362.09
  Q 1151.56 356.26 1143.58 352.73
  Q 1133.81 348.42 1122.59 345.22
  C 1121.08 344.79 1119.97 344.00 1118.49 344.06
  A 2.22 1.91 -35.2 0 1 1118.08 344.02
  Q 1106.22 341.30 1099.87 340.54
  Q 1090.25 339.40 1086.72 338.47
  A 3.96 3.53 -35.3 0 0 1085.73 338.36
  Q 1083.61 338.40 1083.24 338.34
  Q 1078.11 337.39 1069.50 336.56
  Q 1065.77 336.04 1057.20 335.04
  Q 1052.75 334.52 1045.77 334.54
  Q 1025.96 334.60 1006.00 334.62
  Q 895.88 334.73 834.00 334.41
  C 829.84 334.39 823.89 335.91 822.71 340.60
  Q 821.74 344.41 821.02 352.76
  C 820.28 361.24 820.38 370.47 826.84 375.89
  A 3.74 3.69 66.4 0 0 829.02 376.76
  L 845.72 377.69
  A 3.92 3.56 53.0 0 1 846.61 377.86
  Q 855.49 380.72 864.94 385.91
  Q 866.53 386.79 868.72 389.56
  Q 874.10 396.40 876.97 404.36
  Q 878.22 407.86 878.23 412.52
  Q 878.53 679.20 878.48 758.52
  C 878.47 770.02 875.01 779.75 863.85 784.22
  C 862.23 784.87 858.95 786.24 857.24 786.16
  A 2.24 2.24 0.0 0 0 856.61 786.23"
/>
<path stroke="#867c5e" d="
  M 170.84 933.16
  C 182.04 945.05 197.34 954.56 213.52 957.51
  Q 242.93 962.87 273.34 959.08
  Q 284.81 957.65 295.58 954.35
  A 0.05 0.03 47.4 0 0 295.57 954.28
  Q 295.54 954.26 295.48 954.27
  A 0.08 0.05 -42.6 0 1 295.51 954.14
  Q 295.59 954.13 296.04 954.15
  Q 296.33 954.16 296.53 954.09
  Q 308.41 949.81 312.99 947.47
  Q 316.67 945.59 319.82 943.97
  Q 324.48 941.58 326.60 940.32
  Q 377.90 909.86 398.60 854.70
  Q 403.27 842.26 405.99 826.60
  Q 408.53 811.97 410.29 797.79
  Q 411.35 789.25 411.35 774.65
  Q 411.31 483.78 411.37 422.75
  C 411.38 414.21 414.63 404.20 421.28 398.78
  Q 427.53 393.69 435.65 390.94
  Q 437.36 390.36 444.66 388.10
  A 4.68 4.64 -55.5 0 1 445.66 387.91
  C 447.39 387.79 450.56 387.08 454.06 386.74
  Q 456.03 386.54 456.62 384.66
  Q 461.61 368.79 457.05 351.69
  Q 456.46 349.51 454.12 348.67
  Q 449.86 347.13 449.75 347.11
  A 6.94 4.19 0.9 0 0 448.81 346.93
  L 443.69 346.19
  A 0.68 0.46 37.3 0 0 443.50 346.18
  Q 412.25 346.98 372.75 346.54
  Q 347.31 346.26 275.00 346.83
  Q 265.68 346.90 260.40 347.07
  C 254.41 347.26 248.78 348.11 243.93 349.14
  A 3.04 3.02 1.9 0 0 241.65 351.26
  Q 240.49 355.30 239.73 359.68
  Q 239.30 362.18 238.93 374.88
  Q 238.73 381.83 239.27 383.06
  Q 241.12 387.23 245.33 387.84
  Q 260.92 390.11 262.39 390.30
  A 6.17 6.14 -24.7 0 1 264.97 391.25
  C 268.85 393.77 273.31 395.04 277.53 396.31
  C 297.59 402.33 301.04 424.01 301.08 441.77
  Q 301.12 463.85 301.05 464.01
  Q 300.58 465.07 300.88 851.50
  C 300.90 871.13 296.72 899.56 273.82 905.55
  Q 269.44 906.69 267.67 907.30
  Q 262.62 909.03 258.32 908.68
  C 246.36 907.70 236.75 900.27 233.71 888.55
  C 231.93 881.65 231.26 873.03 230.60 867.82
  A 5.95 5.92 28.0 0 0 230.01 865.90
  Q 229.49 864.87 226.77 862.02
  Q 212.79 847.35 193.19 848.66
  Q 186.40 849.12 180.74 852.20
  C 174.47 855.62 167.43 862.70 163.42 867.95
  Q 156.87 876.49 155.85 888.61
  Q 153.63 914.90 170.84 933.16"
/>
<path stroke="#867c5e" d="
  M 1394.00 474.80
  Q 1390.00 476.12 1386.31 477.33
  Q 1352.58 488.31 1327.29 513.11
  Q 1317.33 522.89 1311.47 532.41
  C 1302.43 547.10 1295.12 564.93 1298.64 582.19
  Q 1302.66 601.92 1322.60 606.06
  Q 1339.75 609.63 1357.27 604.49
  C 1367.55 601.47 1375.63 594.82 1381.38 586.61
  Q 1382.69 584.75 1383.49 582.23
  Q 1386.57 572.58 1385.14 561.03
  Q 1384.19 553.33 1383.11 550.00
  C 1382.15 547.05 1382.92 544.37 1383.84 541.99
  Q 1388.58 529.82 1401.45 526.43
  Q 1410.25 524.12 1417.51 523.48
  Q 1422.34 523.06 1425.76 523.71
  Q 1442.13 526.82 1443.66 527.12
  Q 1445.83 527.55 1449.43 529.81
  Q 1469.60 542.44 1472.25 566.26
  Q 1474.12 582.96 1473.95 600.01
  C 1473.88 607.33 1472.51 614.28 1471.32 620.76
  A 1.59 1.58 -2.7 0 1 1470.20 621.99
  Q 1457.20 625.66 1445.95 628.53
  C 1436.24 631.00 1426.37 632.40 1416.88 634.27
  C 1412.90 635.05 1408.82 636.11 1405.68 637.17
  Q 1388.60 642.93 1382.23 644.18
  Q 1374.78 645.65 1372.26 646.54
  Q 1366.11 648.70 1347.07 657.35
  Q 1337.66 661.62 1327.28 669.64
  C 1300.09 690.66 1286.06 720.43 1286.60 755.29
  Q 1286.77 766.33 1287.98 777.97
  A 9.35 9.35 0.0 0 0 1288.91 781.20
  Q 1293.02 789.53 1294.28 792.30
  C 1299.12 802.96 1307.74 813.17 1316.45 820.32
  C 1330.55 831.92 1351.68 836.58 1369.55 836.73
  Q 1393.47 836.94 1416.65 831.31
  Q 1432.69 827.41 1446.12 819.08
  C 1454.68 813.77 1460.64 807.28 1469.24 798.85
  Q 1471.36 796.76 1474.40 794.33
  Q 1478.18 791.30 1479.86 790.25
  C 1483.25 788.11 1484.83 790.52 1485.23 794.00
  Q 1486.07 801.33 1488.97 811.36
  C 1492.78 824.51 1503.71 832.22 1517.04 834.05
  C 1529.23 835.73 1539.34 833.58 1553.89 831.46
  C 1568.08 829.39 1581.19 825.22 1593.43 819.22
  Q 1608.45 811.85 1610.19 795.21
  A 5.36 5.32 41.3 0 0 1610.06 793.35
  L 1607.53 783.04
  A 2.53 2.52 -6.8 0 0 1605.09 781.12
  L 1588.85 781.03
  A 4.40 4.39 53.6 0 1 1587.54 780.83
  Q 1583.29 779.55 1579.87 776.19
  Q 1577.34 773.72 1575.75 767.33
  Q 1571.40 749.88 1571.40 737.24
  Q 1571.43 613.55 1571.34 585.94
  Q 1571.28 567.67 1570.45 560.52
  Q 1565.49 517.74 1532.57 490.99
  Q 1526.51 486.07 1520.15 482.85
  Q 1519.77 482.66 1517.30 480.88
  A 4.02 3.99 -16.6 0 0 1516.42 480.41
  Q 1510.29 478.08 1507.29 476.74
  Q 1502.54 474.62 1501.62 474.44
  Q 1499.35 474.01 1495.69 472.84
  C 1493.14 472.03 1490.24 471.94 1487.58 471.29
  Q 1485.78 470.85 1481.46 470.40
  Q 1477.79 470.02 1472.01 469.08
  C 1468.78 468.55 1466.78 468.66 1463.64 468.33
  Q 1461.48 468.10 1457.35 468.11
  Q 1435.88 468.13 1414.76 470.68
  Q 1403.67 472.01 1395.39 474.69
  Q 1395.14 474.77 1394.72 474.73
  A 1.59 1.55 38.9 0 0 1394.00 474.80"
/>
<path stroke="#867c5e" d="
  M 2386.78 492.17
  Q 2386.77 492.07 2386.09 491.65
  Q 2375.64 485.22 2365.49 480.97
  Q 2365.31 480.89 2365.00 480.89
  Q 2364.71 480.89 2364.52 480.77
  Q 2361.77 479.05 2359.99 478.84
  A 1.94 1.93 -25.7 0 1 2359.21 478.57
  Q 2357.65 477.63 2355.83 477.35
  A 1.28 1.20 -28.5 0 1 2355.56 477.28
  Q 2339.02 471.39 2320.94 469.54
  Q 2289.85 466.34 2258.36 471.48
  Q 2240.41 474.41 2226.33 480.37
  C 2183.07 498.67 2150.50 533.34 2132.89 576.61
  C 2128.59 587.17 2125.53 600.43 2121.82 611.56
  C 2120.99 614.03 2119.73 619.42 2119.21 623.37
  Q 2116.07 647.16 2116.14 671.50
  Q 2116.17 680.60 2118.04 692.50
  C 2121.50 714.41 2126.88 735.45 2136.48 754.16
  Q 2154.58 789.41 2188.67 812.16
  Q 2201.77 820.90 2217.76 826.24
  Q 2240.83 833.95 2263.52 836.67
  Q 2317.42 843.14 2367.73 822.18
  Q 2393.16 811.58 2412.33 791.58
  Q 2432.82 770.21 2446.56 742.12
  Q 2450.92 733.20 2454.20 722.48
  Q 2459.65 704.68 2460.25 702.23
  Q 2463.21 690.05 2464.24 674.99
  Q 2466.16 646.97 2464.22 618.49
  Q 2463.16 602.88 2457.82 588.68
  Q 2453.80 578.00 2452.96 571.65
  A 3.53 3.47 29.1 0 0 2452.64 570.56
  Q 2446.41 557.57 2439.53 545.72
  Q 2429.90 529.14 2416.11 515.39
  Q 2403.42 502.75 2387.93 492.65
  Q 2387.42 492.31 2387.08 492.39
  A 0.24 0.24 0.0 0 1 2386.78 492.17"
/>
<path stroke="#867c5e" d="
  M 741.58 472.83
  Q 741.30 473.00 741.19 473.01
  Q 727.26 474.87 713.59 478.58
  Q 705.74 480.72 700.78 481.27
  Q 687.25 482.77 669.90 482.59
  A 2.06 1.60 -42.7 0 0 669.43 482.63
  Q 661.37 484.28 655.49 487.32
  A 3.41 3.08 9.2 0 0 654.95 487.67
  Q 651.01 490.89 650.51 497.78
  C 649.84 506.96 649.90 514.63 652.08 522.94
  C 653.22 527.29 656.00 528.80 660.57 528.66
  C 669.10 528.40 676.61 528.25 683.57 533.43
  Q 687.01 535.99 687.26 540.50
  Q 688.58 564.38 688.03 586.88
  C 686.92 631.61 687.25 675.97 687.70 728.75
  Q 687.77 736.82 686.47 744.72
  C 685.18 752.55 682.00 758.20 675.28 763.07
  Q 665.50 770.18 653.39 772.98
  C 644.89 774.94 635.99 774.02 626.51 774.17
  Q 621.02 774.25 615.98 772.44
  Q 608.14 769.64 601.54 762.97
  Q 598.23 759.62 592.89 752.47
  Q 590.35 749.07 588.82 744.21
  Q 584.83 731.62 583.10 723.15
  C 582.16 718.54 581.90 712.72 581.89 707.99
  Q 581.86 595.58 581.65 496.05
  C 581.63 487.79 580.46 482.01 576.73 475.65
  A 3.04 3.01 79.3 0 0 574.62 474.20
  L 560.11 471.82
  A 2.80 2.80 0.0 0 0 559.17 471.82
  Q 557.08 472.17 551.00 472.78
  Q 546.05 473.28 542.48 473.41
  Q 531.83 473.81 519.55 476.26
  Q 503.20 479.53 501.64 479.71
  Q 484.51 481.71 477.11 482.24
  C 468.34 482.86 459.12 483.64 453.03 484.84
  Q 447.14 486.00 444.60 490.43
  Q 443.21 492.85 443.27 500.56
  Q 443.32 508.26 443.37 516.26
  C 443.39 520.80 443.60 527.88 448.85 528.09
  Q 455.34 528.34 462.85 529.20
  C 475.50 530.66 484.65 536.19 484.61 550.00
  Q 484.43 622.43 483.39 714.29
  Q 483.07 742.42 484.38 750.68
  Q 489.90 785.68 514.21 810.87
  Q 521.58 818.51 533.94 825.33
  C 539.53 828.42 545.59 829.95 552.12 832.20
  C 571.82 839.00 591.59 840.66 612.37 836.96
  Q 616.33 836.25 629.80 833.01
  Q 640.85 830.35 647.12 828.59
  Q 652.58 827.06 656.61 824.84
  C 667.45 818.84 677.22 810.00 685.88 801.30
  Q 689.75 797.42 692.14 795.72
  Q 694.35 794.14 699.15 791.18
  A 0.98 0.97 67.0 0 1 700.60 791.77
  Q 701.00 793.30 700.92 795.25
  Q 700.44 806.85 701.90 815.99
  Q 703.46 825.74 710.57 830.29
  Q 716.89 834.34 727.39 836.14
  Q 729.03 836.42 730.31 836.26
  A 7.81 5.74 -24.6 0 0 731.37 836.06
  C 744.46 832.81 761.62 830.66 775.44 829.14
  Q 787.40 827.83 792.98 826.07
  Q 805.23 822.20 817.48 814.85
  C 823.27 811.37 826.06 807.11 826.56 800.53
  Q 827.18 792.29 825.23 782.92
  A 1.65 1.64 -6.7 0 0 823.57 781.61
  C 817.95 781.76 813.71 780.85 808.58 779.88
  Q 804.99 779.20 799.92 776.43
  C 791.37 771.76 791.23 759.55 790.46 751.23
  Q 789.51 740.91 789.55 729.00
  Q 789.94 610.31 789.21 491.50
  C 789.16 483.73 789.78 475.36 781.25 472.74
  Q 774.97 470.80 766.99 470.96
  Q 755.77 471.19 744.25 472.61
  Q 743.50 472.70 742.29 472.65
  A 1.25 1.18 29.1 0 0 741.58 472.83"
/>
<path stroke="#867c5e" d="
  M 1810.57 780.29
  Q 1811.33 780.55 1811.50 780.57
  Q 1824.63 781.59 1838.37 779.82
  Q 1847.41 778.65 1860.22 776.59
  Q 1873.72 774.41 1881.77 771.88
  Q 1913.49 761.89 1934.74 734.23
  Q 1944.59 721.41 1951.55 706.88
  C 1955.25 699.16 1956.95 690.68 1959.83 682.11
  C 1962.99 672.70 1965.22 662.52 1966.88 652.41
  Q 1970.41 630.88 1971.36 610.54
  C 1973.54 564.11 1969.91 518.19 1954.32 473.98
  Q 1940.94 436.04 1910.01 410.99
  C 1904.13 406.23 1898.38 401.74 1891.65 398.85
  C 1879.81 393.77 1868.65 388.33 1856.32 387.14
  Q 1831.04 384.69 1807.50 385.66
  Q 1800.58 385.95 1798.74 392.22
  Q 1797.93 394.99 1797.61 401.54
  Q 1797.34 407.11 1797.34 410.96
  Q 1797.27 693.61 1797.32 745.00
  Q 1797.34 758.58 1801.77 770.27
  C 1803.19 774.03 1805.83 779.64 1810.12 780.18
  A 2.16 2.07 57.5 0 1 1810.57 780.29"
/>
<path stroke="#867c5e" d="
  M 988.63 388.49
  A 3.08 3.03 67.2 0 0 987.79 390.60
  L 987.79 576.33
  A 1.09 1.09 0.0 0 0 988.80 577.42
  Q 1003.17 578.54 1016.36 577.94
  Q 1027.55 577.44 1036.84 575.02
  Q 1047.52 572.23 1056.61 568.91
  Q 1082.46 559.45 1094.21 535.00
  Q 1100.65 521.59 1103.18 512.54
  A 13.90 13.13 -36.2 0 0 1103.64 510.03
  Q 1105.79 484.12 1104.82 456.75
  C 1104.43 445.85 1102.47 435.07 1097.41 425.34
  C 1090.88 412.80 1081.54 401.85 1068.85 396.69
  C 1054.84 390.99 1041.97 387.05 1027.21 387.17
  Q 1014.23 387.28 990.38 387.38
  Q 989.69 387.38 988.63 388.49"
/>
<path stroke="#867c5e" d="
  M 1441.67 774.69
  Q 1442.90 774.60 1443.03 774.57
  Q 1449.57 772.57 1450.52 772.24
  A 10.60 10.58 -71.0 0 0 1453.16 770.95
  L 1467.10 761.41
  A 5.44 5.44 0.0 0 0 1468.87 759.40
  Q 1471.42 754.43 1472.25 748.50
  Q 1473.42 740.11 1473.40 730.03
  Q 1473.35 702.20 1473.46 668.24
  Q 1473.46 665.51 1471.01 665.71
  C 1456.51 666.89 1442.31 667.75 1428.12 672.60
  Q 1417.04 676.38 1413.22 678.22
  Q 1402.85 683.23 1396.84 690.07
  Q 1389.47 698.46 1385.97 708.71
  C 1381.79 720.95 1380.75 738.46 1383.71 751.54
  Q 1386.45 763.65 1396.39 770.35
  Q 1399.34 772.34 1403.88 773.99
  Q 1409.08 775.88 1411.92 776.20
  Q 1411.98 776.21 1419.62 776.83
  C 1424.49 777.23 1428.55 776.68 1433.16 776.38
  Q 1435.88 776.20 1441.07 774.80
  A 4.06 3.38 -50.2 0 1 1441.67 774.69"
/>
<path stroke="#867c5e" d="
  M 2261.27 526.38
  Q 2246.66 537.23 2238.84 554.37
  Q 2228.48 577.04 2226.21 601.51
  Q 2223.14 634.60 2224.44 669.56
  Q 2225.37 694.66 2227.99 711.05
  Q 2231.78 734.86 2244.38 757.39
  Q 2252.54 771.98 2267.20 780.50
  Q 2269.47 781.82 2271.50 782.14
  A 2.24 2.23 -21.7 0 1 2272.46 782.55
  Q 2274.46 784.06 2276.51 784.11
  A 3.75 3.65 -33.3 0 1 2277.65 784.33
  C 2284.55 786.90 2291.78 786.90 2299.32 786.57
  Q 2307.30 786.22 2313.56 783.87
  C 2340.63 773.71 2350.99 737.29 2353.97 711.49
  Q 2355.27 700.29 2355.66 684.01
  Q 2356.47 650.18 2355.73 625.25
  Q 2355.36 612.68 2354.05 601.48
  Q 2351.14 576.64 2341.69 553.80
  C 2329.18 523.52 2296.82 508.37 2266.35 523.42
  C 2264.62 524.28 2263.38 525.47 2261.75 526.11
  A 1.91 1.89 15.4 0 0 2261.27 526.38"
/>
</g>
<g fill="#121100">
<path d="
  M 1973.50 867.13
  L 1972.20 867.52
  Q 1949.71 876.02 1925.25 881.27
  Q 1897.32 887.27 1871.00 887.34
  Q 1732.52 887.69 1654.76 887.14
  Q 1637.66 887.02 1616.80 880.87
  C 1614.19 880.10 1610.82 880.60 1608.03 881.64
  Q 1597.81 885.44 1593.77 886.56
  Q 1567.78 893.76 1538.71 895.10
  Q 1526.25 895.67 1516.43 894.23
  C 1500.99 891.95 1486.47 888.63 1475.78 877.97
  Q 1471.45 873.64 1468.71 869.76
  A 1.51 1.50 -37.3 0 0 1466.53 869.47
  Q 1453.65 879.96 1438.22 886.26
  Q 1424.51 891.86 1406.24 893.96
  C 1372.49 897.83 1339.50 894.24 1309.31 878.19
  C 1306.11 876.48 1302.18 877.37 1298.59 879.02
  Q 1278.19 888.41 1255.72 891.14
  Q 1251.48 891.65 1239.78 892.38
  C 1231.69 892.88 1224.38 894.38 1216.39 894.76
  C 1206.00 895.26 1193.29 893.69 1184.19 892.38
  Q 1136.18 885.48 1101.10 850.58
  Q 1099.62 849.10 1098.20 850.44
  A 1.75 1.70 -14.1 0 0 1097.75 851.17
  C 1092.67 867.80 1078.93 878.18 1062.69 882.77
  Q 1061.98 882.86 1061.75 883.20
  Q 1046.35 887.38 1035.75 887.36
  Q 938.28 887.16 858.59 887.65
  C 847.74 887.71 839.52 887.06 828.59 886.46
  A 1.77 1.71 62.9 0 1 827.74 886.17
  L 822.64 882.69
  A 1.39 1.13 64.9 0 0 822.35 882.55
  Q 820.24 881.93 817.50 883.22
  C 805.24 889.02 793.83 890.15 777.21 892.10
  Q 756.35 894.54 745.50 895.18
  Q 729.49 896.12 712.70 893.09
  Q 699.61 890.73 688.28 883.98
  Q 687.69 883.63 682.23 880.28
  A 2.79 2.78 43.9 0 0 679.25 880.33
  C 674.58 883.44 670.87 885.80 665.34 887.58
  Q 648.81 892.91 632.32 894.31
  C 610.10 896.19 586.56 896.15 564.11 893.65
  Q 535.85 890.50 510.69 875.84
  Q 487.65 862.40 472.44 845.87
  A 1.91 1.84 -14.2 0 0 471.48 845.32
  Q 468.88 844.73 467.98 847.76
  C 452.71 899.15 424.11 947.16 380.23 977.88
  C 358.81 992.88 334.57 1004.72 309.49 1011.19
  Q 304.25 1012.54 295.57 1014.21
  Q 277.42 1017.69 273.39 1018.38
  Q 267.90 1019.32 262.00 1019.42
  Q 261.80 1019.42 236.25 1019.63
  Q 229.31 1019.68 223.76 1018.47
  Q 218.53 1017.32 194.18 1011.63
  Q 190.78 1010.84 183.81 1008.77
  Q 180.70 1007.86 177.83 1006.57
  Q 176.90 1006.16 172.02 1003.94
  C 146.95 992.55 125.70 973.84 113.10 949.22
  Q 103.40 930.28 100.02 908.26
  Q 97.90 894.45 99.54 882.48
  C 101.85 865.76 107.76 848.10 117.22 833.93
  Q 124.74 822.65 136.53 813.29
  L 137.10 812.94
  Q 150.39 801.82 165.67 798.37
  Q 192.65 792.26 219.10 799.15
  Q 236.04 803.57 245.40 817.69
  C 246.44 819.25 247.60 820.25 249.28 819.12
  Q 250.32 818.43 250.32 817.10
  Q 250.34 661.24 250.33 450.50
  C 250.32 443.66 243.64 444.24 237.81 443.27
  A 1.84 1.82 -18.8 0 1 236.90 442.83
  Q 230.64 437.33 226.97 434.59
  C 220.67 429.90 211.62 429.49 204.61 426.07
  Q 183.91 415.95 180.87 392.53
  Q 179.67 383.22 179.98 370.01
  Q 180.33 355.24 182.18 341.01
  Q 182.45 338.95 183.76 336.26
  Q 189.20 325.10 196.20 317.82
  C 201.95 311.84 207.78 305.95 214.65 300.90
  Q 218.37 298.17 222.40 297.23
  Q 236.61 293.94 247.51 294.82
  Q 255.41 295.46 257.50 295.34
  C 266.84 294.78 278.83 294.13 290.18 294.43
  C 306.27 294.86 329.18 295.05 350.60 294.07
  C 369.19 293.21 390.55 293.97 411.03 292.90
  Q 419.87 292.44 434.33 292.89
  C 446.08 293.26 457.93 291.67 469.62 293.40
  Q 479.65 294.88 488.43 301.83
  C 495.50 307.42 502.53 312.69 507.75 318.88
  Q 522.12 335.94 522.04 359.33
  Q 521.91 395.56 521.16 405.04
  Q 520.59 412.20 516.64 418.89
  A 1.44 1.44 0.0 0 0 517.85 421.06
  L 594.88 422.20
  A 4.48 4.47 -31.0 0 1 596.81 422.68
  Q 617.51 433.21 634.37 449.87
  Q 635.97 451.44 637.91 450.13
  Q 647.05 443.92 655.75 440.76
  Q 670.34 435.46 680.07 431.85
  Q 685.04 430.01 694.00 428.03
  Q 701.77 426.30 726.87 420.88
  Q 738.70 418.33 742.36 417.35
  A 14.30 13.69 23.9 0 0 744.49 416.58
  Q 754.22 412.09 764.87 409.60
  A 1.51 1.51 0.0 0 0 766.03 407.92
  Q 764.61 397.36 764.49 396.31
  Q 763.86 391.09 763.86 384.64
  Q 763.86 336.11 763.89 306.33
  Q 763.90 303.68 767.06 299.30
  Q 770.70 294.27 774.42 289.16
  Q 776.36 286.48 779.18 285.06
  A 2.94 2.84 27.5 0 1 780.09 284.79
  Q 792.32 283.38 806.75 283.45
  C 828.35 283.57 847.29 284.30 871.08 284.00
  Q 960.76 282.86 1058.00 283.86
  C 1072.05 284.01 1085.02 284.45 1099.60 286.08
  Q 1105.24 286.72 1128.40 288.96
  C 1133.67 289.47 1139.92 290.49 1144.73 291.56
  Q 1167.79 296.73 1189.64 307.69
  Q 1242.33 334.09 1268.08 387.43
  Q 1273.12 397.86 1277.38 409.27
  Q 1280.31 417.12 1281.53 423.44
  Q 1282.55 428.76 1282.84 438.12
  Q 1283.38 455.67 1283.44 469.00
  Q 1283.44 470.40 1283.64 471.67
  A 0.50 0.50 0.0 0 0 1284.44 471.99
  L 1299.01 460.87
  Q 1298.90 461.05 1299.22 460.91
  Q 1299.75 460.66 1299.55 460.31
  Q 1300.41 459.97 1301.22 459.41
  C 1331.62 438.46 1363.32 419.99 1399.51 412.31
  Q 1442.24 403.25 1485.26 407.97
  Q 1508.59 410.52 1530.82 419.17
  Q 1543.35 424.05 1556.27 430.76
  Q 1595.38 451.07 1616.93 488.80
  Q 1620.81 495.59 1623.85 502.07
  A 0.48 0.48 0.0 0 0 1624.76 501.86
  Q 1624.67 472.68 1624.70 439.99
  C 1624.71 438.27 1624.86 437.04 1623.03 436.25
  C 1621.78 435.71 1620.05 435.63 1618.42 435.00
  Q 1612.42 432.65 1608.56 430.67
  Q 1594.46 423.42 1585.58 410.15
  C 1579.52 401.09 1577.62 390.56 1576.90 379.88
  Q 1575.51 359.14 1576.49 340.76
  C 1577.42 323.27 1580.95 305.73 1595.95 294.70
  Q 1608.23 285.67 1622.25 283.74
  Q 1631.06 282.52 1643.25 282.52
  Q 1671.73 282.49 1718.25 283.04
  Q 1799.40 283.99 1880.99 284.31
  Q 1903.76 284.40 1925.51 289.43
  Q 1940.03 292.79 1954.71 300.25
  Q 1956.56 301.18 1964.94 303.18
  Q 1968.94 304.14 1978.55 308.00
  Q 1995.54 314.85 2013.12 324.43
  C 2022.55 329.57 2029.06 333.44 2036.88 340.19
  Q 2046.70 348.64 2051.06 352.12
  Q 2068.49 366.01 2080.30 377.88
  Q 2087.99 385.61 2097.39 397.79
  Q 2103.75 406.03 2118.48 425.53
  C 2124.59 433.62 2127.80 440.47 2134.45 452.48
  Q 2136.36 455.95 2141.27 455.64
  Q 2144.12 455.47 2152.12 454.03
  A 4.89 4.78 23.0 0 0 2153.91 453.33
  Q 2159.65 449.64 2167.85 444.59
  Q 2171.35 442.43 2181.36 437.87
  Q 2182.90 437.17 2189.42 432.50
  A 14.62 14.44 -74.8 0 1 2191.81 431.11
  C 2216.86 419.56 2244.10 411.77 2272.00 411.56
  Q 2308.75 411.27 2322.99 411.73
  C 2367.52 413.16 2410.82 433.33 2442.75 464.08
  C 2455.05 475.93 2467.66 489.24 2477.05 500.02
  C 2493.60 519.03 2506.66 541.92 2516.63 565.27
  C 2518.50 569.63 2519.35 574.38 2520.55 579.56
  C 2521.68 584.44 2524.16 589.21 2525.78 593.74
  Q 2528.54 601.41 2529.07 608.49
  Q 2530.08 621.90 2531.22 629.84
  Q 2532.26 637.04 2532.26 645.16
  C 2532.25 666.00 2532.45 680.55 2531.19 696.49
  Q 2529.83 713.76 2523.50 728.21
  Q 2521.10 733.69 2520.57 736.07
  C 2519.93 738.95 2518.48 743.59 2517.00 746.69
  Q 2512.13 756.95 2507.21 768.21
  C 2492.44 801.99 2468.38 831.09 2438.56 852.21
  Q 2416.46 867.87 2388.15 879.11
  Q 2350.78 893.95 2308.26 895.14
  Q 2279.82 895.94 2252.79 893.10
  Q 2241.80 891.94 2227.68 888.25
  C 2191.55 878.79 2157.79 859.26 2129.44 834.45
  Q 2114.85 821.68 2101.72 802.50
  Q 2097.62 796.51 2090.35 785.00
  A 1.23 1.22 -41.7 0 0 2088.36 784.89
  Q 2067.46 810.98 2039.83 831.80
  Q 2015.50 850.14 1985.70 862.17
  Q 1979.56 864.64 1973.50 867.13
  Z
  M 1952.27 808.14
  Q 1952.89 808.14 1953.97 807.68
  Q 2002.28 786.94 2036.69 747.70
  Q 2048.86 733.82 2057.84 717.91
  Q 2075.14 687.29 2083.44 651.49
  Q 2086.11 639.93 2087.85 624.35
  Q 2090.58 599.76 2090.79 597.00
  C 2092.79 570.19 2090.28 542.31 2085.62 515.64
  C 2083.01 500.72 2077.37 485.47 2072.03 471.66
  Q 2046.42 405.42 1985.39 369.35
  Q 1980.28 366.33 1974.77 364.07
  Q 1970.11 362.15 1965.30 359.68
  Q 1960.67 357.30 1955.68 355.59
  Q 1939.67 350.09 1922.24 346.18
  Q 1904.12 342.11 1886.31 339.47
  C 1883.44 339.05 1881.02 339.24 1878.30 338.61
  C 1873.88 337.59 1867.92 336.97 1864.25 336.64
  Q 1840.70 334.54 1809.73 334.58
  Q 1692.95 334.71 1648.51 334.42
  C 1634.35 334.32 1635.04 359.39 1635.98 368.43
  Q 1636.38 372.31 1637.80 373.90
  Q 1640.11 376.50 1642.78 376.70
  C 1659.46 377.95 1674.35 383.99 1683.00 398.73
  C 1686.55 404.78 1687.76 411.10 1687.70 418.25
  C 1687.23 475.88 1687.59 533.35 1687.84 590.92
  C 1688.06 639.68 1687.44 688.80 1687.60 735.10
  Q 1687.63 745.61 1686.86 750.88
  C 1684.66 766.06 1680.34 779.43 1664.19 784.47
  Q 1655.66 787.13 1646.33 788.27
  A 2.64 2.25 26.3 0 0 1645.74 788.42
  Q 1641.32 790.06 1641.37 794.92
  Q 1641.58 813.54 1641.76 823.99
  A 1.88 1.85 27.9 0 0 1642.08 825.00
  C 1644.49 828.56 1649.55 829.69 1653.63 829.70
  Q 1816.28 829.79 1840.25 829.82
  Q 1859.14 829.84 1875.01 827.99
  Q 1900.51 825.03 1931.36 816.04
  Q 1937.37 814.29 1952.20 808.47
  A 0.11 0.06 -25.2 0 0 1952.28 808.36
  Q 1952.20 808.24 1952.08 808.23
  A 0.15 0.03 -11.8 0 1 1952.27 808.14
  Z
  M 856.61 786.23
  Q 851.04 787.65 844.01 788.31
  C 839.32 788.75 833.65 788.65 833.67 794.50
  Q 833.67 795.33 833.82 820.35
  A 3.00 2.62 41.2 0 0 833.92 821.09
  C 835.33 826.25 841.08 828.31 845.94 828.81
  Q 849.58 829.18 867.75 829.34
  Q 949.08 830.06 1024.75 829.74
  C 1028.60 829.73 1041.12 827.05 1041.06 820.75
  Q 1040.86 799.70 1040.66 792.79
  Q 1040.63 791.72 1038.70 788.95
  A 1.21 1.19 -9.8 0 0 1037.98 788.45
  L 1026.03 785.58
  A 0.62 0.46 53.3 0 1 1025.93 785.55
  Q 1022.77 784.26 1020.00 783.71
  A 5.92 5.32 59.4 0 1 1018.98 783.39
  Q 1016.18 782.22 1013.58 781.12
  Q 1001.95 776.24 992.86 766.88
  Q 988.87 762.78 988.81 758.45
  Q 988.03 703.97 987.31 628.00
  Q 987.28 624.94 990.37 624.80
  Q 1004.00 624.14 1015.07 624.84
  C 1025.76 625.51 1031.70 627.17 1037.13 636.13
  Q 1063.52 679.72 1085.61 726.44
  Q 1087.20 729.80 1093.47 743.11
  C 1097.27 751.15 1102.56 760.25 1106.24 767.52
  Q 1115.13 785.05 1127.56 799.38
  Q 1156.06 832.23 1199.71 832.57
  Q 1220.69 832.73 1227.75 832.53
  Q 1238.47 832.23 1245.74 830.96
  Q 1262.05 828.11 1263.26 827.92
  C 1281.03 825.03 1280.67 805.92 1278.78 792.30
  A 1.90 1.89 -4.3 0 0 1276.88 790.67
  Q 1270.92 790.74 1265.32 789.17
  Q 1259.64 787.58 1253.59 784.91
  Q 1251.54 784.00 1249.63 782.78
  Q 1245.82 780.32 1245.78 780.29
  Q 1228.42 766.03 1218.25 752.45
  Q 1206.01 736.09 1200.05 725.21
  Q 1169.79 669.98 1153.94 642.57
  Q 1145.80 628.50 1130.57 608.44
  C 1128.56 605.80 1123.68 598.56 1125.58 595.83
  Q 1126.04 595.17 1128.23 594.74
  Q 1131.38 594.14 1132.83 593.30
  Q 1136.60 591.15 1140.86 589.12
  Q 1144.77 587.25 1148.74 584.70
  Q 1171.35 570.19 1187.48 550.20
  Q 1196.12 539.49 1202.00 527.98
  Q 1208.42 515.42 1211.80 503.32
  Q 1220.45 472.31 1215.66 438.57
  Q 1213.50 423.31 1205.83 408.96
  Q 1189.75 378.87 1161.41 362.09
  Q 1151.56 356.26 1143.58 352.73
  Q 1133.81 348.42 1122.59 345.22
  C 1121.08 344.79 1119.97 344.00 1118.49 344.06
  A 2.22 1.91 -35.2 0 1 1118.08 344.02
  Q 1106.22 341.30 1099.87 340.54
  Q 1090.25 339.40 1086.72 338.47
  A 3.96 3.53 -35.3 0 0 1085.73 338.36
  Q 1083.61 338.40 1083.24 338.34
  Q 1078.11 337.39 1069.50 336.56
  Q 1065.77 336.04 1057.20 335.04
  Q 1052.75 334.52 1045.77 334.54
  Q 1025.96 334.60 1006.00 334.62
  Q 895.88 334.73 834.00 334.41
  C 829.84 334.39 823.89 335.91 822.71 340.60
  Q 821.74 344.41 821.02 352.76
  C 820.28 361.24 820.38 370.47 826.84 375.89
  A 3.74 3.69 66.4 0 0 829.02 376.76
  L 845.72 377.69
  A 3.92 3.56 53.0 0 1 846.61 377.86
  Q 855.49 380.72 864.94 385.91
  Q 866.53 386.79 868.72 389.56
  Q 874.10 396.40 876.97 404.36
  Q 878.22 407.86 878.23 412.52
  Q 878.53 679.20 878.48 758.52
  C 878.47 770.02 875.01 779.75 863.85 784.22
  C 862.23 784.87 858.95 786.24 857.24 786.16
  A 2.24 2.24 0.0 0 0 856.61 786.23
  Z
  M 170.84 933.16
  C 182.04 945.05 197.34 954.56 213.52 957.51
  Q 242.93 962.87 273.34 959.08
  Q 284.81 957.65 295.58 954.35
  A 0.05 0.03 47.4 0 0 295.57 954.28
  Q 295.54 954.26 295.48 954.27
  A 0.08 0.05 -42.6 0 1 295.51 954.14
  Q 295.59 954.13 296.04 954.15
  Q 296.33 954.16 296.53 954.09
  Q 308.41 949.81 312.99 947.47
  Q 316.67 945.59 319.82 943.97
  Q 324.48 941.58 326.60 940.32
  Q 377.90 909.86 398.60 854.70
  Q 403.27 842.26 405.99 826.60
  Q 408.53 811.97 410.29 797.79
  Q 411.35 789.25 411.35 774.65
  Q 411.31 483.78 411.37 422.75
  C 411.38 414.21 414.63 404.20 421.28 398.78
  Q 427.53 393.69 435.65 390.94
  Q 437.36 390.36 444.66 388.10
  A 4.68 4.64 -55.5 0 1 445.66 387.91
  C 447.39 387.79 450.56 387.08 454.06 386.74
  Q 456.03 386.54 456.62 384.66
  Q 461.61 368.79 457.05 351.69
  Q 456.46 349.51 454.12 348.67
  Q 449.86 347.13 449.75 347.11
  A 6.94 4.19 0.9 0 0 448.81 346.93
  L 443.69 346.19
  A 0.68 0.46 37.3 0 0 443.50 346.18
  Q 412.25 346.98 372.75 346.54
  Q 347.31 346.26 275.00 346.83
  Q 265.68 346.90 260.40 347.07
  C 254.41 347.26 248.78 348.11 243.93 349.14
  A 3.04 3.02 1.9 0 0 241.65 351.26
  Q 240.49 355.30 239.73 359.68
  Q 239.30 362.18 238.93 374.88
  Q 238.73 381.83 239.27 383.06
  Q 241.12 387.23 245.33 387.84
  Q 260.92 390.11 262.39 390.30
  A 6.17 6.14 -24.7 0 1 264.97 391.25
  C 268.85 393.77 273.31 395.04 277.53 396.31
  C 297.59 402.33 301.04 424.01 301.08 441.77
  Q 301.12 463.85 301.05 464.01
  Q 300.58 465.07 300.88 851.50
  C 300.90 871.13 296.72 899.56 273.82 905.55
  Q 269.44 906.69 267.67 907.30
  Q 262.62 909.03 258.32 908.68
  C 246.36 907.70 236.75 900.27 233.71 888.55
  C 231.93 881.65 231.26 873.03 230.60 867.82
  A 5.95 5.92 28.0 0 0 230.01 865.90
  Q 229.49 864.87 226.77 862.02
  Q 212.79 847.35 193.19 848.66
  Q 186.40 849.12 180.74 852.20
  C 174.47 855.62 167.43 862.70 163.42 867.95
  Q 156.87 876.49 155.85 888.61
  Q 153.63 914.90 170.84 933.16
  Z
  M 1394.00 474.80
  Q 1390.00 476.12 1386.31 477.33
  Q 1352.58 488.31 1327.29 513.11
  Q 1317.33 522.89 1311.47 532.41
  C 1302.43 547.10 1295.12 564.93 1298.64 582.19
  Q 1302.66 601.92 1322.60 606.06
  Q 1339.75 609.63 1357.27 604.49
  C 1367.55 601.47 1375.63 594.82 1381.38 586.61
  Q 1382.69 584.75 1383.49 582.23
  Q 1386.57 572.58 1385.14 561.03
  Q 1384.19 553.33 1383.11 550.00
  C 1382.15 547.05 1382.92 544.37 1383.84 541.99
  Q 1388.58 529.82 1401.45 526.43
  Q 1410.25 524.12 1417.51 523.48
  Q 1422.34 523.06 1425.76 523.71
  Q 1442.13 526.82 1443.66 527.12
  Q 1445.83 527.55 1449.43 529.81
  Q 1469.60 542.44 1472.25 566.26
  Q 1474.12 582.96 1473.95 600.01
  C 1473.88 607.33 1472.51 614.28 1471.32 620.76
  A 1.59 1.58 -2.7 0 1 1470.20 621.99
  Q 1457.20 625.66 1445.95 628.53
  C 1436.24 631.00 1426.37 632.40 1416.88 634.27
  C 1412.90 635.05 1408.82 636.11 1405.68 637.17
  Q 1388.60 642.93 1382.23 644.18
  Q 1374.78 645.65 1372.26 646.54
  Q 1366.11 648.70 1347.07 657.35
  Q 1337.66 661.62 1327.28 669.64
  C 1300.09 690.66 1286.06 720.43 1286.60 755.29
  Q 1286.77 766.33 1287.98 777.97
  A 9.35 9.35 0.0 0 0 1288.91 781.20
  Q 1293.02 789.53 1294.28 792.30
  C 1299.12 802.96 1307.74 813.17 1316.45 820.32
  C 1330.55 831.92 1351.68 836.58 1369.55 836.73
  Q 1393.47 836.94 1416.65 831.31
  Q 1432.69 827.41 1446.12 819.08
  C 1454.68 813.77 1460.64 807.28 1469.24 798.85
  Q 1471.36 796.76 1474.40 794.33
  Q 1478.18 791.30 1479.86 790.25
  C 1483.25 788.11 1484.83 790.52 1485.23 794.00
  Q 1486.07 801.33 1488.97 811.36
  C 1492.78 824.51 1503.71 832.22 1517.04 834.05
  C 1529.23 835.73 1539.34 833.58 1553.89 831.46
  C 1568.08 829.39 1581.19 825.22 1593.43 819.22
  Q 1608.45 811.85 1610.19 795.21
  A 5.36 5.32 41.3 0 0 1610.06 793.35
  L 1607.53 783.04
  A 2.53 2.52 -6.8 0 0 1605.09 781.12
  L 1588.85 781.03
  A 4.40 4.39 53.6 0 1 1587.54 780.83
  Q 1583.29 779.55 1579.87 776.19
  Q 1577.34 773.72 1575.75 767.33
  Q 1571.40 749.88 1571.40 737.24
  Q 1571.43 613.55 1571.34 585.94
  Q 1571.28 567.67 1570.45 560.52
  Q 1565.49 517.74 1532.57 490.99
  Q 1526.51 486.07 1520.15 482.85
  Q 1519.77 482.66 1517.30 480.88
  A 4.02 3.99 -16.6 0 0 1516.42 480.41
  Q 1510.29 478.08 1507.29 476.74
  Q 1502.54 474.62 1501.62 474.44
  Q 1499.35 474.01 1495.69 472.84
  C 1493.14 472.03 1490.24 471.94 1487.58 471.29
  Q 1485.78 470.85 1481.46 470.40
  Q 1477.79 470.02 1472.01 469.08
  C 1468.78 468.55 1466.78 468.66 1463.64 468.33
  Q 1461.48 468.10 1457.35 468.11
  Q 1435.88 468.13 1414.76 470.68
  Q 1403.67 472.01 1395.39 474.69
  Q 1395.14 474.77 1394.72 474.73
  A 1.59 1.55 38.9 0 0 1394.00 474.80
  Z
  M 2386.78 492.17
  Q 2386.77 492.07 2386.09 491.65
  Q 2375.64 485.22 2365.49 480.97
  Q 2365.31 480.89 2365.00 480.89
  Q 2364.71 480.89 2364.52 480.77
  Q 2361.77 479.05 2359.99 478.84
  A 1.94 1.93 -25.7 0 1 2359.21 478.57
  Q 2357.65 477.63 2355.83 477.35
  A 1.28 1.20 -28.5 0 1 2355.56 477.28
  Q 2339.02 471.39 2320.94 469.54
  Q 2289.85 466.34 2258.36 471.48
  Q 2240.41 474.41 2226.33 480.37
  C 2183.07 498.67 2150.50 533.34 2132.89 576.61
  C 2128.59 587.17 2125.53 600.43 2121.82 611.56
  C 2120.99 614.03 2119.73 619.42 2119.21 623.37
  Q 2116.07 647.16 2116.14 671.50
  Q 2116.17 680.60 2118.04 692.50
  C 2121.50 714.41 2126.88 735.45 2136.48 754.16
  Q 2154.58 789.41 2188.67 812.16
  Q 2201.77 820.90 2217.76 826.24
  Q 2240.83 833.95 2263.52 836.67
  Q 2317.42 843.14 2367.73 822.18
  Q 2393.16 811.58 2412.33 791.58
  Q 2432.82 770.21 2446.56 742.12
  Q 2450.92 733.20 2454.20 722.48
  Q 2459.65 704.68 2460.25 702.23
  Q 2463.21 690.05 2464.24 674.99
  Q 2466.16 646.97 2464.22 618.49
  Q 2463.16 602.88 2457.82 588.68
  Q 2453.80 578.00 2452.96 571.65
  A 3.53 3.47 29.1 0 0 2452.64 570.56
  Q 2446.41 557.57 2439.53 545.72
  Q 2429.90 529.14 2416.11 515.39
  Q 2403.42 502.75 2387.93 492.65
  Q 2387.42 492.31 2387.08 492.39
  A 0.24 0.24 0.0 0 1 2386.78 492.17
  Z
  M 741.58 472.83
  Q 741.30 473.00 741.19 473.01
  Q 727.26 474.87 713.59 478.58
  Q 705.74 480.72 700.78 481.27
  Q 687.25 482.77 669.90 482.59
  A 2.06 1.60 -42.7 0 0 669.43 482.63
  Q 661.37 484.28 655.49 487.32
  A 3.41 3.08 9.2 0 0 654.95 487.67
  Q 651.01 490.89 650.51 497.78
  C 649.84 506.96 649.90 514.63 652.08 522.94
  C 653.22 527.29 656.00 528.80 660.57 528.66
  C 669.10 528.40 676.61 528.25 683.57 533.43
  Q 687.01 535.99 687.26 540.50
  Q 688.58 564.38 688.03 586.88
  C 686.92 631.61 687.25 675.97 687.70 728.75
  Q 687.77 736.82 686.47 744.72
  C 685.18 752.55 682.00 758.20 675.28 763.07
  Q 665.50 770.18 653.39 772.98
  C 644.89 774.94 635.99 774.02 626.51 774.17
  Q 621.02 774.25 615.98 772.44
  Q 608.14 769.64 601.54 762.97
  Q 598.23 759.62 592.89 752.47
  Q 590.35 749.07 588.82 744.21
  Q 584.83 731.62 583.10 723.15
  C 582.16 718.54 581.90 712.72 581.89 707.99
  Q 581.86 595.58 581.65 496.05
  C 581.63 487.79 580.46 482.01 576.73 475.65
  A 3.04 3.01 79.3 0 0 574.62 474.20
  L 560.11 471.82
  A 2.80 2.80 0.0 0 0 559.17 471.82
  Q 557.08 472.17 551.00 472.78
  Q 546.05 473.28 542.48 473.41
  Q 531.83 473.81 519.55 476.26
  Q 503.20 479.53 501.64 479.71
  Q 484.51 481.71 477.11 482.24
  C 468.34 482.86 459.12 483.64 453.03 484.84
  Q 447.14 486.00 444.60 490.43
  Q 443.21 492.85 443.27 500.56
  Q 443.32 508.26 443.37 516.26
  C 443.39 520.80 443.60 527.88 448.85 528.09
  Q 455.34 528.34 462.85 529.20
  C 475.50 530.66 484.65 536.19 484.61 550.00
  Q 484.43 622.43 483.39 714.29
  Q 483.07 742.42 484.38 750.68
  Q 489.90 785.68 514.21 810.87
  Q 521.58 818.51 533.94 825.33
  C 539.53 828.42 545.59 829.95 552.12 832.20
  C 571.82 839.00 591.59 840.66 612.37 836.96
  Q 616.33 836.25 629.80 833.01
  Q 640.85 830.35 647.12 828.59
  Q 652.58 827.06 656.61 824.84
  C 667.45 818.84 677.22 810.00 685.88 801.30
  Q 689.75 797.42 692.14 795.72
  Q 694.35 794.14 699.15 791.18
  A 0.98 0.97 67.0 0 1 700.60 791.77
  Q 701.00 793.30 700.92 795.25
  Q 700.44 806.85 701.90 815.99
  Q 703.46 825.74 710.57 830.29
  Q 716.89 834.34 727.39 836.14
  Q 729.03 836.42 730.31 836.26
  A 7.81 5.74 -24.6 0 0 731.37 836.06
  C 744.46 832.81 761.62 830.66 775.44 829.14
  Q 787.40 827.83 792.98 826.07
  Q 805.23 822.20 817.48 814.85
  C 823.27 811.37 826.06 807.11 826.56 800.53
  Q 827.18 792.29 825.23 782.92
  A 1.65 1.64 -6.7 0 0 823.57 781.61
  C 817.95 781.76 813.71 780.85 808.58 779.88
  Q 804.99 779.20 799.92 776.43
  C 791.37 771.76 791.23 759.55 790.46 751.23
  Q 789.51 740.91 789.55 729.00
  Q 789.94 610.31 789.21 491.50
  C 789.16 483.73 789.78 475.36 781.25 472.74
  Q 774.97 470.80 766.99 470.96
  Q 755.77 471.19 744.25 472.61
  Q 743.50 472.70 742.29 472.65
  A 1.25 1.18 29.1 0 0 741.58 472.83
  Z"
/>
<path d="
  M 1810.12 780.18
  C 1805.83 779.64 1803.19 774.03 1801.77 770.27
  Q 1797.34 758.58 1797.32 745.00
  Q 1797.27 693.61 1797.34 410.96
  Q 1797.34 407.11 1797.61 401.54
  Q 1797.93 394.99 1798.74 392.22
  Q 1800.58 385.95 1807.50 385.66
  Q 1831.04 384.69 1856.32 387.14
  C 1868.65 388.33 1879.81 393.77 1891.65 398.85
  C 1898.38 401.74 1904.13 406.23 1910.01 410.99
  Q 1940.94 436.04 1954.32 473.98
  C 1969.91 518.19 1973.54 564.11 1971.36 610.54
  Q 1970.41 630.88 1966.88 652.41
  C 1965.22 662.52 1962.99 672.70 1959.83 682.11
  C 1956.95 690.68 1955.25 699.16 1951.55 706.88
  Q 1944.59 721.41 1934.74 734.23
  Q 1913.49 761.89 1881.77 771.88
  Q 1873.72 774.41 1860.22 776.59
  Q 1847.41 778.65 1838.37 779.82
  Q 1824.63 781.59 1811.50 780.57
  Q 1811.33 780.55 1810.57 780.29
  A 2.16 2.07 57.5 0 0 1810.12 780.18
  Z"
/>
<path d="
  M 988.63 388.49
  Q 989.69 387.38 990.38 387.38
  Q 1014.23 387.28 1027.21 387.17
  C 1041.97 387.05 1054.84 390.99 1068.85 396.69
  C 1081.54 401.85 1090.88 412.80 1097.41 425.34
  C 1102.47 435.07 1104.43 445.85 1104.82 456.75
  Q 1105.79 484.12 1103.64 510.03
  A 13.90 13.13 -36.2 0 1 1103.18 512.54
  Q 1100.65 521.59 1094.21 535.00
  Q 1082.46 559.45 1056.61 568.91
  Q 1047.52 572.23 1036.84 575.02
  Q 1027.55 577.44 1016.36 577.94
  Q 1003.17 578.54 988.80 577.42
  A 1.09 1.09 0.0 0 1 987.79 576.33
  L 987.79 390.60
  A 3.08 3.03 67.2 0 1 988.63 388.49
  Z"
/>
<path d="
  M 2261.75 526.11
  C 2263.38 525.47 2264.62 524.28 2266.35 523.42
  C 2296.82 508.37 2329.18 523.52 2341.69 553.80
  Q 2351.14 576.64 2354.05 601.48
  Q 2355.36 612.68 2355.73 625.25
  Q 2356.47 650.18 2355.66 684.01
  Q 2355.27 700.29 2353.97 711.49
  C 2350.99 737.29 2340.63 773.71 2313.56 783.87
  Q 2307.30 786.22 2299.32 786.57
  C 2291.78 786.90 2284.55 786.90 2277.65 784.33
  A 3.75 3.65 -33.3 0 0 2276.51 784.11
  Q 2274.46 784.06 2272.46 782.55
  A 2.24 2.23 -21.7 0 0 2271.50 782.14
  Q 2269.47 781.82 2267.20 780.50
  Q 2252.54 771.98 2244.38 757.39
  Q 2231.78 734.86 2227.99 711.05
  Q 2225.37 694.66 2224.44 669.56
  Q 2223.14 634.60 2226.21 601.51
  Q 2228.48 577.04 2238.84 554.37
  Q 2246.66 537.23 2261.27 526.38
  A 1.91 1.89 15.4 0 1 2261.75 526.11
  Z"
/>
<path d="
  M 1441.07 774.80
  Q 1435.88 776.20 1433.16 776.38
  C 1428.55 776.68 1424.49 777.23 1419.62 776.83
  Q 1411.98 776.21 1411.92 776.20
  Q 1409.08 775.88 1403.88 773.99
  Q 1399.34 772.34 1396.39 770.35
  Q 1386.45 763.65 1383.71 751.54
  C 1380.75 738.46 1381.79 720.95 1385.97 708.71
  Q 1389.47 698.46 1396.84 690.07
  Q 1402.85 683.23 1413.22 678.22
  Q 1417.04 676.38 1428.12 672.60
  C 1442.31 667.75 1456.51 666.89 1471.01 665.71
  Q 1473.46 665.51 1473.46 668.24
  Q 1473.35 702.20 1473.40 730.03
  Q 1473.42 740.11 1472.25 748.50
  Q 1471.42 754.43 1468.87 759.40
  A 5.44 5.44 0.0 0 1 1467.10 761.41
  L 1453.16 770.95
  A 10.60 10.58 -71.0 0 1 1450.52 772.24
  Q 1449.57 772.57 1443.03 774.57
  Q 1442.90 774.60 1441.67 774.69
  A 4.06 3.38 -50.2 0 0 1441.07 774.80
  Z"
/>
</g>
<g fill="#f9e7bb">
<path d="
  M 1952.08 808.23
  Q 1952.20 808.24 1952.28 808.36
  A 0.11 0.06 -25.2 0 1 1952.20 808.47
  Q 1937.37 814.29 1931.36 816.04
  Q 1900.51 825.03 1875.01 827.99
  Q 1859.14 829.84 1840.25 829.82
  Q 1816.28 829.79 1653.63 829.70
  C 1649.55 829.69 1644.49 828.56 1642.08 825.00
  A 1.88 1.85 27.9 0 1 1641.76 823.99
  Q 1641.58 813.54 1641.37 794.92
  Q 1641.32 790.06 1645.74 788.42
  A 2.64 2.25 26.3 0 1 1646.33 788.27
  Q 1655.66 787.13 1664.19 784.47
  C 1680.34 779.43 1684.66 766.06 1686.86 750.88
  Q 1687.63 745.61 1687.60 735.10
  C 1687.44 688.80 1688.06 639.68 1687.84 590.92
  C 1687.59 533.35 1687.23 475.88 1687.70 418.25
  C 1687.76 411.10 1686.55 404.78 1683.00 398.73
  C 1674.35 383.99 1659.46 377.95 1642.78 376.70
  Q 1640.11 376.50 1637.80 373.90
  Q 1636.38 372.31 1635.98 368.43
  C 1635.04 359.39 1634.35 334.32 1648.51 334.42
  Q 1692.95 334.71 1809.73 334.58
  Q 1840.70 334.54 1864.25 336.64
  C 1867.92 336.97 1873.88 337.59 1878.30 338.61
  C 1881.02 339.24 1883.44 339.05 1886.31 339.47
  Q 1904.12 342.11 1922.24 346.18
  Q 1939.67 350.09 1955.68 355.59
  Q 1960.67 357.30 1965.30 359.68
  Q 1970.11 362.15 1974.77 364.07
  Q 1980.28 366.33 1985.39 369.35
  Q 2046.42 405.42 2072.03 471.66
  C 2077.37 485.47 2083.01 500.72 2085.62 515.64
  C 2090.28 542.31 2092.79 570.19 2090.79 597.00
  Q 2090.58 599.76 2087.85 624.35
  Q 2086.11 639.93 2083.44 651.49
  Q 2075.14 687.29 2057.84 717.91
  Q 2048.86 733.82 2036.69 747.70
  Q 2002.28 786.94 1953.97 807.68
  Q 1952.89 808.14 1952.27 808.14
  A 0.15 0.03 -11.8 0 0 1952.08 808.23
  Z
  M 1810.57 780.29
  Q 1811.33 780.55 1811.50 780.57
  Q 1824.63 781.59 1838.37 779.82
  Q 1847.41 778.65 1860.22 776.59
  Q 1873.72 774.41 1881.77 771.88
  Q 1913.49 761.89 1934.74 734.23
  Q 1944.59 721.41 1951.55 706.88
  C 1955.25 699.16 1956.95 690.68 1959.83 682.11
  C 1962.99 672.70 1965.22 662.52 1966.88 652.41
  Q 1970.41 630.88 1971.36 610.54
  C 1973.54 564.11 1969.91 518.19 1954.32 473.98
  Q 1940.94 436.04 1910.01 410.99
  C 1904.13 406.23 1898.38 401.74 1891.65 398.85
  C 1879.81 393.77 1868.65 388.33 1856.32 387.14
  Q 1831.04 384.69 1807.50 385.66
  Q 1800.58 385.95 1798.74 392.22
  Q 1797.93 394.99 1797.61 401.54
  Q 1797.34 407.11 1797.34 410.96
  Q 1797.27 693.61 1797.32 745.00
  Q 1797.34 758.58 1801.77 770.27
  C 1803.19 774.03 1805.83 779.64 1810.12 780.18
  A 2.16 2.07 57.5 0 1 1810.57 780.29
  Z"
/>
<path d="
  M 857.24 786.16
  C 858.95 786.24 862.23 784.87 863.85 784.22
  C 875.01 779.75 878.47 770.02 878.48 758.52
  Q 878.53 679.20 878.23 412.52
  Q 878.22 407.86 876.97 404.36
  Q 874.10 396.40 868.72 389.56
  Q 866.53 386.79 864.94 385.91
  Q 855.49 380.72 846.61 377.86
  A 3.92 3.56 53.0 0 0 845.72 377.69
  L 829.02 376.76
  A 3.74 3.69 66.4 0 1 826.84 375.89
  C 820.38 370.47 820.28 361.24 821.02 352.76
  Q 821.74 344.41 822.71 340.60
  C 823.89 335.91 829.84 334.39 834.00 334.41
  Q 895.88 334.73 1006.00 334.62
  Q 1025.96 334.60 1045.77 334.54
  Q 1052.75 334.52 1057.20 335.04
  Q 1065.77 336.04 1069.50 336.56
  Q 1078.11 337.39 1083.24 338.34
  Q 1083.61 338.40 1085.73 338.36
  A 3.96 3.53 -35.3 0 1 1086.72 338.47
  Q 1090.25 339.40 1099.87 340.54
  Q 1106.22 341.30 1118.08 344.02
  A 2.22 1.91 -35.2 0 0 1118.49 344.06
  C 1119.97 344.00 1121.08 344.79 1122.59 345.22
  Q 1133.81 348.42 1143.58 352.73
  Q 1151.56 356.26 1161.41 362.09
  Q 1189.75 378.87 1205.83 408.96
  Q 1213.50 423.31 1215.66 438.57
  Q 1220.45 472.31 1211.80 503.32
  Q 1208.42 515.42 1202.00 527.98
  Q 1196.12 539.49 1187.48 550.20
  Q 1171.35 570.19 1148.74 584.70
  Q 1144.77 587.25 1140.86 589.12
  Q 1136.60 591.15 1132.83 593.30
  Q 1131.38 594.14 1128.23 594.74
  Q 1126.04 595.17 1125.58 595.83
  C 1123.68 598.56 1128.56 605.80 1130.57 608.44
  Q 1145.80 628.50 1153.94 642.57
  Q 1169.79 669.98 1200.05 725.21
  Q 1206.01 736.09 1218.25 752.45
  Q 1228.42 766.03 1245.78 780.29
  Q 1245.82 780.32 1249.63 782.78
  Q 1251.54 784.00 1253.59 784.91
  Q 1259.64 787.58 1265.32 789.17
  Q 1270.92 790.74 1276.88 790.67
  A 1.90 1.89 -4.3 0 1 1278.78 792.30
  C 1280.67 805.92 1281.03 825.03 1263.26 827.92
  Q 1262.05 828.11 1245.74 830.96
  Q 1238.47 832.23 1227.75 832.53
  Q 1220.69 832.73 1199.71 832.57
  Q 1156.06 832.23 1127.56 799.38
  Q 1115.13 785.05 1106.24 767.52
  C 1102.56 760.25 1097.27 751.15 1093.47 743.11
  Q 1087.20 729.80 1085.61 726.44
  Q 1063.52 679.72 1037.13 636.13
  C 1031.70 627.17 1025.76 625.51 1015.07 624.84
  Q 1004.00 624.14 990.37 624.80
  Q 987.28 624.94 987.31 628.00
  Q 988.03 703.97 988.81 758.45
  Q 988.87 762.78 992.86 766.88
  Q 1001.95 776.24 1013.58 781.12
  Q 1016.18 782.22 1018.98 783.39
  A 5.92 5.32 59.4 0 0 1020.00 783.71
  Q 1022.77 784.26 1025.93 785.55
  A 0.62 0.46 53.3 0 0 1026.03 785.58
  L 1037.98 788.45
  A 1.21 1.19 -9.8 0 1 1038.70 788.95
  Q 1040.63 791.72 1040.66 792.79
  Q 1040.86 799.70 1041.06 820.75
  C 1041.12 827.05 1028.60 829.73 1024.75 829.74
  Q 949.08 830.06 867.75 829.34
  Q 849.58 829.18 845.94 828.81
  C 841.08 828.31 835.33 826.25 833.92 821.09
  A 3.00 2.62 41.2 0 1 833.82 820.35
  Q 833.67 795.33 833.67 794.50
  C 833.65 788.65 839.32 788.75 844.01 788.31
  Q 851.04 787.65 856.61 786.23
  A 2.24 2.24 0.0 0 1 857.24 786.16
  Z
  M 988.63 388.49
  A 3.08 3.03 67.2 0 0 987.79 390.60
  L 987.79 576.33
  A 1.09 1.09 0.0 0 0 988.80 577.42
  Q 1003.17 578.54 1016.36 577.94
  Q 1027.55 577.44 1036.84 575.02
  Q 1047.52 572.23 1056.61 568.91
  Q 1082.46 559.45 1094.21 535.00
  Q 1100.65 521.59 1103.18 512.54
  A 13.90 13.13 -36.2 0 0 1103.64 510.03
  Q 1105.79 484.12 1104.82 456.75
  C 1104.43 445.85 1102.47 435.07 1097.41 425.34
  C 1090.88 412.80 1081.54 401.85 1068.85 396.69
  C 1054.84 390.99 1041.97 387.05 1027.21 387.17
  Q 1014.23 387.28 990.38 387.38
  Q 989.69 387.38 988.63 388.49
  Z"
/>
<path d="
  M 213.52 957.51
  C 197.34 954.56 182.04 945.05 170.84 933.16
  Q 153.63 914.90 155.85 888.61
  Q 156.87 876.49 163.42 867.95
  C 167.43 862.70 174.47 855.62 180.74 852.20
  Q 186.40 849.12 193.19 848.66
  Q 212.79 847.35 226.77 862.02
  Q 229.49 864.87 230.01 865.90
  A 5.95 5.92 28.0 0 1 230.60 867.82
  C 231.26 873.03 231.93 881.65 233.71 888.55
  C 236.75 900.27 246.36 907.70 258.32 908.68
  Q 262.62 909.03 267.67 907.30
  Q 269.44 906.69 273.82 905.55
  C 296.72 899.56 300.90 871.13 300.88 851.50
  Q 300.58 465.07 301.05 464.01
  Q 301.12 463.85 301.08 441.77
  C 301.04 424.01 297.59 402.33 277.53 396.31
  C 273.31 395.04 268.85 393.77 264.97 391.25
  A 6.17 6.14 -24.7 0 0 262.39 390.30
  Q 260.92 390.11 245.33 387.84
  Q 241.12 387.23 239.27 383.06
  Q 238.73 381.83 238.93 374.88
  Q 239.30 362.18 239.73 359.68
  Q 240.49 355.30 241.65 351.26
  A 3.04 3.02 1.9 0 1 243.93 349.14
  C 248.78 348.11 254.41 347.26 260.40 347.07
  Q 265.68 346.90 275.00 346.83
  Q 347.31 346.26 372.75 346.54
  Q 412.25 346.98 443.50 346.18
  A 0.68 0.46 37.3 0 1 443.69 346.19
  L 448.81 346.93
  A 6.94 4.19 0.9 0 1 449.75 347.11
  Q 449.86 347.13 454.12 348.67
  Q 456.46 349.51 457.05 351.69
  Q 461.61 368.79 456.62 384.66
  Q 456.03 386.54 454.06 386.74
  C 450.56 387.08 447.39 387.79 445.66 387.91
  A 4.68 4.64 -55.5 0 0 444.66 388.10
  Q 437.36 390.36 435.65 390.94
  Q 427.53 393.69 421.28 398.78
  C 414.63 404.20 411.38 414.21 411.37 422.75
  Q 411.31 483.78 411.35 774.65
  Q 411.35 789.25 410.29 797.79
  Q 408.53 811.97 405.99 826.60
  Q 403.27 842.26 398.60 854.70
  Q 377.90 909.86 326.60 940.32
  Q 324.48 941.58 319.82 943.97
  Q 316.67 945.59 312.99 947.47
  Q 308.41 949.81 296.53 954.09
  Q 296.33 954.16 296.04 954.15
  Q 295.59 954.13 295.51 954.14
  A 0.08 0.05 -42.6 0 0 295.48 954.27
  Q 295.54 954.26 295.57 954.28
  A 0.05 0.03 47.4 0 1 295.58 954.35
  Q 284.81 957.65 273.34 959.08
  Q 242.93 962.87 213.52 957.51
  Z"
/>
<path d="
  M 1299.55 460.31
  Q 1299.75 460.66 1299.22 460.91
  Q 1298.90 461.05 1299.01 460.87
  Q 1298.99 460.55 1299.55 460.31
  Z"
/>
<path d="
  M 1394.72 474.73
  Q 1395.14 474.77 1395.39 474.69
  Q 1403.67 472.01 1414.76 470.68
  Q 1435.88 468.13 1457.35 468.11
  Q 1461.48 468.10 1463.64 468.33
  C 1466.78 468.66 1468.78 468.55 1472.01 469.08
  Q 1477.79 470.02 1481.46 470.40
  Q 1485.78 470.85 1487.58 471.29
  C 1490.24 471.94 1493.14 472.03 1495.69 472.84
  Q 1499.35 474.01 1501.62 474.44
  Q 1502.54 474.62 1507.29 476.74
  Q 1510.29 478.08 1516.42 480.41
  A 4.02 3.99 -16.6 0 1 1517.30 480.88
  Q 1519.77 482.66 1520.15 482.85
  Q 1526.51 486.07 1532.57 490.99
  Q 1565.49 517.74 1570.45 560.52
  Q 1571.28 567.67 1571.34 585.94
  Q 1571.43 613.55 1571.40 737.24
  Q 1571.40 749.88 1575.75 767.33
  Q 1577.34 773.72 1579.87 776.19
  Q 1583.29 779.55 1587.54 780.83
  A 4.40 4.39 53.6 0 0 1588.85 781.03
  L 1605.09 781.12
  A 2.53 2.52 -6.8 0 1 1607.53 783.04
  L 1610.06 793.35
  A 5.36 5.32 41.3 0 1 1610.19 795.21
  Q 1608.45 811.85 1593.43 819.22
  C 1581.19 825.22 1568.08 829.39 1553.89 831.46
  C 1539.34 833.58 1529.23 835.73 1517.04 834.05
  C 1503.71 832.22 1492.78 824.51 1488.97 811.36
  Q 1486.07 801.33 1485.23 794.00
  C 1484.83 790.52 1483.25 788.11 1479.86 790.25
  Q 1478.18 791.30 1474.40 794.33
  Q 1471.36 796.76 1469.24 798.85
  C 1460.64 807.28 1454.68 813.77 1446.12 819.08
  Q 1432.69 827.41 1416.65 831.31
  Q 1393.47 836.94 1369.55 836.73
  C 1351.68 836.58 1330.55 831.92 1316.45 820.32
  C 1307.74 813.17 1299.12 802.96 1294.28 792.30
  Q 1293.02 789.53 1288.91 781.20
  A 9.35 9.35 0.0 0 1 1287.98 777.97
  Q 1286.77 766.33 1286.60 755.29
  C 1286.06 720.43 1300.09 690.66 1327.28 669.64
  Q 1337.66 661.62 1347.07 657.35
  Q 1366.11 648.70 1372.26 646.54
  Q 1374.78 645.65 1382.23 644.18
  Q 1388.60 642.93 1405.68 637.17
  C 1408.82 636.11 1412.90 635.05 1416.88 634.27
  C 1426.37 632.40 1436.24 631.00 1445.95 628.53
  Q 1457.20 625.66 1470.20 621.99
  A 1.59 1.58 -2.7 0 0 1471.32 620.76
  C 1472.51 614.28 1473.88 607.33 1473.95 600.01
  Q 1474.12 582.96 1472.25 566.26
  Q 1469.60 542.44 1449.43 529.81
  Q 1445.83 527.55 1443.66 527.12
  Q 1442.13 526.82 1425.76 523.71
  Q 1422.34 523.06 1417.51 523.48
  Q 1410.25 524.12 1401.45 526.43
  Q 1388.58 529.82 1383.84 541.99
  C 1382.92 544.37 1382.15 547.05 1383.11 550.00
  Q 1384.19 553.33 1385.14 561.03
  Q 1386.57 572.58 1383.49 582.23
  Q 1382.69 584.75 1381.38 586.61
  C 1375.63 594.82 1367.55 601.47 1357.27 604.49
  Q 1339.75 609.63 1322.60 606.06
  Q 1302.66 601.92 1298.64 582.19
  C 1295.12 564.93 1302.43 547.10 1311.47 532.41
  Q 1317.33 522.89 1327.29 513.11
  Q 1352.58 488.31 1386.31 477.33
  Q 1390.00 476.12 1394.00 474.80
  A 1.59 1.55 38.9 0 1 1394.72 474.73
  Z
  M 1441.67 774.69
  Q 1442.90 774.60 1443.03 774.57
  Q 1449.57 772.57 1450.52 772.24
  A 10.60 10.58 -71.0 0 0 1453.16 770.95
  L 1467.10 761.41
  A 5.44 5.44 0.0 0 0 1468.87 759.40
  Q 1471.42 754.43 1472.25 748.50
  Q 1473.42 740.11 1473.40 730.03
  Q 1473.35 702.20 1473.46 668.24
  Q 1473.46 665.51 1471.01 665.71
  C 1456.51 666.89 1442.31 667.75 1428.12 672.60
  Q 1417.04 676.38 1413.22 678.22
  Q 1402.85 683.23 1396.84 690.07
  Q 1389.47 698.46 1385.97 708.71
  C 1381.79 720.95 1380.75 738.46 1383.71 751.54
  Q 1386.45 763.65 1396.39 770.35
  Q 1399.34 772.34 1403.88 773.99
  Q 1409.08 775.88 1411.92 776.20
  Q 1411.98 776.21 1419.62 776.83
  C 1424.49 777.23 1428.55 776.68 1433.16 776.38
  Q 1435.88 776.20 1441.07 774.80
  A 4.06 3.38 -50.2 0 1 1441.67 774.69
  Z"
/>
<path d="
  M 2387.08 492.39
  Q 2387.42 492.31 2387.93 492.65
  Q 2403.42 502.75 2416.11 515.39
  Q 2429.90 529.14 2439.53 545.72
  Q 2446.41 557.57 2452.64 570.56
  A 3.53 3.47 29.1 0 1 2452.96 571.65
  Q 2453.80 578.00 2457.82 588.68
  Q 2463.16 602.88 2464.22 618.49
  Q 2466.16 646.97 2464.24 674.99
  Q 2463.21 690.05 2460.25 702.23
  Q 2459.65 704.68 2454.20 722.48
  Q 2450.92 733.20 2446.56 742.12
  Q 2432.82 770.21 2412.33 791.58
  Q 2393.16 811.58 2367.73 822.18
  Q 2317.42 843.14 2263.52 836.67
  Q 2240.83 833.95 2217.76 826.24
  Q 2201.77 820.90 2188.67 812.16
  Q 2154.58 789.41 2136.48 754.16
  C 2126.88 735.45 2121.50 714.41 2118.04 692.50
  Q 2116.17 680.60 2116.14 671.50
  Q 2116.07 647.16 2119.21 623.37
  C 2119.73 619.42 2120.99 614.03 2121.82 611.56
  C 2125.53 600.43 2128.59 587.17 2132.89 576.61
  C 2150.50 533.34 2183.07 498.67 2226.33 480.37
  Q 2240.41 474.41 2258.36 471.48
  Q 2289.85 466.34 2320.94 469.54
  Q 2339.02 471.39 2355.56 477.28
  A 1.28 1.20 -28.5 0 0 2355.83 477.35
  Q 2357.65 477.63 2359.21 478.57
  A 1.94 1.93 -25.7 0 0 2359.99 478.84
  Q 2361.77 479.05 2364.52 480.77
  Q 2364.71 480.89 2365.00 480.89
  Q 2365.31 480.89 2365.49 480.97
  Q 2375.64 485.22 2386.09 491.65
  Q 2386.77 492.07 2386.78 492.17
  A 0.24 0.24 0.0 0 0 2387.08 492.39
  Z
  M 2261.27 526.38
  Q 2246.66 537.23 2238.84 554.37
  Q 2228.48 577.04 2226.21 601.51
  Q 2223.14 634.60 2224.44 669.56
  Q 2225.37 694.66 2227.99 711.05
  Q 2231.78 734.86 2244.38 757.39
  Q 2252.54 771.98 2267.20 780.50
  Q 2269.47 781.82 2271.50 782.14
  A 2.24 2.23 -21.7 0 1 2272.46 782.55
  Q 2274.46 784.06 2276.51 784.11
  A 3.75 3.65 -33.3 0 1 2277.65 784.33
  C 2284.55 786.90 2291.78 786.90 2299.32 786.57
  Q 2307.30 786.22 2313.56 783.87
  C 2340.63 773.71 2350.99 737.29 2353.97 711.49
  Q 2355.27 700.29 2355.66 684.01
  Q 2356.47 650.18 2355.73 625.25
  Q 2355.36 612.68 2354.05 601.48
  Q 2351.14 576.64 2341.69 553.80
  C 2329.18 523.52 2296.82 508.37 2266.35 523.42
  C 2264.62 524.28 2263.38 525.47 2261.75 526.11
  A 1.91 1.89 15.4 0 0 2261.27 526.38
  Z"
/>
<path d="
  M 742.29 472.65
  Q 743.50 472.70 744.25 472.61
  Q 755.77 471.19 766.99 470.96
  Q 774.97 470.80 781.25 472.74
  C 789.78 475.36 789.16 483.73 789.21 491.50
  Q 789.94 610.31 789.55 729.00
  Q 789.51 740.91 790.46 751.23
  C 791.23 759.55 791.37 771.76 799.92 776.43
  Q 804.99 779.20 808.58 779.88
  C 813.71 780.85 817.95 781.76 823.57 781.61
  A 1.65 1.64 -6.7 0 1 825.23 782.92
  Q 827.18 792.29 826.56 800.53
  C 826.06 807.11 823.27 811.37 817.48 814.85
  Q 805.23 822.20 792.98 826.07
  Q 787.40 827.83 775.44 829.14
  C 761.62 830.66 744.46 832.81 731.37 836.06
  A 7.81 5.74 -24.6 0 1 730.31 836.26
  Q 729.03 836.42 727.39 836.14
  Q 716.89 834.34 710.57 830.29
  Q 703.46 825.74 701.90 815.99
  Q 700.44 806.85 700.92 795.25
  Q 701.00 793.30 700.60 791.77
  A 0.98 0.97 67.0 0 0 699.15 791.18
  Q 694.35 794.14 692.14 795.72
  Q 689.75 797.42 685.88 801.30
  C 677.22 810.00 667.45 818.84 656.61 824.84
  Q 652.58 827.06 647.12 828.59
  Q 640.85 830.35 629.80 833.01
  Q 616.33 836.25 612.37 836.96
  C 591.59 840.66 571.82 839.00 552.12 832.20
  C 545.59 829.95 539.53 828.42 533.94 825.33
  Q 521.58 818.51 514.21 810.87
  Q 489.90 785.68 484.38 750.68
  Q 483.07 742.42 483.39 714.29
  Q 484.43 622.43 484.61 550.00
  C 484.65 536.19 475.50 530.66 462.85 529.20
  Q 455.34 528.34 448.85 528.09
  C 443.60 527.88 443.39 520.80 443.37 516.26
  Q 443.32 508.26 443.27 500.56
  Q 443.21 492.85 444.60 490.43
  Q 447.14 486.00 453.03 484.84
  C 459.12 483.64 468.34 482.86 477.11 482.24
  Q 484.51 481.71 501.64 479.71
  Q 503.20 479.53 519.55 476.26
  Q 531.83 473.81 542.48 473.41
  Q 546.05 473.28 551.00 472.78
  Q 557.08 472.17 559.17 471.82
  A 2.80 2.80 0.0 0 1 560.11 471.82
  L 574.62 474.20
  A 3.04 3.01 79.3 0 1 576.73 475.65
  C 580.46 482.01 581.63 487.79 581.65 496.05
  Q 581.86 595.58 581.89 707.99
  C 581.90 712.72 582.16 718.54 583.10 723.15
  Q 584.83 731.62 588.82 744.21
  Q 590.35 749.07 592.89 752.47
  Q 598.23 759.62 601.54 762.97
  Q 608.14 769.64 615.98 772.44
  Q 621.02 774.25 626.51 774.17
  C 635.99 774.02 644.89 774.94 653.39 772.98
  Q 665.50 770.18 675.28 763.07
  C 682.00 758.20 685.18 752.55 686.47 744.72
  Q 687.77 736.82 687.70 728.75
  C 687.25 675.97 686.92 631.61 688.03 586.88
  Q 688.58 564.38 687.26 540.50
  Q 687.01 535.99 683.57 533.43
  C 676.61 528.25 669.10 528.40 660.57 528.66
  C 656.00 528.80 653.22 527.29 652.08 522.94
  C 649.90 514.63 649.84 506.96 650.51 497.78
  Q 651.01 490.89 654.95 487.67
  A 3.41 3.08 9.2 0 1 655.49 487.32
  Q 661.37 484.28 669.43 482.63
  A 2.06 1.60 -42.7 0 1 669.90 482.59
  Q 687.25 482.77 700.78 481.27
  Q 705.74 480.72 713.59 478.58
  Q 727.26 474.87 741.19 473.01
  Q 741.30 473.00 741.58 472.83
  A 1.25 1.18 29.1 0 1 742.29 472.65
  Z"
/>
<path d="
  M 137.10 812.94
  L 136.53 813.29
  Q 136.90 812.75 137.10 812.94
  Z"
/>
<path d="
  M 1973.50 867.13
  Q 1973.22 867.84 1972.20 867.52
  L 1973.50 867.13
  Z"
/>
<path d="
  M 1062.69 882.77
  Q 1062.76 883.18 1061.75 883.20
  Q 1061.98 882.86 1062.69 882.77
  Z"
/>
</g>
</svg>
