<?xml version="1.0" encoding="UTF-8" standalone="no"?>
<!DOCTYPE svg PUBLIC "-//W3C//DTD SVG 1.1//EN" "http://www.w3.org/Graphics/SVG/1.1/DTD/svg11.dtd">
<svg xmlns="http://www.w3.org/2000/svg" version="1.1" viewBox="0.00 0.00 1080.00 1080.00">
<g stroke-width="2.00" fill="none" stroke-linecap="butt">
<path stroke="#898880" d="
  M 632.69 566.34
  Q 624.63 548.82 608.12 539.97
  Q 594.83 532.85 582.81 531.23
  Q 566.88 529.07 550.48 532.11
  C 538.22 534.37 527.61 539.57 517.58 546.09
  Q 506.24 553.45 505.05 555.01
  A 0.28 0.28 0.0 0 1 504.55 554.90
  Q 504.54 554.87 504.24 541.51
  Q 504.15 537.23 503.10 534.02
  Q 491.21 497.59 454.50 487.62
  C 447.98 485.85 441.22 485.81 434.90 485.00
  Q 429.37 484.29 420.04 484.20
  Q 378.28 483.81 346.02 484.29
  C 337.80 484.41 326.32 483.78 318.00 484.22
  Q 314.89 484.38 313.90 485.05
  A 4.00 3.92 0.6 0 0 312.94 485.97
  L 309.74 490.34
  A 4.62 4.60 63.3 0 0 308.84 493.08
  Q 308.84 508.42 308.85 523.04
  C 308.86 525.86 309.18 527.75 309.64 530.81
  A 0.71 0.71 0.0 0 1 309.09 531.60
  Q 305.64 532.34 301.99 533.98
  A 11.79 11.62 26.2 0 1 299.73 534.73
  Q 293.47 536.11 283.94 538.16
  Q 278.36 539.35 275.43 540.59
  C 271.77 542.14 265.87 543.45 261.46 546.81
  A 1.16 1.16 0.0 0 1 259.92 546.70
  Q 254.45 541.05 245.95 536.51
  A 1.97 1.93 -29.7 0 0 245.07 536.28
  L 216.17 535.88
  A 0.61 0.61 0.0 0 1 215.65 534.96
  Q 217.20 532.30 217.32 529.78
  Q 217.70 521.45 217.64 512.46
  Q 217.58 502.34 210.63 495.63
  Q 209.40 494.45 204.83 490.82
  C 198.39 485.70 191.47 488.13 183.90 487.59
  C 178.37 487.20 172.08 488.01 166.69 487.88
  Q 158.51 487.69 148.25 488.25
  Q 145.19 488.42 127.97 488.14
  C 123.02 488.06 118.59 488.81 114.15 488.32
  C 111.10 487.98 104.77 488.81 102.78 490.03
  Q 99.54 492.01 94.24 497.72
  C 92.57 499.54 89.85 504.00 89.64 505.71
  Q 88.28 517.10 89.15 524.91
  Q 90.14 533.79 98.20 537.80
  C 100.76 539.07 104.37 539.18 107.00 541.23
  Q 107.43 541.57 110.18 543.98
  A 1.17 1.11 -18.8 0 0 110.77 544.25
  L 113.53 544.65
  A 2.10 2.09 4.1 0 1 115.33 546.72
  L 115.33 685.07
  A 0.93 0.92 29.2 0 1 113.62 685.55
  C 111.09 681.48 107.30 679.11 102.50 678.00
  C 94.07 676.07 83.08 676.45 75.66 681.31
  C 65.71 687.82 61.06 696.35 58.79 707.90
  Q 57.53 714.28 59.19 722.06
  Q 64.52 747.08 89.17 756.83
  Q 91.51 757.76 99.74 759.57
  C 103.45 760.39 105.97 761.30 109.50 761.30
  Q 118.98 761.28 120.52 761.21
  C 124.40 761.03 128.40 759.91 132.24 759.27
  C 146.26 756.91 160.74 749.14 170.28 740.89
  C 183.56 729.43 192.37 713.02 197.40 696.25
  A 0.95 0.94 -58.3 0 1 198.99 695.87
  Q 205.98 703.22 215.20 708.12
  Q 221.48 711.47 227.34 712.77
  C 236.60 714.83 247.02 714.83 257.00 714.27
  Q 265.64 713.79 273.06 711.06
  A 7.55 7.17 -69.7 0 0 274.40 710.40
  L 277.02 708.78
  A 0.91 0.89 44.5 0 1 277.99 708.78
  C 280.95 710.61 283.37 712.19 287.53 713.20
  Q 295.41 715.09 304.25 714.26
  Q 311.66 713.57 319.12 712.62
  Q 324.84 711.90 329.09 709.87
  C 331.42 708.75 331.52 711.10 333.56 711.17
  C 336.75 711.28 339.59 711.61 342.49 711.59
  Q 368.52 711.44 409.25 711.48
  C 418.98 711.49 431.51 708.49 434.57 697.76
  A 0.66 0.66 0.0 0 1 435.68 697.48
  C 443.87 705.73 454.79 711.71 466.57 713.26
  C 472.65 714.06 477.17 714.79 482.76 713.94
  Q 486.13 713.42 489.75 713.26
  Q 500.95 712.74 510.75 708.09
  A 4.28 4.27 46.3 0 1 514.59 708.18
  C 526.04 714.25 537.98 715.37 551.08 713.93
  C 559.72 712.98 566.98 710.02 573.52 704.71
  A 0.57 0.56 -36.7 0 1 574.34 704.82
  Q 578.43 710.80 585.55 712.69
  Q 593.01 714.66 599.14 714.45
  C 608.20 714.15 618.27 712.75 626.92 709.27
  A 5.39 5.38 42.9 0 1 630.59 709.14
  Q 637.16 711.26 644.64 711.38
  Q 655.97 711.58 725.25 711.50
  C 741.89 711.49 758.88 706.88 774.02 699.81
  C 787.69 693.42 798.64 684.04 807.85 672.80
  A 0.37 0.37 0.0 0 1 808.45 672.84
  C 813.21 680.28 816.85 685.90 823.09 691.41
  C 836.59 703.31 854.22 712.45 872.30 713.92
  C 881.99 714.71 892.16 714.75 901.03 713.55
  Q 915.34 711.61 929.44 704.42
  Q 948.94 694.47 960.56 676.14
  C 963.99 670.74 966.76 663.56 969.38 658.13
  Q 969.79 657.28 970.71 654.01
  A 14.39 14.28 -24.5 0 1 971.56 651.76
  C 975.85 642.71 974.75 631.16 974.95 620.59
  Q 975.01 617.17 974.44 613.56
  Q 974.20 612.05 973.77 606.52
  Q 973.48 602.67 971.34 597.97
  A 10.53 10.45 -64.1 0 1 970.66 595.98
  Q 969.58 591.31 969.24 590.51
  C 965.54 581.92 960.43 572.57 953.57 564.92
  Q 944.00 554.27 937.82 548.97
  Q 925.48 538.41 909.00 534.14
  Q 901.85 532.29 891.84 532.25
  Q 875.83 532.19 872.61 532.45
  Q 860.83 533.37 846.90 539.56
  A 5.89 5.63 -74.3 0 0 845.70 540.27
  Q 843.54 541.97 841.40 542.86
  C 838.12 544.23 835.31 546.28 832.25 548.15
  A 1.30 1.24 23.4 0 1 831.84 548.30
  L 827.82 548.92
  A 2.76 2.74 -18.9 0 1 825.00 547.55
  C 823.10 544.17 821.32 540.48 818.61 536.91
  Q 809.88 525.35 807.81 522.95
  Q 802.80 517.15 793.38 509.63
  Q 790.46 507.30 787.93 505.05
  Q 785.52 502.90 781.89 500.85
  Q 772.31 495.44 764.13 492.41
  Q 761.59 491.46 758.78 490.85
  A 6.39 6.20 -24.0 0 1 757.06 490.22
  C 748.40 485.53 736.78 484.29 727.00 484.31
  C 697.92 484.36 666.68 483.73 640.51 483.69
  Q 632.58 483.67 629.07 484.82
  Q 617.76 488.51 615.71 499.18
  Q 614.22 506.99 615.12 520.57
  Q 615.56 527.26 617.95 531.08
  C 621.34 536.49 626.49 540.00 632.44 541.55
  A 0.97 0.96 7.4 0 1 633.16 542.48
  L 633.16 566.24
  A 0.25 0.25 0.0 0 1 632.69 566.34"
/>
<path stroke="#867c5e" d="
  M 454.57 596.97
  Q 480.33 579.57 479.58 549.41
  Q 479.32 539.17 475.79 532.29
  Q 470.28 521.57 461.30 515.44
  Q 450.01 507.73 436.49 505.73
  Q 420.85 503.40 417.00 503.39
  Q 375.96 503.25 334.75 503.39
  Q 332.24 503.40 331.28 504.75
  A 2.27 2.25 67.0 0 0 330.90 505.70
  C 330.26 509.79 329.14 516.12 332.49 518.81
  A 1.64 1.60 -23.3 0 0 333.41 519.16
  Q 336.88 519.34 339.25 519.47
  Q 341.05 519.57 346.96 522.63
  A 2.36 2.34 84.3 0 1 347.71 523.25
  Q 351.87 528.33 351.87 532.52
  Q 351.98 581.48 351.96 663.03
  Q 351.95 669.28 348.21 671.77
  C 345.17 673.78 341.53 673.77 336.56 674.55
  A 1.69 1.68 -4.6 0 0 335.14 676.21
  L 335.14 685.95
  A 2.81 2.80 16.4 0 0 336.43 688.31
  Q 338.19 689.45 340.58 689.50
  Q 360.73 689.88 406.77 689.79
  Q 409.26 689.79 412.00 688.31
  A 2.31 2.30 75.5 0 0 413.20 686.27
  L 413.09 676.27
  A 2.41 2.40 -85.9 0 0 411.05 673.91
  C 404.78 672.95 398.77 670.40 394.55 665.46
  A 4.61 4.58 -65.7 0 1 393.46 662.54
  L 392.93 613.55
  A 0.92 0.91 -2.7 0 1 393.77 612.63
  Q 398.23 612.23 405.01 612.71
  Q 409.43 613.02 411.52 616.47
  Q 423.23 635.80 432.70 656.61
  C 434.06 659.61 435.44 661.78 437.14 665.14
  C 444.82 680.32 455.63 691.04 473.78 690.84
  C 479.35 690.78 485.00 691.18 490.78 690.16
  Q 493.91 689.60 496.88 689.10
  C 503.73 687.96 503.27 681.01 502.83 675.88
  A 0.90 0.89 -2.1 0 0 501.95 675.07
  Q 494.75 674.93 489.03 670.13
  C 481.24 663.57 476.17 656.16 471.03 646.74
  Q 459.14 624.97 455.39 618.77
  Q 451.52 612.39 446.72 606.20
  Q 445.54 604.67 444.88 602.75
  Q 444.69 602.20 444.99 601.74
  Q 445.26 601.30 445.90 601.28
  C 447.26 601.22 449.39 599.73 451.04 599.00
  Q 452.51 598.36 454.57 596.97"
/>
<path stroke="#867c5e" d="
  M 640.19 519.17
  C 647.14 519.56 653.56 522.89 656.08 529.58
  Q 656.94 531.87 656.91 536.59
  Q 656.77 558.58 656.75 559.78
  C 656.57 576.89 657.00 594.48 656.92 614.75
  Q 656.76 656.99 656.74 657.50
  Q 656.58 661.40 655.34 665.33
  C 653.14 672.31 647.61 673.18 641.30 674.19
  A 2.27 2.26 -5.0 0 0 639.39 676.46
  L 639.50 687.36
  A 1.46 1.45 -69.2 0 0 639.96 688.40
  Q 641.42 689.79 644.25 689.79
  Q 701.65 689.76 706.84 689.82
  Q 721.86 689.98 729.14 688.89
  Q 741.61 687.03 750.87 683.86
  Q 769.61 677.46 783.58 663.85
  Q 790.24 657.36 794.34 650.85
  Q 803.11 636.93 806.61 619.19
  C 807.42 615.05 807.60 610.76 808.14 606.87
  C 809.74 595.20 808.75 583.23 806.63 571.03
  C 805.77 566.08 803.44 559.81 801.99 555.95
  Q 792.34 530.11 768.84 516.32
  C 765.94 514.63 763.58 513.96 761.29 512.71
  Q 759.18 511.56 755.38 510.40
  Q 743.76 506.84 729.51 504.83
  Q 717.86 503.19 703.43 503.29
  Q 684.56 503.41 641.61 503.36
  A 3.13 3.13 0.0 0 0 639.10 504.62
  C 636.87 507.60 636.99 513.10 637.39 516.53
  A 2.97 2.97 0.0 0 0 640.19 519.17"
/>
<path stroke="#867c5e" d="
  M 112.08 509.48
  C 110.95 513.04 111.04 516.91 110.99 520.50
  A 2.82 2.81 -85.6 0 0 113.40 523.32
  L 119.98 524.27
  A 2.42 2.28 65.1 0 1 120.98 524.67
  C 123.15 526.19 126.16 526.29 128.21 527.62
  C 135.40 532.28 134.41 542.43 134.40 550.50
  Q 134.33 597.49 134.36 696.79
  C 134.36 704.35 133.47 715.74 124.23 718.37
  Q 119.58 719.69 119.14 719.66
  Q 112.23 719.15 109.68 713.74
  C 108.47 711.18 108.36 708.05 107.85 704.12
  A 2.18 2.13 -69.4 0 0 107.35 702.98
  Q 101.77 696.34 93.52 696.95
  C 88.94 697.29 85.82 700.41 82.90 703.81
  Q 79.99 707.20 79.67 712.75
  Q 79.09 722.99 86.66 730.03
  Q 93.58 736.46 101.77 737.97
  Q 110.73 739.62 121.12 738.81
  Q 129.73 738.14 136.94 735.01
  C 153.38 727.86 165.60 715.06 171.58 698.05
  Q 173.26 693.28 174.51 685.15
  Q 175.95 675.82 175.95 672.00
  Q 175.90 548.75 175.92 537.25
  Q 175.92 533.20 177.52 530.13
  C 179.91 525.53 187.25 523.35 192.07 522.90
  A 1.10 1.10 0.0 0 0 193.01 522.14
  Q 194.89 516.30 193.17 509.70
  A 1.42 1.42 0.0 0 0 192.38 508.76
  Q 189.63 507.50 187.25 507.61
  Q 178.83 507.99 167.82 507.85
  C 152.54 507.67 136.51 507.85 121.50 507.90
  Q 116.41 507.92 112.76 508.84
  A 0.96 0.95 1.6 0 0 112.08 509.48"
/>
<path stroke="#867c5e" d="
  M 510.66 598.13
  Q 512.09 601.98 514.49 603.56
  C 519.79 607.04 528.21 606.50 533.92 604.39
  Q 537.40 603.11 540.91 598.91
  C 543.87 595.38 543.06 587.78 541.94 584.05
  A 2.46 2.43 -46.1 0 1 541.92 582.68
  C 543.67 576.26 548.20 575.35 554.55 574.43
  C 557.59 573.99 561.14 575.20 564.48 575.70
  A 5.13 5.10 -25.8 0 1 566.28 576.32
  Q 574.38 580.97 575.58 589.89
  Q 576.42 596.08 576.28 605.02
  Q 576.27 605.64 575.35 610.95
  A 0.86 0.83 -3.6 0 1 574.75 611.61
  Q 573.12 612.08 565.83 614.01
  C 560.59 615.40 554.44 615.88 550.36 617.34
  Q 544.16 619.54 539.04 620.49
  A 5.97 5.48 26.4 0 0 537.83 620.84
  Q 528.82 624.54 526.42 625.92
  Q 509.92 635.42 506.44 652.94
  Q 505.10 659.65 506.25 670.32
  A 3.35 3.23 29.9 0 0 506.57 671.43
  Q 509.60 677.70 509.77 677.96
  Q 515.13 686.14 521.41 689.06
  C 531.12 693.58 542.48 692.94 553.45 690.67
  Q 559.89 689.34 565.88 685.73
  C 570.37 683.01 574.44 677.38 578.78 674.76
  A 1.12 1.12 0.0 0 1 580.48 675.69
  Q 580.53 677.21 581.69 681.93
  Q 583.36 688.74 589.99 690.82
  C 595.57 692.58 601.46 691.09 608.32 690.10
  Q 613.20 689.39 620.35 686.28
  Q 627.17 683.31 627.60 676.46
  A 0.76 0.70 42.6 0 0 627.58 676.22
  L 626.60 672.22
  A 1.00 0.99 82.9 0 0 625.64 671.46
  L 619.24 671.46
  A 1.64 1.51 -28.9 0 1 618.50 671.28
  Q 615.60 669.68 615.03 667.74
  C 613.51 662.53 612.98 658.66 612.98 653.01
  Q 613.01 634.89 612.99 601.25
  Q 612.98 589.39 612.27 585.68
  Q 610.36 575.72 604.66 568.54
  C 599.12 561.55 591.18 556.33 581.63 554.84
  Q 572.68 553.45 569.50 553.55
  Q 557.05 553.95 552.29 554.80
  Q 531.29 558.56 518.00 573.79
  C 514.61 577.67 509.86 586.35 509.92 592.60
  Q 509.96 596.26 510.66 598.13"
/>
<path stroke="#867c5e" d="
  M 851.89 562.16
  C 839.33 569.57 829.84 581.28 824.44 594.70
  C 822.89 598.57 822.20 602.21 820.99 605.70
  Q 819.54 609.88 819.12 614.15
  Q 817.72 628.11 818.50 634.59
  Q 819.91 646.42 823.33 655.46
  Q 830.10 673.33 846.95 684.06
  Q 851.63 687.04 859.18 689.31
  Q 884.21 696.81 907.71 688.92
  Q 918.24 685.39 924.90 679.91
  Q 936.36 670.49 943.47 655.12
  C 945.11 651.57 945.93 647.91 947.22 643.90
  Q 948.47 639.99 948.99 635.25
  Q 950.26 623.46 949.29 609.60
  C 948.95 604.74 947.76 601.18 946.09 596.63
  Q 945.45 594.86 945.09 592.66
  A 3.12 3.05 28.4 0 0 944.81 591.76
  Q 939.73 581.55 936.42 577.32
  Q 925.97 563.94 910.98 557.93
  Q 901.92 554.30 890.83 553.76
  Q 881.06 553.28 870.20 555.13
  C 863.63 556.26 857.29 558.97 851.89 562.16"
/>
<path stroke="#867c5e" d="
  M 284.25 675.29
  A 0.51 0.50 -17.5 0 1 285.04 675.70
  C 285.10 681.26 284.49 687.00 288.51 689.88
  C 289.78 690.80 294.75 692.72 296.70 692.14
  Q 300.62 690.96 315.50 689.26
  Q 321.84 688.53 329.58 683.79
  C 333.48 681.39 332.43 675.98 331.96 672.29
  A 0.70 0.70 0.0 0 0 331.24 671.68
  Q 326.70 671.83 322.93 670.07
  C 318.88 668.18 319.07 663.22 318.65 658.63
  Q 318.32 655.04 318.48 631.55
  C 318.63 609.35 318.33 587.00 318.32 564.50
  Q 318.32 560.07 318.17 558.77
  A 4.09 4.07 -84.2 0 0 315.37 555.33
  Q 313.07 554.58 309.74 554.66
  Q 298.85 554.91 287.84 558.06
  Q 284.78 558.93 273.39 559.12
  A 4.99 4.82 36.6 0 0 272.31 559.26
  Q 270.55 559.70 268.88 560.36
  C 266.21 561.42 266.19 563.51 265.95 566.33
  Q 265.59 570.48 266.81 574.60
  A 2.44 2.43 81.6 0 0 269.16 576.35
  C 273.28 576.33 275.46 575.99 278.51 578.12
  A 3.36 3.34 -74.1 0 1 279.94 580.71
  Q 280.43 590.69 280.24 597.71
  C 279.76 615.73 280.03 633.55 280.05 652.50
  C 280.06 656.45 279.59 661.06 276.80 663.56
  Q 272.59 667.35 266.24 668.63
  C 263.76 669.13 260.89 668.69 258.23 668.87
  C 253.36 669.21 249.41 667.00 246.44 663.35
  Q 243.61 659.88 243.23 658.80
  Q 241.95 655.10 240.94 650.98
  Q 240.21 648.02 240.20 642.96
  Q 240.17 597.74 240.09 562.54
  Q 240.08 559.92 238.39 556.58
  A 1.31 1.30 81.1 0 0 237.45 555.89
  L 232.04 554.99
  A 2.51 2.49 42.4 0 0 231.05 555.03
  Q 229.79 555.40 223.35 555.71
  Q 220.36 555.86 213.46 557.33
  C 206.60 558.79 198.44 558.82 192.06 559.83
  Q 188.09 560.45 188.04 564.21
  Q 187.95 570.82 188.15 573.54
  Q 188.33 576.07 190.37 576.18
  C 196.61 576.52 203.67 576.52 203.62 584.93
  Q 203.30 635.71 203.08 652.90
  Q 202.86 668.73 213.00 680.80
  Q 216.40 684.85 221.60 687.82
  C 224.31 689.37 226.83 689.89 229.43 690.83
  C 237.27 693.69 246.15 693.89 254.29 691.95
  Q 263.76 689.70 265.40 689.17
  C 270.84 687.39 275.23 683.15 280.74 677.77
  A 4.52 4.09 2.9 0 1 281.40 677.23
  L 284.25 675.29"
/>
<path stroke="#867c5e" d="
  M 393.72 594.83
  C 398.85 595.07 405.40 595.41 410.99 594.01
  C 421.82 591.30 429.07 588.24 433.90 577.42
  Q 436.70 571.15 436.85 569.00
  Q 437.68 556.99 437.18 548.27
  Q 436.85 542.65 435.06 538.70
  C 432.70 533.54 428.84 528.70 423.60 526.61
  C 417.49 524.18 413.51 522.91 406.24 523.05
  Q 401.68 523.14 394.44 523.10
  A 1.32 1.32 0.0 0 0 393.11 524.42
  L 393.11 594.19
  A 0.64 0.64 0.0 0 0 393.72 594.83"
/>
<path stroke="#867c5e" d="
  M 701.46 522.55
  A 3.15 3.14 -87.7 0 0 698.53 525.25
  Q 698.10 528.38 698.09 531.75
  Q 698.07 604.08 698.08 657.34
  C 698.08 661.27 698.64 664.87 700.03 667.99
  C 700.95 670.04 701.70 671.30 704.17 671.39
  C 711.41 671.66 715.83 670.70 723.25 669.55
  C 738.96 667.13 749.14 657.88 756.21 643.61
  C 757.62 640.78 758.08 637.83 759.25 634.49
  Q 760.27 631.59 761.14 627.56
  Q 764.41 612.29 763.83 592.50
  Q 763.19 571.05 756.52 553.78
  Q 750.70 538.74 736.59 529.04
  Q 735.12 528.03 731.86 526.69
  Q 726.77 524.60 726.54 524.51
  A 22.62 22.55 58.3 0 0 720.46 523.06
  Q 710.02 522.05 701.46 522.55"
/>
<path stroke="#867c5e" d="
  M 575.26 627.97
  C 571.50 628.28 564.79 628.59 559.63 630.36
  Q 554.04 632.28 552.59 633.07
  Q 543.68 637.94 542.10 648.57
  Q 541.06 655.57 542.35 660.69
  C 545.14 671.70 559.41 671.07 567.57 668.12
  Q 568.54 667.77 573.81 663.95
  A 2.13 1.97 87.9 0 0 574.43 663.23
  C 575.87 660.50 576.06 656.46 576.08 653.50
  Q 576.17 631.97 576.11 628.73
  A 0.78 0.78 0.0 0 0 575.26 627.97"
/>
<path stroke="#867c5e" d="
  M 883.76 572.20
  C 873.21 572.38 866.65 579.66 863.03 589.34
  Q 860.25 596.75 859.60 604.37
  Q 857.90 624.23 859.98 642.72
  Q 860.91 651.02 865.00 659.71
  C 869.81 669.93 877.69 674.86 889.18 673.38
  C 903.52 671.53 907.76 651.74 908.27 640.30
  Q 908.85 627.51 908.53 613.51
  C 908.28 602.82 906.80 594.25 902.98 585.28
  Q 900.49 579.42 895.33 575.80
  Q 890.02 572.08 883.76 572.20"
/>
</g>
<path fill="#ffffff" d="
  M 1080.00 0.00
  L 1080.00 1080.00
  L 0.00 1080.00
  L 0.00 0.00
  L 1080.00 0.00
  Z
  M 632.69 566.34
  Q 624.63 548.82 608.12 539.97
  Q 594.83 532.85 582.81 531.23
  Q 566.88 529.07 550.48 532.11
  C 538.22 534.37 527.61 539.57 517.58 546.09
  Q 506.24 553.45 505.05 555.01
  A 0.28 0.28 0.0 0 1 504.55 554.90
  Q 504.54 554.87 504.24 541.51
  Q 504.15 537.23 503.10 534.02
  Q 491.21 497.59 454.50 487.62
  C 447.98 485.85 441.22 485.81 434.90 485.00
  Q 429.37 484.29 420.04 484.20
  Q 378.28 483.81 346.02 484.29
  C 337.80 484.41 326.32 483.78 318.00 484.22
  Q 314.89 484.38 313.90 485.05
  A 4.00 3.92 0.6 0 0 312.94 485.97
  L 309.74 490.34
  A 4.62 4.60 63.3 0 0 308.84 493.08
  Q 308.84 508.42 308.85 523.04
  C 308.86 525.86 309.18 527.75 309.64 530.81
  A 0.71 0.71 0.0 0 1 309.09 531.60
  Q 305.64 532.34 301.99 533.98
  A 11.79 11.62 26.2 0 1 299.73 534.73
  Q 293.47 536.11 283.94 538.16
  Q 278.36 539.35 275.43 540.59
  C 271.77 542.14 265.87 543.45 261.46 546.81
  A 1.16 1.16 0.0 0 1 259.92 546.70
  Q 254.45 541.05 245.95 536.51
  A 1.97 1.93 -29.7 0 0 245.07 536.28
  L 216.17 535.88
  A 0.61 0.61 0.0 0 1 215.65 534.96
  Q 217.20 532.30 217.32 529.78
  Q 217.70 521.45 217.64 512.46
  Q 217.58 502.34 210.63 495.63
  Q 209.40 494.45 204.83 490.82
  C 198.39 485.70 191.47 488.13 183.90 487.59
  C 178.37 487.20 172.08 488.01 166.69 487.88
  Q 158.51 487.69 148.25 488.25
  Q 145.19 488.42 127.97 488.14
  C 123.02 488.06 118.59 488.81 114.15 488.32
  C 111.10 487.98 104.77 488.81 102.78 490.03
  Q 99.54 492.01 94.24 497.72
  C 92.57 499.54 89.85 504.00 89.64 505.71
  Q 88.28 517.10 89.15 524.91
  Q 90.14 533.79 98.20 537.80
  C 100.76 539.07 104.37 539.18 107.00 541.23
  Q 107.43 541.57 110.18 543.98
  A 1.17 1.11 -18.8 0 0 110.77 544.25
  L 113.53 544.65
  A 2.10 2.09 4.1 0 1 115.33 546.72
  L 115.33 685.07
  A 0.93 0.92 29.2 0 1 113.62 685.55
  C 111.09 681.48 107.30 679.11 102.50 678.00
  C 94.07 676.07 83.08 676.45 75.66 681.31
  C 65.71 687.82 61.06 696.35 58.79 707.90
  Q 57.53 714.28 59.19 722.06
  Q 64.52 747.08 89.17 756.83
  Q 91.51 757.76 99.74 759.57
  C 103.45 760.39 105.97 761.30 109.50 761.30
  Q 118.98 761.28 120.52 761.21
  C 124.40 761.03 128.40 759.91 132.24 759.27
  C 146.26 756.91 160.74 749.14 170.28 740.89
  C 183.56 729.43 192.37 713.02 197.40 696.25
  A 0.95 0.94 -58.3 0 1 198.99 695.87
  Q 205.98 703.22 215.20 708.12
  Q 221.48 711.47 227.34 712.77
  C 236.60 714.83 247.02 714.83 257.00 714.27
  Q 265.64 713.79 273.06 711.06
  A 7.55 7.17 -69.7 0 0 274.40 710.40
  L 277.02 708.78
  A 0.91 0.89 44.5 0 1 277.99 708.78
  C 280.95 710.61 283.37 712.19 287.53 713.20
  Q 295.41 715.09 304.25 714.26
  Q 311.66 713.57 319.12 712.62
  Q 324.84 711.90 329.09 709.87
  C 331.42 708.75 331.52 711.10 333.56 711.17
  C 336.75 711.28 339.59 711.61 342.49 711.59
  Q 368.52 711.44 409.25 711.48
  C 418.98 711.49 431.51 708.49 434.57 697.76
  A 0.66 0.66 0.0 0 1 435.68 697.48
  C 443.87 705.73 454.79 711.71 466.57 713.26
  C 472.65 714.06 477.17 714.79 482.76 713.94
  Q 486.13 713.42 489.75 713.26
  Q 500.95 712.74 510.75 708.09
  A 4.28 4.27 46.3 0 1 514.59 708.18
  C 526.04 714.25 537.98 715.37 551.08 713.93
  C 559.72 712.98 566.98 710.02 573.52 704.71
  A 0.57 0.56 -36.7 0 1 574.34 704.82
  Q 578.43 710.80 585.55 712.69
  Q 593.01 714.66 599.14 714.45
  C 608.20 714.15 618.27 712.75 626.92 709.27
  A 5.39 5.38 42.9 0 1 630.59 709.14
  Q 637.16 711.26 644.64 711.38
  Q 655.97 711.58 725.25 711.50
  C 741.89 711.49 758.88 706.88 774.02 699.81
  C 787.69 693.42 798.64 684.04 807.85 672.80
  A 0.37 0.37 0.0 0 1 808.45 672.84
  C 813.21 680.28 816.85 685.90 823.09 691.41
  C 836.59 703.31 854.22 712.45 872.30 713.92
  C 881.99 714.71 892.16 714.75 901.03 713.55
  Q 915.34 711.61 929.44 704.42
  Q 948.94 694.47 960.56 676.14
  C 963.99 670.74 966.76 663.56 969.38 658.13
  Q 969.79 657.28 970.71 654.01
  A 14.39 14.28 -24.5 0 1 971.56 651.76
  C 975.85 642.71 974.75 631.16 974.95 620.59
  Q 975.01 617.17 974.44 613.56
  Q 974.20 612.05 973.77 606.52
  Q 973.48 602.67 971.34 597.97
  A 10.53 10.45 -64.1 0 1 970.66 595.98
  Q 969.58 591.31 969.24 590.51
  C 965.54 581.92 960.43 572.57 953.57 564.92
  Q 944.00 554.27 937.82 548.97
  Q 925.48 538.41 909.00 534.14
  Q 901.85 532.29 891.84 532.25
  Q 875.83 532.19 872.61 532.45
  Q 860.83 533.37 846.90 539.56
  A 5.89 5.63 -74.3 0 0 845.70 540.27
  Q 843.54 541.97 841.40 542.86
  C 838.12 544.23 835.31 546.28 832.25 548.15
  A 1.30 1.24 23.4 0 1 831.84 548.30
  L 827.82 548.92
  A 2.76 2.74 -18.9 0 1 825.00 547.55
  C 823.10 544.17 821.32 540.48 818.61 536.91
  Q 809.88 525.35 807.81 522.95
  Q 802.80 517.15 793.38 509.63
  Q 790.46 507.30 787.93 505.05
  Q 785.52 502.90 781.89 500.85
  Q 772.31 495.44 764.13 492.41
  Q 761.59 491.46 758.78 490.85
  A 6.39 6.20 -24.0 0 1 757.06 490.22
  C 748.40 485.53 736.78 484.29 727.00 484.31
  C 697.92 484.36 666.68 483.73 640.51 483.69
  Q 632.58 483.67 629.07 484.82
  Q 617.76 488.51 615.71 499.18
  Q 614.22 506.99 615.12 520.57
  Q 615.56 527.26 617.95 531.08
  C 621.34 536.49 626.49 540.00 632.44 541.55
  A 0.97 0.96 7.4 0 1 633.16 542.48
  L 633.16 566.24
  A 0.25 0.25 0.0 0 1 632.69 566.34
  Z"
/>
<g fill="#121100">
<path d="
  M 632.69 566.34
  A 0.25 0.25 0.0 0 0 633.16 566.24
  L 633.16 542.48
  A 0.97 0.96 7.4 0 0 632.44 541.55
  C 626.49 540.00 621.34 536.49 617.95 531.08
  Q 615.56 527.26 615.12 520.57
  Q 614.22 506.99 615.71 499.18
  Q 617.76 488.51 629.07 484.82
  Q 632.58 483.67 640.51 483.69
  C 666.68 483.73 697.92 484.36 727.00 484.31
  C 736.78 484.29 748.40 485.53 757.06 490.22
  A 6.39 6.20 -24.0 0 0 758.78 490.85
  Q 761.59 491.46 764.13 492.41
  Q 772.31 495.44 781.89 500.85
  Q 785.52 502.90 787.93 505.05
  Q 790.46 507.30 793.38 509.63
  Q 802.80 517.15 807.81 522.95
  Q 809.88 525.35 818.61 536.91
  C 821.32 540.48 823.10 544.17 825.00 547.55
  A 2.76 2.74 -18.9 0 0 827.82 548.92
  L 831.84 548.30
  A 1.30 1.24 23.4 0 0 832.25 548.15
  C 835.31 546.28 838.12 544.23 841.40 542.86
  Q 843.54 541.97 845.70 540.27
  A 5.89 5.63 -74.3 0 1 846.90 539.56
  Q 860.83 533.37 872.61 532.45
  Q 875.83 532.19 891.84 532.25
  Q 901.85 532.29 909.00 534.14
  Q 925.48 538.41 937.82 548.97
  Q 944.00 554.27 953.57 564.92
  C 960.43 572.57 965.54 581.92 969.24 590.51
  Q 969.58 591.31 970.66 595.98
  A 10.53 10.45 -64.1 0 0 971.34 597.97
  Q 973.48 602.67 973.77 606.52
  Q 974.20 612.05 974.44 613.56
  Q 975.01 617.17 974.95 620.59
  C 974.75 631.16 975.85 642.71 971.56 651.76
  A 14.39 14.28 -24.5 0 0 970.71 654.01
  Q 969.79 657.28 969.38 658.13
  C 966.76 663.56 963.99 670.74 960.56 676.14
  Q 948.94 694.47 929.44 704.42
  Q 915.34 711.61 901.03 713.55
  C 892.16 714.75 881.99 714.71 872.30 713.92
  C 854.22 712.45 836.59 703.31 823.09 691.41
  C 816.85 685.90 813.21 680.28 808.45 672.84
  A 0.37 0.37 0.0 0 0 807.85 672.80
  C 798.64 684.04 787.69 693.42 774.02 699.81
  C 758.88 706.88 741.89 711.49 725.25 711.50
  Q 655.97 711.58 644.64 711.38
  Q 637.16 711.26 630.59 709.14
  A 5.39 5.38 42.9 0 0 626.92 709.27
  C 618.27 712.75 608.20 714.15 599.14 714.45
  Q 593.01 714.66 585.55 712.69
  Q 578.43 710.80 574.34 704.82
  A 0.57 0.56 -36.7 0 0 573.52 704.71
  C 566.98 710.02 559.72 712.98 551.08 713.93
  C 537.98 715.37 526.04 714.25 514.59 708.18
  A 4.28 4.27 46.3 0 0 510.75 708.09
  Q 500.95 712.74 489.75 713.26
  Q 486.13 713.42 482.76 713.94
  C 477.17 714.79 472.65 714.06 466.57 713.26
  C 454.79 711.71 443.87 705.73 435.68 697.48
  A 0.66 0.66 0.0 0 0 434.57 697.76
  C 431.51 708.49 418.98 711.49 409.25 711.48
  Q 368.52 711.44 342.49 711.59
  C 339.59 711.61 336.75 711.28 333.56 711.17
  C 331.52 711.10 331.42 708.75 329.09 709.87
  Q 324.84 711.90 319.12 712.62
  Q 311.66 713.57 304.25 714.26
  Q 295.41 715.09 287.53 713.20
  C 283.37 712.19 280.95 710.61 277.99 708.78
  A 0.91 0.89 44.5 0 0 277.02 708.78
  L 274.40 710.40
  A 7.55 7.17 -69.7 0 1 273.06 711.06
  Q 265.64 713.79 257.00 714.27
  C 247.02 714.83 236.60 714.83 227.34 712.77
  Q 221.48 711.47 215.20 708.12
  Q 205.98 703.22 198.99 695.87
  A 0.95 0.94 -58.3 0 0 197.40 696.25
  C 192.37 713.02 183.56 729.43 170.28 740.89
  C 160.74 749.14 146.26 756.91 132.24 759.27
  C 128.40 759.91 124.40 761.03 120.52 761.21
  Q 118.98 761.28 109.50 761.30
  C 105.97 761.30 103.45 760.39 99.74 759.57
  Q 91.51 757.76 89.17 756.83
  Q 64.52 747.08 59.19 722.06
  Q 57.53 714.28 58.79 707.90
  C 61.06 696.35 65.71 687.82 75.66 681.31
  C 83.08 676.45 94.07 676.07 102.50 678.00
  C 107.30 679.11 111.09 681.48 113.62 685.55
  A 0.93 0.92 29.2 0 0 115.33 685.07
  L 115.33 546.72
  A 2.10 2.09 4.1 0 0 113.53 544.65
  L 110.77 544.25
  A 1.17 1.11 -18.8 0 1 110.18 543.98
  Q 107.43 541.57 107.00 541.23
  C 104.37 539.18 100.76 539.07 98.20 537.80
  Q 90.14 533.79 89.15 524.91
  Q 88.28 517.10 89.64 505.71
  C 89.85 504.00 92.57 499.54 94.24 497.72
  Q 99.54 492.01 102.78 490.03
  C 104.77 488.81 111.10 487.98 114.15 488.32
  C 118.59 488.81 123.02 488.06 127.97 488.14
  Q 145.19 488.42 148.25 488.25
  Q 158.51 487.69 166.69 487.88
  C 172.08 488.01 178.37 487.20 183.90 487.59
  C 191.47 488.13 198.39 485.70 204.83 490.82
  Q 209.40 494.45 210.63 495.63
  Q 217.58 502.34 217.64 512.46
  Q 217.70 521.45 217.32 529.78
  Q 217.20 532.30 215.65 534.96
  A 0.61 0.61 0.0 0 0 216.17 535.88
  L 245.07 536.28
  A 1.97 1.93 -29.7 0 1 245.95 536.51
  Q 254.45 541.05 259.92 546.70
  A 1.16 1.16 0.0 0 0 261.46 546.81
  C 265.87 543.45 271.77 542.14 275.43 540.59
  Q 278.36 539.35 283.94 538.16
  Q 293.47 536.11 299.73 534.73
  A 11.79 11.62 26.2 0 0 301.99 533.98
  Q 305.64 532.34 309.09 531.60
  A 0.71 0.71 0.0 0 0 309.64 530.81
  C 309.18 527.75 308.86 525.86 308.85 523.04
  Q 308.84 508.42 308.84 493.08
  A 4.62 4.60 63.3 0 1 309.74 490.34
  L 312.94 485.97
  A 4.00 3.92 0.6 0 1 313.90 485.05
  Q 314.89 484.38 318.00 484.22
  C 326.32 483.78 337.80 484.41 346.02 484.29
  Q 378.28 483.81 420.04 484.20
  Q 429.37 484.29 434.90 485.00
  C 441.22 485.81 447.98 485.85 454.50 487.62
  Q 491.21 497.59 503.10 534.02
  Q 504.15 537.23 504.24 541.51
  Q 504.54 554.87 504.55 554.90
  A 0.28 0.28 0.0 0 0 505.05 555.01
  Q 506.24 553.45 517.58 546.09
  C 527.61 539.57 538.22 534.37 550.48 532.11
  Q 566.88 529.07 582.81 531.23
  Q 594.83 532.85 608.12 539.97
  Q 624.63 548.82 632.69 566.34
  Z
  M 454.57 596.97
  Q 480.33 579.57 479.58 549.41
  Q 479.32 539.17 475.79 532.29
  Q 470.28 521.57 461.30 515.44
  Q 450.01 507.73 436.49 505.73
  Q 420.85 503.40 417.00 503.39
  Q 375.96 503.25 334.75 503.39
  Q 332.24 503.40 331.28 504.75
  A 2.27 2.25 67.0 0 0 330.90 505.70
  C 330.26 509.79 329.14 516.12 332.49 518.81
  A 1.64 1.60 -23.3 0 0 333.41 519.16
  Q 336.88 519.34 339.25 519.47
  Q 341.05 519.57 346.96 522.63
  A 2.36 2.34 84.3 0 1 347.71 523.25
  Q 351.87 528.33 351.87 532.52
  Q 351.98 581.48 351.96 663.03
  Q 351.95 669.28 348.21 671.77
  C 345.17 673.78 341.53 673.77 336.56 674.55
  A 1.69 1.68 -4.6 0 0 335.14 676.21
  L 335.14 685.95
  A 2.81 2.80 16.4 0 0 336.43 688.31
  Q 338.19 689.45 340.58 689.50
  Q 360.73 689.88 406.77 689.79
  Q 409.26 689.79 412.00 688.31
  A 2.31 2.30 75.5 0 0 413.20 686.27
  L 413.09 676.27
  A 2.41 2.40 -85.9 0 0 411.05 673.91
  C 404.78 672.95 398.77 670.40 394.55 665.46
  A 4.61 4.58 -65.7 0 1 393.46 662.54
  L 392.93 613.55
  A 0.92 0.91 -2.7 0 1 393.77 612.63
  Q 398.23 612.23 405.01 612.71
  Q 409.43 613.02 411.52 616.47
  Q 423.23 635.80 432.70 656.61
  C 434.06 659.61 435.44 661.78 437.14 665.14
  C 444.82 680.32 455.63 691.04 473.78 690.84
  C 479.35 690.78 485.00 691.18 490.78 690.16
  Q 493.91 689.60 496.88 689.10
  C 503.73 687.96 503.27 681.01 502.83 675.88
  A 0.90 0.89 -2.1 0 0 501.95 675.07
  Q 494.75 674.93 489.03 670.13
  C 481.24 663.57 476.17 656.16 471.03 646.74
  Q 459.14 624.97 455.39 618.77
  Q 451.52 612.39 446.72 606.20
  Q 445.54 604.67 444.88 602.75
  Q 444.69 602.20 444.99 601.74
  Q 445.26 601.30 445.90 601.28
  C 447.26 601.22 449.39 599.73 451.04 599.00
  Q 452.51 598.36 454.57 596.97
  Z
  M 640.19 519.17
  C 647.14 519.56 653.56 522.89 656.08 529.58
  Q 656.94 531.87 656.91 536.59
  Q 656.77 558.58 656.75 559.78
  C 656.57 576.89 657.00 594.48 656.92 614.75
  Q 656.76 656.99 656.74 657.50
  Q 656.58 661.40 655.34 665.33
  C 653.14 672.31 647.61 673.18 641.30 674.19
  A 2.27 2.26 -5.0 0 0 639.39 676.46
  L 639.50 687.36
  A 1.46 1.45 -69.2 0 0 639.96 688.40
  Q 641.42 689.79 644.25 689.79
  Q 701.65 689.76 706.84 689.82
  Q 721.86 689.98 729.14 688.89
  Q 741.61 687.03 750.87 683.86
  Q 769.61 677.46 783.58 663.85
  Q 790.24 657.36 794.34 650.85
  Q 803.11 636.93 806.61 619.19
  C 807.42 615.05 807.60 610.76 808.14 606.87
  C 809.74 595.20 808.75 583.23 806.63 571.03
  C 805.77 566.08 803.44 559.81 801.99 555.95
  Q 792.34 530.11 768.84 516.32
  C 765.94 514.63 763.58 513.96 761.29 512.71
  Q 759.18 511.56 755.38 510.40
  Q 743.76 506.84 729.51 504.83
  Q 717.86 503.19 703.43 503.29
  Q 684.56 503.41 641.61 503.36
  A 3.13 3.13 0.0 0 0 639.10 504.62
  C 636.87 507.60 636.99 513.10 637.39 516.53
  A 2.97 2.97 0.0 0 0 640.19 519.17
  Z
  M 112.08 509.48
  C 110.95 513.04 111.04 516.91 110.99 520.50
  A 2.82 2.81 -85.6 0 0 113.40 523.32
  L 119.98 524.27
  A 2.42 2.28 65.1 0 1 120.98 524.67
  C 123.15 526.19 126.16 526.29 128.21 527.62
  C 135.40 532.28 134.41 542.43 134.40 550.50
  Q 134.33 597.49 134.36 696.79
  C 134.36 704.35 133.47 715.74 124.23 718.37
  Q 119.58 719.69 119.14 719.66
  Q 112.23 719.15 109.68 713.74
  C 108.47 711.18 108.36 708.05 107.85 704.12
  A 2.18 2.13 -69.4 0 0 107.35 702.98
  Q 101.77 696.34 93.52 696.95
  C 88.94 697.29 85.82 700.41 82.90 703.81
  Q 79.99 707.20 79.67 712.75
  Q 79.09 722.99 86.66 730.03
  Q 93.58 736.46 101.77 737.97
  Q 110.73 739.62 121.12 738.81
  Q 129.73 738.14 136.94 735.01
  C 153.38 727.86 165.60 715.06 171.58 698.05
  Q 173.26 693.28 174.51 685.15
  Q 175.95 675.82 175.95 672.00
  Q 175.90 548.75 175.92 537.25
  Q 175.92 533.20 177.52 530.13
  C 179.91 525.53 187.25 523.35 192.07 522.90
  A 1.10 1.10 0.0 0 0 193.01 522.14
  Q 194.89 516.30 193.17 509.70
  A 1.42 1.42 0.0 0 0 192.38 508.76
  Q 189.63 507.50 187.25 507.61
  Q 178.83 507.99 167.82 507.85
  C 152.54 507.67 136.51 507.85 121.50 507.90
  Q 116.41 507.92 112.76 508.84
  A 0.96 0.95 1.6 0 0 112.08 509.48
  Z
  M 510.66 598.13
  Q 512.09 601.98 514.49 603.56
  C 519.79 607.04 528.21 606.50 533.92 604.39
  Q 537.40 603.11 540.91 598.91
  C 543.87 595.38 543.06 587.78 541.94 584.05
  A 2.46 2.43 -46.1 0 1 541.92 582.68
  C 543.67 576.26 548.20 575.35 554.55 574.43
  C 557.59 573.99 561.14 575.20 564.48 575.70
  A 5.13 5.10 -25.8 0 1 566.28 576.32
  Q 574.38 580.97 575.58 589.89
  Q 576.42 596.08 576.28 605.02
  Q 576.27 605.64 575.35 610.95
  A 0.86 0.83 -3.6 0 1 574.75 611.61
  Q 573.12 612.08 565.83 614.01
  C 560.59 615.40 554.44 615.88 550.36 617.34
  Q 544.16 619.54 539.04 620.49
  A 5.97 5.48 26.4 0 0 537.83 620.84
  Q 528.82 624.54 526.42 625.92
  Q 509.92 635.42 506.44 652.94
  Q 505.10 659.65 506.25 670.32
  A 3.35 3.23 29.9 0 0 506.57 671.43
  Q 509.60 677.70 509.77 677.96
  Q 515.13 686.14 521.41 689.06
  C 531.12 693.58 542.48 692.94 553.45 690.67
  Q 559.89 689.34 565.88 685.73
  C 570.37 683.01 574.44 677.38 578.78 674.76
  A 1.12 1.12 0.0 0 1 580.48 675.69
  Q 580.53 677.21 581.69 681.93
  Q 583.36 688.74 589.99 690.82
  C 595.57 692.58 601.46 691.09 608.32 690.10
  Q 613.20 689.39 620.35 686.28
  Q 627.17 683.31 627.60 676.46
  A 0.76 0.70 42.6 0 0 627.58 676.22
  L 626.60 672.22
  A 1.00 0.99 82.9 0 0 625.64 671.46
  L 619.24 671.46
  A 1.64 1.51 -28.9 0 1 618.50 671.28
  Q 615.60 669.68 615.03 667.74
  C 613.51 662.53 612.98 658.66 612.98 653.01
  Q 613.01 634.89 612.99 601.25
  Q 612.98 589.39 612.27 585.68
  Q 610.36 575.72 604.66 568.54
  C 599.12 561.55 591.18 556.33 581.63 554.84
  Q 572.68 553.45 569.50 553.55
  Q 557.05 553.95 552.29 554.80
  Q 531.29 558.56 518.00 573.79
  C 514.61 577.67 509.86 586.35 509.92 592.60
  Q 509.96 596.26 510.66 598.13
  Z
  M 851.89 562.16
  C 839.33 569.57 829.84 581.28 824.44 594.70
  C 822.89 598.57 822.20 602.21 820.99 605.70
  Q 819.54 609.88 819.12 614.15
  Q 817.72 628.11 818.50 634.59
  Q 819.91 646.42 823.33 655.46
  Q 830.10 673.33 846.95 684.06
  Q 851.63 687.04 859.18 689.31
  Q 884.21 696.81 907.71 688.92
  Q 918.24 685.39 924.90 679.91
  Q 936.36 670.49 943.47 655.12
  C 945.11 651.57 945.93 647.91 947.22 643.90
  Q 948.47 639.99 948.99 635.25
  Q 950.26 623.46 949.29 609.60
  C 948.95 604.74 947.76 601.18 946.09 596.63
  Q 945.45 594.86 945.09 592.66
  A 3.12 3.05 28.4 0 0 944.81 591.76
  Q 939.73 581.55 936.42 577.32
  Q 925.97 563.94 910.98 557.93
  Q 901.92 554.30 890.83 553.76
  Q 881.06 553.28 870.20 555.13
  C 863.63 556.26 857.29 558.97 851.89 562.16
  Z
  M 284.25 675.29
  A 0.51 0.50 -17.5 0 1 285.04 675.70
  C 285.10 681.26 284.49 687.00 288.51 689.88
  C 289.78 690.80 294.75 692.72 296.70 692.14
  Q 300.62 690.96 315.50 689.26
  Q 321.84 688.53 329.58 683.79
  C 333.48 681.39 332.43 675.98 331.96 672.29
  A 0.70 0.70 0.0 0 0 331.24 671.68
  Q 326.70 671.83 322.93 670.07
  C 318.88 668.18 319.07 663.22 318.65 658.63
  Q 318.32 655.04 318.48 631.55
  C 318.63 609.35 318.33 587.00 318.32 564.50
  Q 318.32 560.07 318.17 558.77
  A 4.09 4.07 -84.2 0 0 315.37 555.33
  Q 313.07 554.58 309.74 554.66
  Q 298.85 554.91 287.84 558.06
  Q 284.78 558.93 273.39 559.12
  A 4.99 4.82 36.6 0 0 272.31 559.26
  Q 270.55 559.70 268.88 560.36
  C 266.21 561.42 266.19 563.51 265.95 566.33
  Q 265.59 570.48 266.81 574.60
  A 2.44 2.43 81.6 0 0 269.16 576.35
  C 273.28 576.33 275.46 575.99 278.51 578.12
  A 3.36 3.34 -74.1 0 1 279.94 580.71
  Q 280.43 590.69 280.24 597.71
  C 279.76 615.73 280.03 633.55 280.05 652.50
  C 280.06 656.45 279.59 661.06 276.80 663.56
  Q 272.59 667.35 266.24 668.63
  C 263.76 669.13 260.89 668.69 258.23 668.87
  C 253.36 669.21 249.41 667.00 246.44 663.35
  Q 243.61 659.88 243.23 658.80
  Q 241.95 655.10 240.94 650.98
  Q 240.21 648.02 240.20 642.96
  Q 240.17 597.74 240.09 562.54
  Q 240.08 559.92 238.39 556.58
  A 1.31 1.30 81.1 0 0 237.45 555.89
  L 232.04 554.99
  A 2.51 2.49 42.4 0 0 231.05 555.03
  Q 229.79 555.40 223.35 555.71
  Q 220.36 555.86 213.46 557.33
  C 206.60 558.79 198.44 558.82 192.06 559.83
  Q 188.09 560.45 188.04 564.21
  Q 187.95 570.82 188.15 573.54
  Q 188.33 576.07 190.37 576.18
  C 196.61 576.52 203.67 576.52 203.62 584.93
  Q 203.30 635.71 203.08 652.90
  Q 202.86 668.73 213.00 680.80
  Q 216.40 684.85 221.60 687.82
  C 224.31 689.37 226.83 689.89 229.43 690.83
  C 237.27 693.69 246.15 693.89 254.29 691.95
  Q 263.76 689.70 265.40 689.17
  C 270.84 687.39 275.23 683.15 280.74 677.77
  A 4.52 4.09 2.9 0 1 281.40 677.23
  L 284.25 675.29
  Z"
/>
<path d="
  M 701.46 522.55
  Q 710.02 522.05 720.46 523.06
  A 22.62 22.55 58.3 0 1 726.54 524.51
  Q 726.77 524.60 731.86 526.69
  Q 735.12 528.03 736.59 529.04
  Q 750.70 538.74 756.52 553.78
  Q 763.19 571.05 763.83 592.50
  Q 764.41 612.29 761.14 627.56
  Q 760.27 631.59 759.25 634.49
  C 758.08 637.83 757.62 640.78 756.21 643.61
  C 749.14 657.88 738.96 667.13 723.25 669.55
  C 715.83 670.70 711.41 671.66 704.17 671.39
  C 701.70 671.30 700.95 670.04 700.03 667.99
  C 698.64 664.87 698.08 661.27 698.08 657.34
  Q 698.07 604.08 698.09 531.75
  Q 698.10 528.38 698.53 525.25
  A 3.15 3.14 -87.7 0 1 701.46 522.55
  Z"
/>
<path d="
  M 393.72 594.83
  A 0.64 0.64 0.0 0 1 393.11 594.19
  L 393.11 524.42
  A 1.32 1.32 0.0 0 1 394.44 523.10
  Q 401.68 523.14 406.24 523.05
  C 413.51 522.91 417.49 524.18 423.60 526.61
  C 428.84 528.70 432.70 533.54 435.06 538.70
  Q 436.85 542.65 437.18 548.27
  Q 437.68 556.99 436.85 569.00
  Q 436.70 571.15 433.90 577.42
  C 429.07 588.24 421.82 591.30 410.99 594.01
  C 405.40 595.41 398.85 595.07 393.72 594.83
  Z"
/>
<path d="
  M 895.33 575.80
  Q 900.49 579.42 902.98 585.28
  C 906.80 594.25 908.28 602.82 908.53 613.51
  Q 908.85 627.51 908.27 640.30
  C 907.76 651.74 903.52 671.53 889.18 673.38
  C 877.69 674.86 869.81 669.93 865.00 659.71
  Q 860.91 651.02 859.98 642.72
  Q 857.90 624.23 859.60 604.37
  Q 860.25 596.75 863.03 589.34
  C 866.65 579.66 873.21 572.38 883.76 572.20
  Q 890.02 572.08 895.33 575.80
  Z"
/>
<path d="
  M 575.26 627.97
  A 0.78 0.78 0.0 0 1 576.11 628.73
  Q 576.17 631.97 576.08 653.50
  C 576.06 656.46 575.87 660.50 574.43 663.23
  A 2.13 1.97 87.9 0 1 573.81 663.95
  Q 568.54 667.77 567.57 668.12
  C 559.41 671.07 545.14 671.70 542.35 660.69
  Q 541.06 655.57 542.10 648.57
  Q 543.68 637.94 552.59 633.07
  Q 554.04 632.28 559.63 630.36
  C 564.79 628.59 571.50 628.28 575.26 627.97
  Z"
/>
</g>
<g fill="#f9e7bb">
<path d="
  M 451.04 599.00
  C 449.39 599.73 447.26 601.22 445.90 601.28
  Q 445.26 601.30 444.99 601.74
  Q 444.69 602.20 444.88 602.75
  Q 445.54 604.67 446.72 606.20
  Q 451.52 612.39 455.39 618.77
  Q 459.14 624.97 471.03 646.74
  C 476.17 656.16 481.24 663.57 489.03 670.13
  Q 494.75 674.93 501.95 675.07
  A 0.90 0.89 -2.1 0 1 502.83 675.88
  C 503.27 681.01 503.73 687.96 496.88 689.10
  Q 493.91 689.60 490.78 690.16
  C 485.00 691.18 479.35 690.78 473.78 690.84
  C 455.63 691.04 444.82 680.32 437.14 665.14
  C 435.44 661.78 434.06 659.61 432.70 656.61
  Q 423.23 635.80 411.52 616.47
  Q 409.43 613.02 405.01 612.71
  Q 398.23 612.23 393.77 612.63
  A 0.92 0.91 -2.7 0 0 392.93 613.55
  L 393.46 662.54
  A 4.61 4.58 -65.7 0 0 394.55 665.46
  C 398.77 670.40 404.78 672.95 411.05 673.91
  A 2.41 2.40 -85.9 0 1 413.09 676.27
  L 413.20 686.27
  A 2.31 2.30 75.5 0 1 412.00 688.31
  Q 409.26 689.79 406.77 689.79
  Q 360.73 689.88 340.58 689.50
  Q 338.19 689.45 336.43 688.31
  A 2.81 2.80 16.4 0 1 335.14 685.95
  L 335.14 676.21
  A 1.69 1.68 -4.6 0 1 336.56 674.55
  C 341.53 673.77 345.17 673.78 348.21 671.77
  Q 351.95 669.28 351.96 663.03
  Q 351.98 581.48 351.87 532.52
  Q 351.87 528.33 347.71 523.25
  A 2.36 2.34 84.3 0 0 346.96 522.63
  Q 341.05 519.57 339.25 519.47
  Q 336.88 519.34 333.41 519.16
  A 1.64 1.60 -23.3 0 1 332.49 518.81
  C 329.14 516.12 330.26 509.79 330.90 505.70
  A 2.27 2.25 67.0 0 1 331.28 504.75
  Q 332.24 503.40 334.75 503.39
  Q 375.96 503.25 417.00 503.39
  Q 420.85 503.40 436.49 505.73
  Q 450.01 507.73 461.30 515.44
  Q 470.28 521.57 475.79 532.29
  Q 479.32 539.17 479.58 549.41
  Q 480.33 579.57 454.57 596.97
  Q 452.51 598.36 451.04 599.00
  Z
  M 393.72 594.83
  C 398.85 595.07 405.40 595.41 410.99 594.01
  C 421.82 591.30 429.07 588.24 433.90 577.42
  Q 436.70 571.15 436.85 569.00
  Q 437.68 556.99 437.18 548.27
  Q 436.85 542.65 435.06 538.70
  C 432.70 533.54 428.84 528.70 423.60 526.61
  C 417.49 524.18 413.51 522.91 406.24 523.05
  Q 401.68 523.14 394.44 523.10
  A 1.32 1.32 0.0 0 0 393.11 524.42
  L 393.11 594.19
  A 0.64 0.64 0.0 0 0 393.72 594.83
  Z"
/>
<path d="
  M 640.19 519.17
  A 2.97 2.97 0.0 0 1 637.39 516.53
  C 636.99 513.10 636.87 507.60 639.10 504.62
  A 3.13 3.13 0.0 0 1 641.61 503.36
  Q 684.56 503.41 703.43 503.29
  Q 717.86 503.19 729.51 504.83
  Q 743.76 506.84 755.38 510.40
  Q 759.18 511.56 761.29 512.71
  C 763.58 513.96 765.94 514.63 768.84 516.32
  Q 792.34 530.11 801.99 555.95
  C 803.44 559.81 805.77 566.08 806.63 571.03
  C 808.75 583.23 809.74 595.20 808.14 606.87
  C 807.60 610.76 807.42 615.05 806.61 619.19
  Q 803.11 636.93 794.34 650.85
  Q 790.24 657.36 783.58 663.85
  Q 769.61 677.46 750.87 683.86
  Q 741.61 687.03 729.14 688.89
  Q 721.86 689.98 706.84 689.82
  Q 701.65 689.76 644.25 689.79
  Q 641.42 689.79 639.96 688.40
  A 1.46 1.45 -69.2 0 1 639.50 687.36
  L 639.39 676.46
  A 2.27 2.26 -5.0 0 1 641.30 674.19
  C 647.61 673.18 653.14 672.31 655.34 665.33
  Q 656.58 661.40 656.74 657.50
  Q 656.76 656.99 656.92 614.75
  C 657.00 594.48 656.57 576.89 656.75 559.78
  Q 656.77 558.58 656.91 536.59
  Q 656.94 531.87 656.08 529.58
  C 653.56 522.89 647.14 519.56 640.19 519.17
  Z
  M 701.46 522.55
  A 3.15 3.14 -87.7 0 0 698.53 525.25
  Q 698.10 528.38 698.09 531.75
  Q 698.07 604.08 698.08 657.34
  C 698.08 661.27 698.64 664.87 700.03 667.99
  C 700.95 670.04 701.70 671.30 704.17 671.39
  C 711.41 671.66 715.83 670.70 723.25 669.55
  C 738.96 667.13 749.14 657.88 756.21 643.61
  C 757.62 640.78 758.08 637.83 759.25 634.49
  Q 760.27 631.59 761.14 627.56
  Q 764.41 612.29 763.83 592.50
  Q 763.19 571.05 756.52 553.78
  Q 750.70 538.74 736.59 529.04
  Q 735.12 528.03 731.86 526.69
  Q 726.77 524.60 726.54 524.51
  A 22.62 22.55 58.3 0 0 720.46 523.06
  Q 710.02 522.05 701.46 522.55
  Z"
/>
<path d="
  M 112.76 508.84
  Q 116.41 507.92 121.50 507.90
  C 136.51 507.85 152.54 507.67 167.82 507.85
  Q 178.83 507.99 187.25 507.61
  Q 189.63 507.50 192.38 508.76
  A 1.42 1.42 0.0 0 1 193.17 509.70
  Q 194.89 516.30 193.01 522.14
  A 1.10 1.10 0.0 0 1 192.07 522.90
  C 187.25 523.35 179.91 525.53 177.52 530.13
  Q 175.92 533.20 175.92 537.25
  Q 175.90 548.75 175.95 672.00
  Q 175.95 675.82 174.51 685.15
  Q 173.26 693.28 171.58 698.05
  C 165.60 715.06 153.38 727.86 136.94 735.01
  Q 129.73 738.14 121.12 738.81
  Q 110.73 739.62 101.77 737.97
  Q 93.58 736.46 86.66 730.03
  Q 79.09 722.99 79.67 712.75
  Q 79.99 707.20 82.90 703.81
  C 85.82 700.41 88.94 697.29 93.52 696.95
  Q 101.77 696.34 107.35 702.98
  A 2.18 2.13 -69.4 0 1 107.85 704.12
  C 108.36 708.05 108.47 711.18 109.68 713.74
  Q 112.23 719.15 119.14 719.66
  Q 119.58 719.69 124.23 718.37
  C 133.47 715.74 134.36 704.35 134.36 696.79
  Q 134.33 597.49 134.40 550.50
  C 134.41 542.43 135.40 532.28 128.21 527.62
  C 126.16 526.29 123.15 526.19 120.98 524.67
  A 2.42 2.28 65.1 0 0 119.98 524.27
  L 113.40 523.32
  A 2.82 2.81 -85.6 0 1 110.99 520.50
  C 111.04 516.91 110.95 513.04 112.08 509.48
  A 0.96 0.95 1.6 0 1 112.76 508.84
  Z"
/>
<path d="
  M 510.66 598.13
  Q 509.96 596.26 509.92 592.60
  C 509.86 586.35 514.61 577.67 518.00 573.79
  Q 531.29 558.56 552.29 554.80
  Q 557.05 553.95 569.50 553.55
  Q 572.68 553.45 581.63 554.84
  C 591.18 556.33 599.12 561.55 604.66 568.54
  Q 610.36 575.72 612.27 585.68
  Q 612.98 589.39 612.99 601.25
  Q 613.01 634.89 612.98 653.01
  C 612.98 658.66 613.51 662.53 615.03 667.74
  Q 615.60 669.68 618.50 671.28
  A 1.64 1.51 -28.9 0 0 619.24 671.46
  L 625.64 671.46
  A 1.00 0.99 82.9 0 1 626.60 672.22
  L 627.58 676.22
  A 0.76 0.70 42.6 0 1 627.60 676.46
  Q 627.17 683.31 620.35 686.28
  Q 613.20 689.39 608.32 690.10
  C 601.46 691.09 595.57 692.58 589.99 690.82
  Q 583.36 688.74 581.69 681.93
  Q 580.53 677.21 580.48 675.69
  A 1.12 1.12 0.0 0 0 578.78 674.76
  C 574.44 677.38 570.37 683.01 565.88 685.73
  Q 559.89 689.34 553.45 690.67
  C 542.48 692.94 531.12 693.58 521.41 689.06
  Q 515.13 686.14 509.77 677.96
  Q 509.60 677.70 506.57 671.43
  A 3.35 3.23 29.9 0 1 506.25 670.32
  Q 505.10 659.65 506.44 652.94
  Q 509.92 635.42 526.42 625.92
  Q 528.82 624.54 537.83 620.84
  A 5.97 5.48 26.4 0 1 539.04 620.49
  Q 544.16 619.54 550.36 617.34
  C 554.44 615.88 560.59 615.40 565.83 614.01
  Q 573.12 612.08 574.75 611.61
  A 0.86 0.83 -3.6 0 0 575.35 610.95
  Q 576.27 605.64 576.28 605.02
  Q 576.42 596.08 575.58 589.89
  Q 574.38 580.97 566.28 576.32
  A 5.13 5.10 -25.8 0 0 564.48 575.70
  C 561.14 575.20 557.59 573.99 554.55 574.43
  C 548.20 575.35 543.67 576.26 541.92 582.68
  A 2.46 2.43 -46.1 0 0 541.94 584.05
  C 543.06 587.78 543.87 595.38 540.91 598.91
  Q 537.40 603.11 533.92 604.39
  C 528.21 606.50 519.79 607.04 514.49 603.56
  Q 512.09 601.98 510.66 598.13
  Z
  M 575.26 627.97
  C 571.50 628.28 564.79 628.59 559.63 630.36
  Q 554.04 632.28 552.59 633.07
  Q 543.68 637.94 542.10 648.57
  Q 541.06 655.57 542.35 660.69
  C 545.14 671.70 559.41 671.07 567.57 668.12
  Q 568.54 667.77 573.81 663.95
  A 2.13 1.97 87.9 0 0 574.43 663.23
  C 575.87 660.50 576.06 656.46 576.08 653.50
  Q 576.17 631.97 576.11 628.73
  A 0.78 0.78 0.0 0 0 575.26 627.97
  Z"
/>
<path d="
  M 851.89 562.16
  C 857.29 558.97 863.63 556.26 870.20 555.13
  Q 881.06 553.28 890.83 553.76
  Q 901.92 554.30 910.98 557.93
  Q 925.97 563.94 936.42 577.32
  Q 939.73 581.55 944.81 591.76
  A 3.12 3.05 28.4 0 1 945.09 592.66
  Q 945.45 594.86 946.09 596.63
  C 947.76 601.18 948.95 604.74 949.29 609.60
  Q 950.26 623.46 948.99 635.25
  Q 948.47 639.99 947.22 643.90
  C 945.93 647.91 945.11 651.57 943.47 655.12
  Q 936.36 670.49 924.90 679.91
  Q 918.24 685.39 907.71 688.92
  Q 884.21 696.81 859.18 689.31
  Q 851.63 687.04 846.95 684.06
  Q 830.10 673.33 823.33 655.46
  Q 819.91 646.42 818.50 634.59
  Q 817.72 628.11 819.12 614.15
  Q 819.54 609.88 820.99 605.70
  C 822.20 602.21 822.89 598.57 824.44 594.70
  C 829.84 581.28 839.33 569.57 851.89 562.16
  Z
  M 883.76 572.20
  C 873.21 572.38 866.65 579.66 863.03 589.34
  Q 860.25 596.75 859.60 604.37
  Q 857.90 624.23 859.98 642.72
  Q 860.91 651.02 865.00 659.71
  C 869.81 669.93 877.69 674.86 889.18 673.38
  C 903.52 671.53 907.76 651.74 908.27 640.30
  Q 908.85 627.51 908.53 613.51
  C 908.28 602.82 906.80 594.25 902.98 585.28
  Q 900.49 579.42 895.33 575.80
  Q 890.02 572.08 883.76 572.20
  Z"
/>
<path d="
  M 284.25 675.29
  L 281.40 677.23
  A 4.52 4.09 2.9 0 0 280.74 677.77
  C 275.23 683.15 270.84 687.39 265.40 689.17
  Q 263.76 689.70 254.29 691.95
  C 246.15 693.89 237.27 693.69 229.43 690.83
  C 226.83 689.89 224.31 689.37 221.60 687.82
  Q 216.40 684.85 213.00 680.80
  Q 202.86 668.73 203.08 652.90
  Q 203.30 635.71 203.62 584.93
  C 203.67 576.52 196.61 576.52 190.37 576.18
  Q 188.33 576.07 188.15 573.54
  Q 187.95 570.82 188.04 564.21
  Q 188.09 560.45 192.06 559.83
  C 198.44 558.82 206.60 558.79 213.46 557.33
  Q 220.36 555.86 223.35 555.71
  Q 229.79 555.40 231.05 555.03
  A 2.51 2.49 42.4 0 1 232.04 554.99
  L 237.45 555.89
  A 1.31 1.30 81.1 0 1 238.39 556.58
  Q 240.08 559.92 240.09 562.54
  Q 240.17 597.74 240.20 642.96
  Q 240.21 648.02 240.94 650.98
  Q 241.95 655.10 243.23 658.80
  Q 243.61 659.88 246.44 663.35
  C 249.41 667.00 253.36 669.21 258.23 668.87
  C 260.89 668.69 263.76 669.13 266.24 668.63
  Q 272.59 667.35 276.80 663.56
  C 279.59 661.06 280.06 656.45 280.05 652.50
  C 280.03 633.55 279.76 615.73 280.24 597.71
  Q 280.43 590.69 279.94 580.71
  A 3.36 3.34 -74.1 0 0 278.51 578.12
  C 275.46 575.99 273.28 576.33 269.16 576.35
  A 2.44 2.43 81.6 0 1 266.81 574.60
  Q 265.59 570.48 265.95 566.33
  C 266.19 563.51 266.21 561.42 268.88 560.36
  Q 270.55 559.70 272.31 559.26
  A 4.99 4.82 36.6 0 1 273.39 559.12
  Q 284.78 558.93 287.84 558.06
  Q 298.85 554.91 309.74 554.66
  Q 313.07 554.58 315.37 555.33
  A 4.09 4.07 -84.2 0 1 318.17 558.77
  Q 318.32 560.07 318.32 564.50
  C 318.33 587.00 318.63 609.35 318.48 631.55
  Q 318.32 655.04 318.65 658.63
  C 319.07 663.22 318.88 668.18 322.93 670.07
  Q 326.70 671.83 331.24 671.68
  A 0.70 0.70 0.0 0 1 331.96 672.29
  C 332.43 675.98 333.48 681.39 329.58 683.79
  Q 321.84 688.53 315.50 689.26
  Q 300.62 690.96 296.70 692.14
  C 294.75 692.72 289.78 690.80 288.51 689.88
  C 284.49 687.00 285.10 681.26 285.04 675.70
  A 0.51 0.50 -17.5 0 0 284.25 675.29
  Z"
/>
</g>
</svg>
