<?xml version="1.0" encoding="UTF-8" standalone="no"?>
<!DOCTYPE svg PUBLIC "-//W3C//DTD SVG 1.1//EN" "http://www.w3.org/Graphics/SVG/1.1/DTD/svg11.dtd">
<svg xmlns="http://www.w3.org/2000/svg" version="1.1" viewBox="0.00 0.00 432.00 428.00">
<path fill="#234b7c" d="
  M 397.70 206.71
  A 185.33 185.33 0.0 0 1 212.37 392.04
  A 185.33 185.33 0.0 0 1 27.04 206.71
  A 185.33 185.33 0.0 0 1 212.37 21.38
  A 185.33 185.33 0.0 0 1 397.70 206.71
  Z
  M 385.76 206.79
  A 173.31 173.31 0.0 0 0 212.45 33.48
  A 173.31 173.31 0.0 0 0 39.14 206.79
  A 173.31 173.31 0.0 0 0 212.45 380.10
  A 173.31 173.31 0.0 0 0 385.76 206.79
  Z"
/>
<path fill="#234b7c" d="
  M 219.61 152.61
  A 0.35 0.35 0.0 0 0 219.94 153.06
  L 266.68 153.06
  A 4.70 4.49 53.2 0 1 268.17 153.31
  Q 272.58 154.83 272.65 159.18
  Q 272.68 161.28 269.84 166.36
  Q 269.38 167.18 252.96 199.34
  A 0.97 0.95 42.4 0 0 253.01 200.28
  Q 256.53 205.72 257.72 213.01
  Q 257.78 213.39 260.61 227.68
  C 261.41 231.78 263.04 237.26 266.66 239.50
  A 2.39 2.38 -52.2 0 0 269.64 239.12
  Q 271.25 237.44 272.30 235.02
  Q 275.49 227.66 277.22 220.23
  Q 281.03 203.82 284.58 192.91
  C 287.88 182.71 294.63 171.71 305.85 169.89
  C 323.13 167.09 331.54 182.86 336.41 196.36
  Q 338.51 202.18 344.90 202.12
  Q 352.46 202.04 367.38 202.10
  Q 371.04 202.11 372.54 202.73
  C 378.02 205.00 376.46 213.43 370.63 213.64
  Q 365.40 213.83 345.71 213.77
  C 339.22 213.75 333.84 212.46 330.18 207.82
  C 325.97 202.50 323.95 196.55 321.73 191.78
  C 318.28 184.33 311.43 176.71 303.16 184.13
  C 298.91 187.94 295.64 196.40 294.06 202.31
  Q 289.81 218.27 286.61 229.37
  C 284.81 235.59 282.18 243.44 277.69 247.25
  C 270.92 252.99 261.22 252.75 255.93 245.34
  C 249.49 236.31 246.78 225.31 245.88 214.10
  A 0.31 0.31 0.0 0 0 245.30 213.99
  Q 234.92 234.73 222.75 257.52
  Q 195.06 309.39 186.24 325.73
  C 184.46 329.02 182.95 330.81 179.07 330.82
  C 174.46 330.84 168.95 331.49 166.78 329.58
  C 164.12 327.25 164.35 324.94 165.49 321.45
  Q 169.69 308.56 176.83 285.82
  A 0.45 0.44 14.6 0 0 176.49 285.25
  C 162.44 282.44 154.40 268.25 149.19 256.30
  Q 139.58 234.29 134.14 214.11
  Q 132.61 208.41 126.00 183.00
  Q 124.30 176.46 121.10 168.50
  Q 119.42 164.34 117.07 161.84
  C 108.59 152.84 101.37 176.02 99.44 181.69
  Q 99.04 182.87 93.59 199.57
  C 91.86 204.88 88.27 210.33 82.50 212.69
  Q 79.74 213.82 73.83 213.78
  Q 62.45 213.70 54.23 213.72
  A 2.53 2.33 -34.9 0 1 53.57 213.63
  C 46.15 211.54 47.94 202.26 55.28 202.21
  Q 65.27 202.15 75.29 202.11
  Q 80.36 202.10 81.89 197.35
  Q 85.30 186.72 90.01 172.77
  C 92.62 165.04 97.60 153.65 105.57 149.97
  Q 116.73 144.81 125.50 153.70
  Q 127.36 155.58 130.66 162.08
  C 135.73 172.09 138.77 184.04 141.67 196.18
  C 146.32 215.64 152.54 235.63 160.40 252.82
  C 164.19 261.10 169.56 270.85 178.89 273.99
  A 1.52 1.51 17.9 0 0 180.82 273.01
  L 205.05 196.88
  A 0.32 0.31 -81.0 0 0 204.76 196.47
  Q 170.96 196.29 162.45 196.34
  Q 157.35 196.38 155.86 194.97
  C 152.72 191.98 153.70 188.90 155.62 185.01
  Q 198.43 98.23 207.24 79.77
  C 209.99 74.01 213.05 74.69 218.93 74.77
  Q 223.64 74.82 234.68 74.71
  Q 239.42 74.67 240.83 76.04
  C 243.23 78.40 243.12 80.86 241.99 84.19
  Q 239.47 91.63 219.61 152.61
  Z
  M 181.20 310.87
  A 0.17 0.16 -28.6 0 0 181.51 310.96
  Q 195.10 284.49 211.89 253.04
  C 228.89 221.21 241.54 195.45 257.28 165.28
  A 0.14 0.14 0.0 0 0 257.16 165.08
  Q 236.27 165.06 216.54 165.07
  C 210.65 165.08 205.28 165.53 204.82 158.94
  A 2.70 2.65 -38.8 0 1 204.94 157.92
  L 228.15 87.11
  A 0.23 0.23 0.0 0 0 227.93 86.81
  L 217.52 86.81
  A 0.70 0.68 -76.9 0 0 216.90 87.21
  Q 194.25 134.60 168.93 184.16
  A 0.30 0.29 -76.4 0 0 169.19 184.59
  Q 208.61 184.61 210.55 184.54
  C 215.90 184.35 219.78 186.08 219.14 191.88
  A 1.91 1.70 60.2 0 1 219.07 192.21
  Q 200.89 248.58 183.01 305.05
  C 182.28 307.35 181.37 309.07 181.20 310.87
  Z"
/>
</svg>
