<?xml version="1.0" encoding="UTF-8" standalone="no"?>
<!DOCTYPE svg PUBLIC "-//W3C//DTD SVG 1.1//EN" "http://www.w3.org/Graphics/SVG/1.1/DTD/svg11.dtd">
<svg xmlns="http://www.w3.org/2000/svg" version="1.1" viewBox="0.00 0.00 1024.00 1024.00">
<g stroke-width="2.00" fill="none" stroke-linecap="butt">
<path stroke="#69e7f1" stroke-opacity="0.871" d="
  M 71.79 339.97
  L 73.03 335.90"
/>
<path stroke="#69e7f1" stroke-opacity="0.871" d="
  M 344.34 425.41
  L 339.14 426.29"
/>
<path stroke="#69e7f1" stroke-opacity="0.871" d="
  M 608.94 540.76
  Q 610.81 538.35 608.67 536.75"
/>
<path stroke="#69e7f1" stroke-opacity="0.871" d="
  M 776.36 561.13
  Q 776.76 561.42 776.93 560.98
  Q 777.05 560.65 776.42 560.50"
/>
<path stroke="#69e7f1" stroke-opacity="0.871" d="
  M 787.38 544.83
  L 789.04 547.31"
/>
<path stroke="#69e7f1" stroke-opacity="0.871" d="
  M 782.01 556.03
  Q 780.47 556.78 779.85 558.23
  A 0.43 0.43 0.0 0 0 780.44 558.78
  Q 781.85 558.03 782.55 556.35"
/>
<path stroke="#69e7f1" stroke-opacity="0.871" d="
  M 1008.77 579.12
  Q 1008.55 581.02 1007.54 583.04"
/>
<path stroke="#67e5ee" stroke-opacity="0.776" d="
  M 768.75 604.96
  Q 769.60 606.16 769.38 605.33"
/>
<path stroke="#69e7f1" stroke-opacity="0.871" d="
  M 1013.17 668.47
  Q 1013.76 669.57 1014.74 670.49"
/>
<path stroke="#67e5ee" stroke-opacity="0.776" d="
  M 1014.74 670.49
  Q 1015.91 672.10 1020.29 671.18"
/>
<path stroke="#69e7f1" stroke-opacity="0.871" d="
  M 1020.29 671.18
  Q 1020.38 671.20 1020.48 671.22
  Q 1021.65 671.90 1021.55 672.77"
/>
<path stroke="#69e7f1" stroke-opacity="0.871" d="
  M 1020.21 672.65
  L 1019.04 672.61"
/>
<path stroke="#69e7f1" stroke-opacity="0.871" d="
  M 1011.46 671.94
  Q 1011.18 671.80 1010.79 671.85"
/>
<path stroke="#69e7f1" stroke-opacity="0.871" d="
  M 1009.46 671.65
  L 1007.45 671.62"
/>
<path stroke="#69e7f1" stroke-opacity="0.871" d="
  M 63.94 585.66
  L 66.72 582.97"
/>
<path stroke="#69e7f1" stroke-opacity="0.871" d="
  M 56.25 519.48
  Q 55.37 517.94 53.95 516.72"
/>
<path stroke="#69e7f1" stroke-opacity="0.871" d="
  M 756.29 602.12
  Q 755.67 602.00 756.11 603.31"
/>
</g>
<g fill="#62e4f0" fill-opacity="0.996">
<path d="
  M 1024.00 326.65
  L 1024.00 328.63
  L 1023.75 329.96
  A 0.41 0.40 14.2 0 1 1023.22 330.27
  Q 1002.57 323.16 985.40 311.34
  Q 971.65 301.88 956.57 286.42
  C 949.13 278.79 942.67 272.03 934.79 263.47
  Q 919.40 246.78 901.67 231.73
  C 894.76 225.87 887.44 220.60 879.81 216.49
  Q 876.33 214.62 870.85 212.43
  Q 864.46 209.89 858.25 208.91
  C 844.73 206.78 831.67 207.56 818.88 212.31
  Q 806.14 217.04 796.41 223.68
  C 778.84 235.66 763.73 251.68 751.22 268.73
  Q 731.48 295.63 723.57 310.31
  C 723.11 311.16 721.85 312.28 721.31 312.96
  A 0.70 0.69 43.9 0 0 721.33 313.83
  Q 723.17 316.06 724.15 320.09
  C 726.15 328.35 719.71 335.90 711.26 335.23
  A 1.16 1.15 -75.9 0 0 710.10 335.93
  Q 702.47 353.73 700.05 359.33
  Q 694.11 373.08 683.96 391.96
  Q 679.28 400.69 674.68 405.70
  C 670.47 410.29 663.60 414.60 656.77 416.24
  C 647.74 418.42 638.74 418.70 629.49 418.24
  Q 617.20 417.64 605.25 416.79
  A 0.75 0.74 -78.1 0 0 604.48 417.30
  C 603.99 418.81 604.12 420.38 603.43 421.87
  C 599.09 431.37 588.74 437.08 578.33 434.69
  A 0.94 0.94 0.0 0 0 577.29 435.18
  Q 559.80 469.92 539.37 508.90
  Q 529.12 528.45 517.15 547.07
  A 1.69 1.69 0.0 0 0 517.13 548.86
  Q 523.09 558.79 517.66 568.59
  Q 516.03 571.54 510.13 575.40
  A 3.76 3.59 20.7 0 1 508.88 575.93
  Q 493.44 579.47 487.17 565.87
  A 2.72 2.71 79.7 0 0 484.91 564.30
  Q 455.60 562.22 426.56 565.41
  Q 413.52 566.84 401.85 569.57
  A 0.35 0.35 0.0 0 0 401.71 570.19
  Q 408.88 575.92 415.94 583.81
  Q 432.99 602.88 449.17 626.34
  Q 463.46 647.07 478.21 665.80
  Q 489.55 680.19 503.34 692.48
  A 2.24 2.22 56.8 0 0 505.49 692.94
  Q 528.31 685.75 547.47 670.70
  Q 556.47 663.63 574.80 646.84
  C 580.32 641.78 584.67 638.36 591.23 633.24
  Q 617.32 612.87 649.78 607.13
  Q 664.58 604.51 680.99 604.91
  Q 694.81 605.25 705.05 606.47
  Q 708.44 606.87 715.25 607.45
  A 0.58 0.57 -86.2 0 0 715.87 606.90
  L 716.05 603.40
  A 1.60 1.36 -40.3 0 1 716.09 603.16
  Q 719.34 591.07 731.64 587.93
  A 3.09 3.07 7.8 0 0 733.56 586.48
  L 738.36 578.16
  A 1.27 1.26 31.8 0 0 737.96 576.47
  Q 736.49 575.49 735.05 573.86
  Q 727.58 565.36 714.81 554.18
  Q 702.29 543.21 691.91 538.02
  Q 671.00 527.55 645.52 530.05
  Q 625.35 532.03 608.94 540.76
  Q 610.81 538.35 608.67 536.75
  C 637.95 521.59 673.28 521.25 701.73 538.28
  Q 717.52 547.74 730.35 560.68
  Q 738.23 568.64 741.46 571.92
  A 0.32 0.31 36.8 0 0 741.96 571.85
  Q 763.25 530.65 782.49 494.20
  Q 797.86 465.09 810.86 442.84
  C 823.23 421.68 836.54 401.02 852.80 383.05
  Q 868.64 365.54 889.00 354.40
  Q 892.59 352.43 896.91 350.68
  Q 903.85 347.87 905.06 347.51
  Q 936.81 338.10 964.93 353.35
  Q 989.17 366.49 1008.27 387.08
  Q 1008.43 387.26 1015.27 394.43
  Q 1020.27 399.68 1024.00 405.23
  L 1024.00 408.14
  L 1023.69 408.98
  A 0.29 0.28 32.4 0 1 1023.22 409.08
  Q 1021.33 407.23 1017.56 402.98
  Q 1005.43 389.32 991.93 378.69
  C 980.15 369.42 969.52 361.63 956.37 355.96
  C 945.58 351.31 935.64 349.55 924.49 350.28
  Q 907.56 351.37 892.29 359.83
  Q 873.53 370.21 859.29 385.31
  C 843.36 402.21 830.60 421.29 818.91 441.40
  Q 804.62 465.97 797.77 478.78
  Q 781.27 509.60 760.18 550.37
  C 755.97 558.51 751.32 566.94 746.94 576.07
  A 1.10 1.09 -52.8 0 0 747.10 577.26
  Q 751.84 582.62 754.00 584.94
  Q 754.32 585.27 754.37 585.61
  Q 754.44 586.06 754.55 586.17
  A 0.62 0.55 41.5 0 0 755.40 586.17
  L 776.36 561.13
  Q 776.76 561.42 776.93 560.98
  Q 777.05 560.65 776.42 560.50
  L 787.38 544.83
  L 789.04 547.31
  L 782.01 556.03
  Q 780.47 556.78 779.85 558.23
  A 0.43 0.43 0.0 0 0 780.44 558.78
  Q 781.85 558.03 782.55 556.35
  C 784.61 554.71 786.67 552.41 788.23 550.98
  Q 802.44 537.92 817.27 527.51
  Q 832.05 517.13 849.60 510.52
  Q 867.64 503.73 885.30 503.61
  Q 913.54 503.42 938.92 517.38
  Q 959.67 528.79 975.11 543.65
  Q 991.21 559.15 1006.29 575.97
  Q 1007.66 577.49 1008.77 579.12
  Q 1008.55 581.02 1007.54 583.04
  Q 982.86 555.30 953.10 533.45
  Q 939.71 523.61 924.81 517.44
  Q 897.96 506.31 869.23 511.48
  Q 855.90 513.88 843.68 519.69
  Q 834.65 523.97 829.53 527.07
  Q 814.78 535.99 801.57 547.32
  Q 780.28 565.56 764.28 584.52
  Q 763.44 585.51 756.41 594.58
  A 0.55 0.55 0.0 0 0 756.50 595.35
  L 768.75 604.96
  Q 769.60 606.16 769.38 605.33
  Q 774.32 609.77 787.91 620.84
  Q 803.15 633.26 822.44 653.90
  C 831.78 663.89 841.88 676.26 853.67 685.99
  Q 870.15 699.59 890.76 700.25
  C 905.42 700.72 920.23 695.21 932.83 687.56
  Q 946.17 679.46 951.48 676.24
  Q 958.08 672.23 969.20 668.65
  Q 974.29 667.02 980.48 666.89
  Q 989.01 666.73 992.00 666.86
  Q 997.60 667.10 1013.17 668.47
  Q 1013.76 669.57 1014.74 670.49
  Q 1015.91 672.10 1020.29 671.18
  Q 1020.38 671.20 1020.48 671.22
  Q 1021.65 671.90 1021.55 672.77
  L 1020.21 672.65
  L 1019.04 672.61
  L 1011.46 671.94
  Q 1011.18 671.80 1010.79 671.85
  L 1009.46 671.65
  L 1007.45 671.62
  Q 995.35 670.65 983.22 671.87
  Q 975.62 672.64 970.10 674.39
  Q 966.70 675.47 960.52 678.49
  C 950.17 683.57 941.00 690.59 930.90 695.75
  Q 921.01 700.79 918.44 701.73
  Q 885.93 713.68 857.25 696.46
  C 853.44 694.17 848.67 690.55 845.79 688.01
  Q 837.54 680.74 828.82 670.68
  Q 799.02 636.24 764.70 610.07
  Q 763.80 609.39 761.23 608.10
  A 0.87 0.86 -48.5 0 0 760.34 608.16
  Q 759.56 608.70 758.03 608.90
  A 0.83 0.82 88.3 0 0 757.32 609.66
  Q 756.24 623.61 743.61 628.41
  Q 735.94 631.33 726.54 627.64
  C 725.64 627.29 724.85 626.27 723.86 625.86
  A 0.77 0.77 0.0 0 0 722.94 626.13
  Q 721.23 628.58 716.87 634.88
  Q 701.65 656.85 689.12 671.87
  Q 681.16 681.40 674.06 688.56
  Q 661.77 700.97 646.61 711.88
  C 633.40 721.39 618.76 728.75 602.58 732.40
  Q 594.25 734.27 584.75 734.13
  Q 573.33 733.96 566.86 732.59
  Q 530.56 724.89 502.66 700.29
  A 1.20 1.20 0.0 0 0 501.45 700.07
  C 495.72 702.18 490.56 702.88 482.12 704.08
  Q 474.79 705.11 467.85 704.80
  Q 451.14 704.03 436.50 698.11
  Q 424.27 693.18 412.45 684.47
  Q 399.50 674.94 391.35 666.40
  Q 376.55 650.87 365.89 637.36
  Q 351.99 619.74 340.75 603.26
  A 0.48 0.48 0.0 0 0 340.02 603.19
  Q 330.89 612.26 327.28 615.53
  C 322.16 620.18 317.70 625.59 312.44 630.69
  Q 302.97 639.88 293.47 646.18
  Q 276.51 657.42 256.16 659.49
  C 245.95 660.53 233.26 658.88 224.05 655.45
  Q 202.35 647.36 185.49 631.50
  A 2.02 2.01 -31.8 0 0 183.49 631.04
  C 181.69 631.60 179.65 632.42 177.43 632.80
  Q 142.44 638.73 113.12 619.17
  Q 103.78 612.95 103.65 612.85
  Q 96.04 606.94 82.23 596.52
  Q 76.60 592.27 63.94 585.66
  L 66.72 582.97
  Q 83.17 590.60 97.78 601.19
  Q 110.50 610.41 110.52 610.43
  C 121.15 617.46 131.54 623.20 144.32 626.43
  C 151.75 628.30 158.89 628.30 165.64 628.07
  Q 171.07 627.87 178.93 626.20
  A 0.40 0.40 0.0 0 0 179.13 625.53
  C 157.81 604.76 142.27 580.12 127.34 553.67
  Q 110.16 523.23 93.19 491.55
  A 0.83 0.83 0.0 0 0 91.89 491.33
  Q 76.59 505.43 59.72 517.47
  Q 58.05 518.66 56.25 519.48
  Q 55.37 517.94 53.95 516.72
  Q 66.19 508.82 75.51 500.02
  Q 79.47 496.28 89.48 485.89
  A 0.72 0.71 53.4 0 0 89.60 485.06
  Q 76.59 459.79 63.06 437.73
  C 58.89 430.93 53.59 423.78 48.81 418.43
  Q 40.44 409.08 28.64 402.84
  Q 16.61 396.49 0.00 393.84
  L 0.00 387.87
  Q 19.19 390.19 35.07 399.22
  C 49.79 407.59 60.88 421.64 69.71 436.53
  Q 81.97 457.23 94.18 480.42
  A 0.56 0.56 0.0 0 0 95.08 480.55
  Q 110.83 464.09 128.39 450.65
  Q 144.94 437.98 164.55 432.31
  Q 165.04 432.17 172.42 430.79
  Q 176.72 429.99 180.37 429.96
  Q 193.87 429.87 201.13 431.48
  Q 225.71 436.95 244.92 453.65
  Q 250.49 458.50 256.14 464.11
  Q 260.19 468.13 270.30 480.93
  Q 278.67 491.51 291.30 511.42
  Q 300.51 525.95 312.18 545.95
  A 1.21 1.20 65.3 0 0 313.61 546.48
  Q 323.97 542.90 335.03 542.12
  Q 353.93 540.78 370.99 549.00
  Q 384.18 555.35 396.26 564.84
  A 1.16 1.15 55.4 0 0 397.32 565.04
  Q 414.48 559.89 432.98 558.44
  Q 440.99 557.81 455.00 557.17
  Q 461.40 556.88 485.28 558.22
  A 0.55 0.55 0.0 0 0 485.86 557.73
  C 487.33 545.04 499.61 538.16 511.29 543.16
  A 0.99 0.98 -62.2 0 0 512.51 542.78
  Q 523.73 525.06 533.15 507.43
  Q 542.86 489.27 571.47 432.73
  A 0.89 0.89 0.0 0 0 571.28 431.69
  L 566.81 427.62
  A 3.10 2.86 -87.7 0 1 566.35 427.08
  C 559.35 416.99 561.44 403.57 571.39 396.79
  C 579.48 391.28 589.53 391.60 597.14 397.82
  Q 602.96 402.58 604.28 410.11
  A 0.89 0.88 -3.9 0 0 605.13 410.84
  Q 609.64 410.95 634.50 411.95
  Q 644.47 412.36 654.45 410.24
  Q 663.38 408.34 669.63 401.74
  Q 673.13 398.04 675.83 393.60
  Q 683.06 381.74 685.54 376.08
  Q 685.99 375.07 689.76 367.07
  Q 697.31 351.05 703.96 334.38
  A 2.01 2.00 -57.1 0 0 703.50 332.21
  Q 696.11 324.98 700.79 316.09
  C 703.03 311.84 708.46 308.81 713.89 309.89
  Q 715.07 310.12 716.27 310.08
  A 0.79 0.78 -80.0 0 0 716.99 309.57
  Q 718.14 306.62 725.82 294.34
  C 739.57 272.36 754.73 251.95 772.91 234.31
  C 783.79 223.75 796.13 215.16 809.79 208.81
  Q 815.47 206.18 824.52 203.80
  Q 843.01 198.93 862.62 203.05
  C 877.39 206.15 891.10 214.35 902.55 223.93
  Q 914.21 233.69 920.81 240.19
  Q 938.14 257.27 954.76 275.73
  Q 972.44 295.35 986.90 306.61
  Q 1002.56 318.81 1024.00 326.65
  Z
  M 305.88 549.16
  A 0.49 0.48 63.9 0 0 306.11 548.48
  Q 290.09 519.66 271.98 493.77
  C 252.68 466.20 226.64 439.63 191.38 436.32
  Q 178.89 435.15 166.66 438.17
  Q 153.84 441.35 143.75 447.78
  Q 132.85 454.73 127.03 459.56
  Q 113.54 470.75 98.11 485.72
  A 1.26 1.25 -36.0 0 0 97.87 487.22
  Q 115.85 520.58 132.17 549.35
  Q 143.39 569.14 151.66 581.85
  Q 166.47 604.57 185.72 623.43
  A 1.91 1.89 57.9 0 0 187.64 623.88
  Q 199.61 619.92 210.42 613.15
  Q 221.28 606.35 224.73 603.71
  C 250.41 584.11 275.63 561.94 305.88 549.16
  Z
  M 342.91 594.50
  C 356.88 583.18 372.08 573.58 388.73 567.59
  A 0.41 0.41 0.0 0 0 388.84 566.87
  Q 379.26 559.82 368.24 554.59
  Q 355.87 548.72 342.51 547.99
  Q 337.37 547.71 329.31 549.06
  Q 323.33 550.06 316.30 551.87
  A 0.77 0.77 0.0 0 0 315.84 553.02
  L 341.93 594.34
  A 0.67 0.66 -35.7 0 0 342.91 594.50
  Z
  M 191.70 628.81
  Q 204.42 640.20 219.11 646.92
  C 221.20 647.87 222.70 648.05 224.61 648.99
  Q 226.73 650.03 228.72 650.60
  C 241.96 654.45 254.92 655.18 268.06 651.30
  Q 285.27 646.22 298.26 636.01
  Q 309.58 627.11 314.63 621.87
  Q 327.13 608.89 334.84 601.58
  Q 336.07 600.41 336.94 599.58
  A 1.13 1.13 0.0 0 0 337.11 598.14
  Q 322.98 577.01 310.70 555.43
  A 1.21 1.20 64.9 0 0 309.22 554.89
  Q 295.67 560.06 284.41 567.20
  Q 267.83 577.72 251.36 591.05
  C 242.50 598.23 232.39 605.88 222.84 612.56
  Q 207.95 622.97 191.77 628.43
  A 0.23 0.22 56.3 0 0 191.70 628.81
  Z
  M 345.37 599.48
  Q 345.55 599.64 345.68 599.82
  Q 362.73 624.09 382.19 647.12
  C 387.16 653.00 391.57 657.35 396.70 662.89
  C 399.09 665.46 402.43 668.14 404.87 670.40
  Q 418.83 683.34 435.74 691.02
  C 444.82 695.14 453.59 696.95 463.02 698.02
  Q 471.32 698.97 481.24 697.92
  Q 484.26 697.59 495.40 695.41
  Q 495.82 695.33 496.03 695.41
  Q 496.34 695.52 496.64 695.50
  A 0.30 0.30 0.0 0 0 496.83 694.98
  Q 483.67 682.98 471.50 667.50
  Q 457.68 649.93 441.16 625.86
  C 427.62 606.13 412.82 588.01 395.54 572.24
  A 1.39 1.38 57.5 0 0 394.22 571.94
  Q 373.86 578.08 356.33 590.09
  Q 348.90 595.19 345.35 598.84
  A 0.44 0.44 0.0 0 0 345.37 599.48
  Z
  M 740.38 588.17
  C 743.51 588.39 747.54 589.61 750.67 592.23
  A 0.43 0.43 0.0 0 0 751.35 591.75
  Q 750.83 590.29 749.48 588.66
  Q 744.74 582.96 744.31 582.16
  A 0.47 0.46 45.6 0 0 743.50 582.15
  L 740.20 587.85
  A 0.22 0.21 16.2 0 0 740.38 588.17
  Z
  M 756.29 602.12
  Q 755.67 602.00 756.11 603.31
  L 757.26 606.19
  A 0.43 0.43 0.0 0 0 758.03 606.25
  L 758.22 605.92
  A 1.37 1.36 44.1 0 0 758.19 604.51
  L 756.63 602.01
  A 0.13 0.12 64.7 0 0 756.50 601.96
  Q 756.41 602.04 756.29 602.12
  Z
  M 509.44 698.31
  Q 515.24 702.63 520.57 706.25
  C 542.17 720.91 568.48 729.87 594.46 727.09
  Q 602.41 726.24 611.15 723.17
  C 631.09 716.16 648.98 704.02 664.23 689.23
  Q 675.56 678.23 683.23 668.98
  Q 699.59 649.21 718.75 621.29
  A 0.64 0.62 -40.8 0 0 718.81 620.65
  L 715.78 614.11
  A 1.63 1.62 78.6 0 0 714.35 613.16
  Q 706.12 612.88 699.51 612.14
  C 681.49 610.13 662.53 610.67 643.64 614.73
  Q 632.56 617.12 623.21 621.38
  Q 611.02 626.94 604.21 631.48
  Q 592.08 639.57 583.31 647.32
  Q 575.30 654.39 567.61 661.61
  Q 550.73 677.45 531.73 687.98
  Q 525.41 691.48 513.19 696.42
  C 512.05 696.88 510.36 696.84 509.44 697.52
  A 0.49 0.49 0.0 0 0 509.44 698.31
  Z"
/>
<path d="
  M 71.79 339.97
  L 73.03 335.90
  Q 82.47 344.19 94.18 355.57
  Q 101.44 362.63 108.84 368.18
  Q 126.60 381.53 148.08 383.53
  C 161.45 384.78 173.75 382.12 185.64 376.15
  C 202.22 367.81 215.25 355.07 227.82 341.41
  A 1.10 1.10 0.0 0 0 227.96 340.10
  C 221.32 328.63 231.62 316.01 244.17 319.83
  A 0.81 0.80 -62.7 0 0 245.04 319.55
  C 262.16 297.70 277.32 274.38 289.08 249.57
  Q 294.43 238.27 294.82 237.67
  A 0.60 0.59 -56.2 0 0 294.67 236.88
  C 289.45 233.10 286.26 226.13 288.90 219.96
  Q 292.45 211.64 299.92 210.86
  C 316.53 209.12 321.96 230.55 307.48 237.69
  A 3.31 3.23 -61.2 0 1 306.43 238.01
  L 301.26 238.69
  A 1.05 1.05 0.0 0 0 300.42 239.34
  C 288.05 269.69 270.40 297.76 250.14 323.43
  A 0.67 0.66 -41.6 0 0 250.09 324.20
  Q 255.56 333.28 250.35 340.91
  C 246.31 346.84 240.47 348.60 233.78 345.25
  A 1.58 1.58 0.0 0 0 231.85 345.66
  Q 216.45 364.43 196.34 377.35
  C 176.97 389.79 153.94 393.49 131.89 386.67
  C 120.27 383.08 110.65 377.21 100.63 369.18
  Q 97.42 366.61 86.38 354.81
  Q 79.27 347.20 71.79 339.97
  Z"
/>
<path d="
  M 344.34 425.41
  L 339.14 426.29
  Q 326.69 423.49 326.72 412.12
  C 326.75 403.25 334.20 396.95 342.91 398.09
  C 350.28 399.05 354.93 405.90 354.53 413.00
  Q 353.95 423.02 344.34 425.41
  Z"
/>
<path d="
  M 0.00 639.23
  L 0.00 632.79
  Q 27.33 635.82 49.47 651.99
  Q 60.16 659.79 70.79 669.98
  Q 75.36 674.37 83.56 683.07
  C 91.61 691.62 99.04 700.69 105.56 709.35
  Q 128.95 740.44 134.90 748.10
  Q 146.23 762.72 158.99 775.74
  Q 167.86 784.80 179.06 792.53
  C 192.26 801.65 206.85 806.91 222.14 807.35
  Q 232.26 807.64 242.87 804.53
  Q 253.25 801.49 262.26 796.54
  Q 263.49 795.86 271.17 790.96
  Q 275.66 788.10 279.63 784.75
  C 292.19 774.18 303.34 762.25 313.45 749.72
  Q 318.66 743.25 330.85 725.52
  A 0.71 0.71 0.0 0 0 330.81 724.67
  Q 324.41 716.88 328.86 708.10
  C 333.22 699.48 345.36 698.73 351.74 705.15
  C 357.45 710.90 357.25 720.15 351.35 725.59
  C 347.83 728.84 341.46 729.88 336.89 728.47
  A 1.25 1.25 0.0 0 0 335.36 729.20
  Q 334.56 731.22 333.13 733.39
  Q 325.27 745.35 313.51 759.95
  C 309.05 765.49 304.40 769.98 299.98 774.99
  Q 297.94 777.30 294.24 780.71
  C 280.26 793.58 265.02 804.51 246.56 810.35
  Q 236.19 813.64 228.23 813.91
  Q 210.19 814.53 195.97 808.92
  Q 180.41 802.77 168.18 793.06
  C 159.51 786.17 150.43 777.42 142.56 767.96
  C 136.24 760.37 131.36 755.15 126.60 748.70
  Q 121.58 741.90 99.77 712.74
  Q 90.30 700.07 76.86 685.45
  Q 60.81 667.97 42.48 655.16
  Q 32.19 647.96 22.31 644.33
  Q 11.56 640.37 0.00 639.23
  Z"
/>
</g>
<g fill="#72eaf3" fill-opacity="0.741">
<path d="
  M 64.03 328.43
  L 73.03 335.90
  L 71.79 339.97
  L 66.03 334.82
  Q 65.85 331.46 64.03 328.43
  Z"
/>
<path d="
  M 344.34 425.41
  Q 341.14 436.95 342.15 450.74
  C 343.52 469.38 353.62 486.43 368.75 497.20
  L 366.98 500.06
  Q 358.06 493.88 353.15 487.60
  Q 335.20 464.67 338.30 435.24
  Q 338.77 430.79 339.14 426.29
  L 344.34 425.41
  Z"
/>
<path d="
  M 970.95 448.23
  L 971.22 452.27
  Q 940.37 436.91 906.62 445.19
  C 897.64 447.39 889.78 450.22 881.72 454.38
  Q 862.46 464.29 846.09 480.10
  C 840.68 485.33 833.43 492.73 827.49 499.79
  Q 806.59 524.58 797.42 536.91
  Q 791.57 544.80 789.04 547.31
  L 787.38 544.83
  Q 792.37 538.21 797.53 531.50
  Q 813.41 510.88 826.65 495.39
  C 848.46 469.88 877.15 446.24 911.08 440.26
  Q 929.01 437.11 946.26 439.93
  Q 958.67 441.96 970.95 448.23
  Z
  M 954.65 443.91
  A 0.21 0.21 0.0 0 0 954.73 443.50
  Q 953.99 443.22 953.64 443.29
  A 0.25 0.25 0.0 0 0 953.57 443.75
  Q 953.80 443.89 954.65 443.91
  Z"
/>
<path d="
  M 53.95 516.72
  Q 55.37 517.94 56.25 519.48
  C 42.06 529.11 25.37 535.30 7.86 534.57
  Q 10.15 532.29 10.31 530.96
  Q 18.72 530.78 27.04 528.91
  C 31.69 527.87 36.58 525.58 41.36 523.88
  Q 44.72 522.68 53.95 516.72
  Z"
/>
<path d="
  M 608.67 536.75
  Q 610.81 538.35 608.94 540.76
  Q 595.22 548.63 584.00 559.69
  Q 581.85 559.34 579.42 559.72
  Q 592.26 545.76 608.67 536.75
  Z"
/>
<path d="
  M 782.01 556.03
  Q 782.22 556.09 782.55 556.35
  Q 781.85 558.03 780.44 558.78
  A 0.43 0.43 0.0 0 1 779.85 558.23
  Q 780.47 556.78 782.01 556.03
  Z"
/>
<path d="
  M 776.42 560.50
  Q 777.05 560.65 776.93 560.98
  Q 776.76 561.42 776.36 561.13
  Q 776.08 560.85 776.42 560.50
  Z"
/>
<path d="
  M 66.72 582.97
  L 63.94 585.66
  Q 41.57 575.04 16.71 574.03
  C 18.00 572.85 20.54 573.12 22.02 572.87
  A 0.34 0.34 0.0 0 0 22.25 572.37
  Q 21.80 571.58 22.06 570.76
  Q 45.65 572.13 66.72 582.97
  Z"
/>
<path d="
  M 962.80 626.93
  L 959.96 629.79
  Q 948.30 626.02 940.78 621.97
  Q 924.54 613.22 907.45 601.07
  C 895.26 592.39 879.44 584.78 864.00 581.45
  Q 850.31 578.51 837.53 580.35
  Q 818.17 583.15 799.55 591.58
  Q 787.76 596.92 776.25 602.94
  Q 775.09 601.33 775.79 599.05
  Q 776.52 598.46 779.27 597.04
  Q 797.84 587.49 816.15 581.20
  Q 829.09 576.75 844.26 576.01
  Q 861.38 575.17 878.44 581.61
  Q 896.69 588.50 909.70 597.90
  C 911.87 599.47 914.54 600.79 916.80 602.70
  Q 917.77 603.52 919.59 604.71
  Q 932.76 613.31 935.23 614.75
  Q 948.40 622.43 962.80 626.93
  Z"
/>
<path d="
  M 1024.00 595.97
  L 1024.00 598.15
  L 1023.75 598.67
  A 0.36 0.36 0.0 0 1 1023.17 598.76
  L 1007.54 583.04
  Q 1008.55 581.02 1008.77 579.12
  C 1012.91 583.09 1016.25 587.38 1020.64 591.34
  Q 1020.70 591.39 1022.46 592.53
  Q 1024.02 593.53 1024.00 595.97
  Z"
/>
<path d="
  M 756.29 602.12
  Q 756.35 602.70 756.11 603.31
  Q 755.67 602.00 756.29 602.12
  Z"
/>
<path d="
  M 1021.55 672.77
  Q 1021.65 671.90 1020.48 671.22
  C 1020.87 671.14 1021.23 671.12 1021.61 671.12
  C 1021.21 671.11 1020.87 671.11 1020.48 671.22
  Q 1020.38 671.20 1020.29 671.18
  Q 1019.06 670.27 1017.37 670.66
  Q 1016.43 670.88 1014.74 670.49
  Q 1013.76 669.57 1013.17 668.47
  L 1023.03 668.91
  A 0.56 0.55 -2.4 0 1 1023.56 669.39
  L 1023.97 672.57
  A 0.51 0.51 0.0 0 1 1023.37 673.14
  L 1021.55 672.77
  Z"
/>
<path d="
  M 1009.46 671.65
  L 1007.45 671.62
  L 1009.46 671.65
  Z"
/>
<path d="
  M 1011.46 671.94
  L 1010.79 671.85
  Q 1011.18 671.80 1011.46 671.94
  Z"
/>
<path d="
  M 1020.21 672.65
  L 1019.04 672.61
  L 1020.21 672.65
  Z"
/>
</g>
<g fill="#6fe7eb" fill-opacity="0.553">
<path d="
  M 64.03 328.43
  Q 65.85 331.46 66.03 334.82
  Q 54.04 324.08 41.43 318.03
  Q 40.09 317.39 32.09 314.16
  Q 27.72 312.39 24.79 311.70
  Q 21.41 310.90 17.27 310.14
  Q 15.74 309.87 15.26 310.93
  A 0.25 0.25 0.0 0 1 14.81 310.93
  Q 14.07 309.24 14.62 307.81
  A 0.56 0.55 21.6 0 1 15.35 307.50
  L 16.33 307.92
  A 1.93 1.77 -29.0 0 0 16.99 308.08
  Q 22.57 308.33 25.31 308.98
  Q 28.53 309.73 37.27 312.64
  Q 37.99 312.88 39.43 313.67
  Q 40.15 314.07 40.90 314.33
  Q 42.03 314.74 42.40 314.91
  Q 54.05 320.32 64.03 328.43
  Z"
/>
<path d="
  M 954.65 443.91
  Q 953.80 443.89 953.57 443.75
  A 0.25 0.25 0.0 0 1 953.64 443.29
  Q 953.99 443.22 954.73 443.50
  A 0.21 0.21 0.0 0 1 954.65 443.91
  Z"
/>
<path d="
  M 970.95 448.23
  Q 975.86 449.42 976.64 454.22
  A 0.59 0.58 -80.1 0 1 975.78 454.83
  L 971.22 452.27
  L 970.95 448.23
  Z"
/>
<path d="
  M 366.98 500.06
  L 368.75 497.20
  L 375.19 501.73
  A 0.80 0.75 63.7 0 0 375.56 501.87
  Q 376.21 501.95 377.13 502.60
  A 0.69 0.69 0.0 0 1 377.34 503.50
  Q 377.07 504.02 375.61 504.94
  A 1.02 1.00 -52.6 0 1 374.76 505.06
  C 371.70 504.09 369.47 502.00 366.98 500.06
  Z
  M 375.30 502.44
  A 0.02 0.02 0.0 0 0 375.28 502.42
  A 0.02 0.02 0.0 0 0 375.26 502.44
  A 0.02 0.02 0.0 0 0 375.28 502.46
  A 0.02 0.02 0.0 0 0 375.30 502.44
  Z"
/>
<path d="
  M 10.31 530.96
  Q 10.15 532.29 7.86 534.57
  L 0.00 534.53
  L 0.00 532.55
  L 0.37 531.53
  A 0.73 0.72 9.3 0 1 1.04 531.06
  L 10.31 530.96
  Z"
/>
<path d="
  M 584.00 559.69
  Q 575.78 568.54 568.42 578.16
  Q 556.71 593.48 546.53 606.29
  Q 536.33 619.12 521.86 625.57
  Q 517.90 627.33 509.80 628.17
  A 0.41 0.41 0.0 0 1 509.35 627.81
  L 508.95 624.78
  A 0.12 0.12 0.0 0 1 509.06 624.64
  Q 515.47 624.39 517.40 623.73
  C 532.25 618.63 542.23 606.88 553.30 592.31
  Q 566.96 574.32 572.23 567.74
  Q 575.63 563.49 579.42 559.72
  Q 581.85 559.34 584.00 559.69
  Z"
/>
<path d="
  M 22.06 570.76
  Q 21.80 571.58 22.25 572.37
  A 0.34 0.34 0.0 0 1 22.02 572.87
  C 20.54 573.12 18.00 572.85 16.71 574.03
  L 0.00 575.37
  L 0.00 572.76
  L 0.53 571.34
  A 0.44 0.44 0.0 0 1 1.25 571.19
  Q 1.54 571.49 1.80 571.28
  Q 1.94 571.16 2.49 571.11
  Q 12.26 570.10 22.06 570.76
  Z"
/>
<path d="
  M 775.79 599.05
  Q 775.09 601.33 776.25 602.94
  L 769.38 605.33
  Q 769.60 606.16 768.75 604.96
  C 768.64 602.34 773.75 600.20 775.79 599.05
  Z"
/>
<path d="
  M 959.96 629.79
  L 962.80 626.93
  Q 980.31 631.69 993.97 631.89
  Q 1003.53 632.03 1013.14 631.77
  A 0.53 0.53 0.0 0 1 1013.50 632.70
  Q 1012.03 633.97 1009.45 634.29
  Q 984.28 637.41 959.96 629.79
  Z"
/>
<path d="
  M 1020.29 671.18
  Q 1015.91 672.10 1014.74 670.49
  Q 1016.43 670.88 1017.37 670.66
  Q 1019.06 670.27 1020.29 671.18
  Z"
/>
<path d="
  M 1020.48 671.22
  C 1020.87 671.11 1021.21 671.11 1021.61 671.12
  C 1021.23 671.12 1020.87 671.14 1020.48 671.22
  Z"
/>
</g>
</svg>
