<?xml version="1.0" encoding="UTF-8" standalone="no"?>
<!DOCTYPE svg PUBLIC "-//W3C//DTD SVG 1.1//EN" "http://www.w3.org/Graphics/SVG/1.1/DTD/svg11.dtd">
<svg xmlns="http://www.w3.org/2000/svg" version="1.1" viewBox="0.00 0.00 565.00 491.00">
<g stroke-width="2.00" fill="none" stroke-linecap="butt">
<path stroke="#95892f" vector-effect="non-scaling-stroke" d="
  M 321.50 111.21
  C 318.91 100.66 310.36 93.33 299.13 93.33
  Q 255.71 93.34 255.24 93.35
  C 243.45 93.56 235.45 100.46 232.35 111.56
  A 0.75 0.72 -88.3 0 1 231.83 112.07
  Q 216.84 116.09 202.82 124.31
  Q 193.68 129.68 182.55 140.28
  Q 172.06 150.27 165.18 159.41
  Q 143.59 188.12 137.98 223.76
  Q 136.34 234.18 135.96 244.55
  A 2.39 2.38 -15.2 0 1 134.86 246.46
  Q 126.96 251.53 124.08 259.57
  C 122.27 264.60 122.53 270.07 122.73 275.76
  C 123.16 287.86 131.79 296.43 142.16 302.18
  Q 163.31 313.91 187.44 319.96
  C 205.95 324.60 226.53 327.36 247.03 328.21
  Q 285.12 329.78 319.49 327.49
  Q 345.34 325.78 369.18 319.90
  Q 391.08 314.50 412.59 302.23
  C 420.13 297.93 427.01 291.87 430.20 283.52
  C 431.92 279.05 432.24 272.68 432.06 267.95
  Q 431.51 253.69 419.16 246.33
  A 1.59 1.56 -76.4 0 1 418.39 245.04
  Q 417.82 232.77 415.67 220.36
  C 407.66 174.13 376.48 133.31 333.28 115.74
  Q 327.52 113.39 322.70 112.37
  A 1.58 1.56 88.7 0 1 321.50 111.21"
/>
<path stroke="#95892f" vector-effect="non-scaling-stroke" d="
  M 232.84 126.13
  A 0.35 0.34 79.0 0 0 232.40 125.83
  C 200.55 135.16 174.51 162.45 160.97 192.14
  C 152.85 209.96 149.66 230.71 149.00 250.50
  C 148.79 256.58 142.73 256.68 139.37 259.66
  C 133.24 265.10 135.05 277.38 139.07 282.99
  Q 142.00 287.08 151.88 292.37
  Q 172.08 303.20 195.03 308.22
  C 226.88 315.18 261.39 316.16 295.50 315.44
  C 322.22 314.86 348.07 311.94 373.56 304.86
  Q 391.36 299.91 409.20 288.12
  C 414.60 284.55 418.06 280.19 418.64 273.95
  C 419.24 267.39 418.77 261.39 412.63 258.12
  C 408.70 256.03 404.79 254.80 404.84 250.93
  C 405.36 213.26 391.32 177.52 364.14 151.20
  C 355.17 142.51 345.72 137.53 332.91 130.65
  Q 326.93 127.43 321.86 125.51
  A 0.45 0.45 0.0 0 0 321.26 125.89
  Q 317.82 167.75 313.43 207.21
  C 312.47 215.84 299.25 214.99 300.24 204.98
  C 300.81 199.07 301.85 194.49 302.38 188.31
  Q 304.72 160.92 308.92 122.19
  C 309.63 115.70 309.12 110.65 302.78 107.70
  C 300.99 106.86 297.28 106.88 295.50 106.89
  Q 261.31 106.97 258.00 106.95
  C 252.88 106.92 249.51 107.38 246.53 111.79
  C 244.45 114.87 245.38 123.15 245.68 125.76
  Q 249.43 158.32 252.24 188.52
  Q 252.70 193.54 254.39 205.74
  C 255.33 212.55 246.17 215.84 242.27 210.46
  Q 241.19 208.97 240.71 204.43
  Q 236.34 163.38 232.84 126.13"
/>
<path stroke="#95892f" vector-effect="non-scaling-stroke" d="
  M 277.14 280.70
  C 307.61 280.76 336.75 278.97 366.29 273.84
  Q 371.35 272.97 381.74 270.97
  C 390.52 269.28 389.54 257.72 380.62 257.43
  A 3.98 3.86 39.2 0 0 379.63 257.51
  C 345.40 264.73 311.67 267.51 277.17 267.44
  C 242.67 267.37 208.96 264.45 174.75 257.10
  A 3.98 3.86 -39.0 0 0 173.76 257.02
  C 164.84 257.27 163.82 268.83 172.59 270.55
  Q 182.97 272.59 188.03 273.49
  C 217.54 278.73 246.68 280.64 277.14 280.70"
/>
</g>
<path fill="#ffd20c" d="
  M 243.01 481.19
  Q 184.24 472.31 136.95 437.83
  C 86.96 401.37 52.76 346.50 42.87 285.46
  Q 35.51 240.08 45.36 194.63
  C 61.09 122.05 110.04 61.50 177.59 30.62
  Q 228.36 7.41 286.55 9.40
  C 374.93 12.43 455.55 64.72 493.00 145.08
  C 522.57 208.54 522.16 282.28 492.79 346.27
  C 471.41 392.85 435.69 430.98 390.62 455.41
  Q 343.81 480.78 288.51 483.67
  Q 266.90 484.79 243.01 481.19
  Z
  M 321.50 111.21
  C 318.91 100.66 310.36 93.33 299.13 93.33
  Q 255.71 93.34 255.24 93.35
  C 243.45 93.56 235.45 100.46 232.35 111.56
  A 0.75 0.72 -88.3 0 1 231.83 112.07
  Q 216.84 116.09 202.82 124.31
  Q 193.68 129.68 182.55 140.28
  Q 172.06 150.27 165.18 159.41
  Q 143.59 188.12 137.98 223.76
  Q 136.34 234.18 135.96 244.55
  A 2.39 2.38 -15.2 0 1 134.86 246.46
  Q 126.96 251.53 124.08 259.57
  C 122.27 264.60 122.53 270.07 122.73 275.76
  C 123.16 287.86 131.79 296.43 142.16 302.18
  Q 163.31 313.91 187.44 319.96
  C 205.95 324.60 226.53 327.36 247.03 328.21
  Q 285.12 329.78 319.49 327.49
  Q 345.34 325.78 369.18 319.90
  Q 391.08 314.50 412.59 302.23
  C 420.13 297.93 427.01 291.87 430.20 283.52
  C 431.92 279.05 432.24 272.68 432.06 267.95
  Q 431.51 253.69 419.16 246.33
  A 1.59 1.56 -76.4 0 1 418.39 245.04
  Q 417.82 232.77 415.67 220.36
  C 407.66 174.13 376.48 133.31 333.28 115.74
  Q 327.52 113.39 322.70 112.37
  A 1.58 1.56 88.7 0 1 321.50 111.21
  Z"
/>
<path fill="#2b3f52" d="
  M 321.50 111.21
  A 1.58 1.56 88.7 0 0 322.70 112.37
  Q 327.52 113.39 333.28 115.74
  C 376.48 133.31 407.66 174.13 415.67 220.36
  Q 417.82 232.77 418.39 245.04
  A 1.59 1.56 -76.4 0 0 419.16 246.33
  Q 431.51 253.69 432.06 267.95
  C 432.24 272.68 431.92 279.05 430.20 283.52
  C 427.01 291.87 420.13 297.93 412.59 302.23
  Q 391.08 314.50 369.18 319.90
  Q 345.34 325.78 319.49 327.49
  Q 285.12 329.78 247.03 328.21
  C 226.53 327.36 205.95 324.60 187.44 319.96
  Q 163.31 313.91 142.16 302.18
  C 131.79 296.43 123.16 287.86 122.73 275.76
  C 122.53 270.07 122.27 264.60 124.08 259.57
  Q 126.96 251.53 134.86 246.46
  A 2.39 2.38 -15.2 0 0 135.96 244.55
  Q 136.34 234.18 137.98 223.76
  Q 143.59 188.12 165.18 159.41
  Q 172.06 150.27 182.55 140.28
  Q 193.68 129.68 202.82 124.31
  Q 216.84 116.09 231.83 112.07
  A 0.75 0.72 -88.3 0 0 232.35 111.56
  C 235.45 100.46 243.45 93.56 255.24 93.35
  Q 255.71 93.34 299.13 93.33
  C 310.36 93.33 318.91 100.66 321.50 111.21
  Z
  M 232.84 126.13
  A 0.35 0.34 79.0 0 0 232.40 125.83
  C 200.55 135.16 174.51 162.45 160.97 192.14
  C 152.85 209.96 149.66 230.71 149.00 250.50
  C 148.79 256.58 142.73 256.68 139.37 259.66
  C 133.24 265.10 135.05 277.38 139.07 282.99
  Q 142.00 287.08 151.88 292.37
  Q 172.08 303.20 195.03 308.22
  C 226.88 315.18 261.39 316.16 295.50 315.44
  C 322.22 314.86 348.07 311.94 373.56 304.86
  Q 391.36 299.91 409.20 288.12
  C 414.60 284.55 418.06 280.19 418.64 273.95
  C 419.24 267.39 418.77 261.39 412.63 258.12
  C 408.70 256.03 404.79 254.80 404.84 250.93
  C 405.36 213.26 391.32 177.52 364.14 151.20
  C 355.17 142.51 345.72 137.53 332.91 130.65
  Q 326.93 127.43 321.86 125.51
  A 0.45 0.45 0.0 0 0 321.26 125.89
  Q 317.82 167.75 313.43 207.21
  C 312.47 215.84 299.25 214.99 300.24 204.98
  C 300.81 199.07 301.85 194.49 302.38 188.31
  Q 304.72 160.92 308.92 122.19
  C 309.63 115.70 309.12 110.65 302.78 107.70
  C 300.99 106.86 297.28 106.88 295.50 106.89
  Q 261.31 106.97 258.00 106.95
  C 252.88 106.92 249.51 107.38 246.53 111.79
  C 244.45 114.87 245.38 123.15 245.68 125.76
  Q 249.43 158.32 252.24 188.52
  Q 252.70 193.54 254.39 205.74
  C 255.33 212.55 246.17 215.84 242.27 210.46
  Q 241.19 208.97 240.71 204.43
  Q 236.34 163.38 232.84 126.13
  Z"
/>
<path fill="#ffd20c" d="
  M 232.84 126.13
  Q 236.34 163.38 240.71 204.43
  Q 241.19 208.97 242.27 210.46
  C 246.17 215.84 255.33 212.55 254.39 205.74
  Q 252.70 193.54 252.24 188.52
  Q 249.43 158.32 245.68 125.76
  C 245.38 123.15 244.45 114.87 246.53 111.79
  C 249.51 107.38 252.88 106.92 258.00 106.95
  Q 261.31 106.97 295.50 106.89
  C 297.28 106.88 300.99 106.86 302.78 107.70
  C 309.12 110.65 309.63 115.70 308.92 122.19
  Q 304.72 160.92 302.38 188.31
  C 301.85 194.49 300.81 199.07 300.24 204.98
  C 299.25 214.99 312.47 215.84 313.43 207.21
  Q 317.82 167.75 321.26 125.89
  A 0.45 0.45 0.0 0 1 321.86 125.51
  Q 326.93 127.43 332.91 130.65
  C 345.72 137.53 355.17 142.51 364.14 151.20
  C 391.32 177.52 405.36 213.26 404.84 250.93
  C 404.79 254.80 408.70 256.03 412.63 258.12
  C 418.77 261.39 419.24 267.39 418.64 273.95
  C 418.06 280.19 414.60 284.55 409.20 288.12
  Q 391.36 299.91 373.56 304.86
  C 348.07 311.94 322.22 314.86 295.50 315.44
  C 261.39 316.16 226.88 315.18 195.03 308.22
  Q 172.08 303.20 151.88 292.37
  Q 142.00 287.08 139.07 282.99
  C 135.05 277.38 133.24 265.10 139.37 259.66
  C 142.73 256.68 148.79 256.58 149.00 250.50
  C 149.66 230.71 152.85 209.96 160.97 192.14
  C 174.51 162.45 200.55 135.16 232.40 125.83
  A 0.35 0.34 79.0 0 1 232.84 126.13
  Z
  M 277.14 280.70
  C 307.61 280.76 336.75 278.97 366.29 273.84
  Q 371.35 272.97 381.74 270.97
  C 390.52 269.28 389.54 257.72 380.62 257.43
  A 3.98 3.86 39.2 0 0 379.63 257.51
  C 345.40 264.73 311.67 267.51 277.17 267.44
  C 242.67 267.37 208.96 264.45 174.75 257.10
  A 3.98 3.86 -39.0 0 0 173.76 257.02
  C 164.84 257.27 163.82 268.83 172.59 270.55
  Q 182.97 272.59 188.03 273.49
  C 217.54 278.73 246.68 280.64 277.14 280.70
  Z"
/>
<path fill="#2b3f52" d="
  M 277.17 267.44
  C 311.67 267.51 345.40 264.73 379.63 257.51
  A 3.98 3.86 39.2 0 1 380.62 257.43
  C 389.54 257.72 390.52 269.28 381.74 270.97
  Q 371.35 272.97 366.29 273.84
  C 336.75 278.97 307.61 280.76 277.14 280.70
  C 246.68 280.64 217.54 278.73 188.03 273.49
  Q 182.97 272.59 172.59 270.55
  C 163.82 268.83 164.84 257.27 173.76 257.02
  A 3.98 3.86 -39.0 0 1 174.75 257.10
  C 208.96 264.45 242.67 267.37 277.17 267.44
  Z"
/>
</svg>
