<?xml version="1.0" encoding="UTF-8" standalone="no"?>
<!DOCTYPE svg PUBLIC "-//W3C//DTD SVG 1.1//EN" "http://www.w3.org/Graphics/SVG/1.1/DTD/svg11.dtd">
<svg xmlns="http://www.w3.org/2000/svg" version="1.1" viewBox="0.00 0.00 1024.00 1024.00">
<g fill="#f8cab3">
<path d="
  M 348.19 500.55
  A 0.32 0.32 0.0 0 0 348.56 500.99
  Q 353.62 499.66 358.88 497.61
  Q 428.28 470.64 505.39 450.65
  Q 563.80 435.51 575.25 433.01
  Q 619.22 423.38 655.61 417.40
  Q 664.72 415.90 694.05 412.52
  Q 707.76 410.94 715.00 410.78
  Q 715.92 410.76 718.21 410.28
  A 8.90 8.76 37.9 0 1 719.83 410.09
  C 744.34 409.53 770.00 408.35 792.75 409.39
  Q 794.85 409.48 796.71 409.73
  A 10.18 9.63 46.6 0 0 798.31 409.82
  C 805.01 409.70 810.91 410.66 817.44 411.17
  Q 829.19 412.11 839.80 416.50
  Q 847.24 419.58 852.05 425.47
  Q 856.98 431.50 855.94 439.60
  A 1.75 1.75 0.0 0 1 855.60 440.43
  L 853.08 443.75
  A 1.51 1.50 -69.1 0 1 851.80 444.33
  Q 832.71 443.13 825.49 442.64
  Q 810.67 441.63 778.94 441.96
  Q 772.22 442.03 765.69 442.51
  Q 759.26 442.97 752.44 443.03
  Q 747.78 443.06 745.13 443.59
  C 742.04 444.20 739.03 443.86 735.32 444.24
  Q 695.70 448.36 684.50 450.02
  Q 666.77 452.67 643.21 456.64
  Q 632.74 458.41 620.43 460.83
  C 604.12 464.04 594.34 465.62 578.46 469.19
  Q 571.31 470.81 558.37 473.64
  Q 504.63 485.43 449.74 500.98
  Q 412.26 511.59 380.22 523.49
  Q 373.03 526.16 344.41 537.31
  Q 323.89 545.31 308.56 551.00
  Q 292.31 557.03 247.79 573.26
  Q 231.20 579.31 212.75 583.03
  Q 207.68 584.06 206.54 584.09
  C 202.00 584.19 195.66 586.63 191.65 583.68
  A 2.45 2.43 32.3 0 1 190.93 580.56
  Q 192.74 577.17 195.75 574.25
  Q 203.24 566.96 209.86 561.85
  Q 261.94 521.62 316.77 487.28
  Q 367.16 455.74 415.73 427.75
  Q 455.66 404.75 476.53 392.02
  C 513.55 369.45 551.92 346.86 587.17 323.95
  Q 593.34 319.94 597.70 316.34
  C 602.32 312.53 607.94 307.73 611.65 302.43
  C 614.16 298.84 615.26 295.62 612.31 291.93
  Q 610.69 289.90 607.17 288.37
  Q 601.02 285.69 594.02 284.50
  Q 580.42 282.19 572.49 282.02
  Q 565.49 281.87 557.00 281.23
  C 552.40 280.88 547.48 281.49 543.33 281.68
  Q 539.22 281.87 530.96 282.05
  C 526.33 282.15 520.86 283.10 516.13 283.02
  Q 514.00 282.98 511.71 283.49
  C 508.41 284.23 504.53 283.71 501.28 284.53
  C 498.85 285.14 496.40 284.93 493.25 285.29
  Q 469.80 287.94 439.07 293.56
  C 394.98 301.62 352.90 311.51 311.44 324.22
  Q 282.57 333.08 279.16 334.08
  C 270.73 336.58 260.86 339.12 254.06 340.55
  Q 250.00 341.41 246.51 341.41
  A 0.96 0.87 5.7 0 1 245.55 340.34
  Q 245.71 339.67 246.62 339.12
  Q 260.31 330.68 276.70 323.20
  Q 314.60 305.93 356.53 292.77
  Q 412.95 275.08 469.50 264.98
  Q 470.60 264.79 483.45 262.59
  Q 490.67 261.36 497.43 260.51
  Q 505.40 259.50 514.37 258.47
  Q 516.36 258.24 516.72 258.24
  C 521.90 258.27 526.41 257.15 531.68 257.02
  Q 534.33 256.95 539.25 256.68
  Q 556.69 255.71 561.90 256.15
  Q 570.95 256.91 579.16 257.13
  Q 581.25 257.18 583.28 257.74
  C 584.93 258.19 586.76 257.98 588.81 258.32
  Q 599.15 260.06 601.00 260.51
  C 614.34 263.80 627.21 269.09 636.53 278.74
  C 641.63 284.01 644.70 291.16 642.75 298.61
  Q 640.08 308.87 632.37 317.93
  C 623.40 328.46 613.88 335.99 601.42 345.30
  Q 593.46 351.24 583.37 357.89
  Q 570.07 366.65 564.27 370.25
  Q 520.78 397.32 518.31 398.79
  C 499.86 409.75 487.27 417.45 468.76 427.81
  Q 444.96 441.13 427.18 450.91
  Q 424.78 452.22 397.64 467.92
  C 386.01 474.65 374.60 482.04 362.25 489.77
  Q 355.39 494.07 350.17 498.17
  Q 348.79 499.26 348.19 500.55
  Z"
/>
<path d="
  M 801.51 513.60
  Q 799.13 515.51 796.16 516.43
  C 789.02 518.66 781.23 519.94 775.19 521.44
  Q 764.48 524.11 747.69 527.66
  Q 746.56 527.90 745.03 528.15
  Q 739.70 529.00 713.36 534.55
  Q 702.29 536.89 687.81 540.46
  C 676.02 543.37 668.25 545.01 656.23 547.97
  Q 636.09 552.93 609.93 560.00
  Q 584.50 566.87 564.05 573.50
  Q 514.05 589.72 493.32 597.10
  Q 481.75 601.22 430.72 620.48
  Q 414.06 626.77 406.69 629.21
  Q 401.80 630.83 382.38 637.11
  Q 366.17 642.34 353.68 644.61
  Q 346.35 645.94 342.63 645.89
  A 1.08 1.08 0.0 0 1 342.04 643.92
  C 343.23 643.10 344.60 641.79 345.78 641.06
  Q 372.66 624.47 388.81 616.80
  C 443.58 590.79 502.16 568.17 560.61 548.60
  Q 577.84 542.84 601.45 535.94
  Q 617.94 531.11 645.76 525.04
  Q 645.95 525.00 660.52 521.96
  Q 670.92 519.80 675.33 519.14
  Q 712.77 513.54 718.26 513.14
  Q 723.18 512.78 725.11 512.52
  C 731.05 511.72 734.44 511.97 741.73 511.26
  Q 749.55 510.51 775.83 510.73
  C 782.98 510.79 790.30 511.86 796.52 512.12
  C 798.23 512.19 799.42 513.05 801.32 513.07
  A 0.30 0.30 0.0 0 1 801.51 513.60
  Z"
/>
<path d="
  M 455.45 779.97
  A 0.40 0.40 0.0 0 1 455.23 779.24
  Q 456.76 778.23 457.25 777.11
  A 3.69 3.55 -10.7 0 1 458.11 775.90
  Q 461.96 772.34 462.91 771.66
  Q 476.85 761.66 488.84 754.11
  Q 525.79 730.84 547.76 718.27
  Q 579.59 700.06 595.50 690.97
  Q 611.22 681.98 621.67 674.91
  C 627.74 670.81 634.73 665.32 637.86 658.98
  Q 639.21 656.26 637.41 653.90
  C 633.89 649.30 627.95 647.91 622.14 646.57
  Q 614.20 644.72 606.00 644.18
  Q 590.24 643.13 583.00 643.43
  C 574.98 643.77 570.36 643.85 564.01 644.38
  Q 546.09 645.87 533.82 647.06
  Q 532.04 647.24 528.77 647.78
  C 526.68 648.13 524.61 648.04 522.00 648.37
  Q 505.48 650.47 488.51 652.55
  C 479.58 653.65 469.46 655.58 461.27 656.63
  C 454.62 657.48 448.44 658.79 441.91 659.54
  Q 435.75 660.25 434.12 660.56
  Q 412.05 664.72 378.26 667.96
  Q 374.74 668.30 373.13 667.32
  A 0.50 0.50 0.0 0 1 373.02 666.57
  Q 374.36 665.04 375.58 664.61
  C 417.44 649.94 455.12 638.39 496.14 629.62
  C 504.30 627.87 516.20 626.03 525.41 624.38
  C 528.04 623.91 530.46 624.21 532.92 623.65
  Q 536.29 622.89 537.83 622.95
  C 540.07 623.05 542.17 622.33 544.44 622.17
  Q 559.23 621.08 564.16 620.71
  Q 573.59 620.00 578.81 620.04
  C 585.92 620.09 595.53 619.63 603.49 620.52
  C 608.06 621.03 612.08 620.88 616.75 621.54
  Q 628.26 623.17 633.99 624.53
  Q 641.24 626.25 649.84 629.88
  Q 659.97 634.16 665.84 641.81
  C 675.41 654.26 664.12 670.43 654.81 678.83
  Q 646.76 686.10 638.88 691.38
  C 632.57 695.62 627.55 698.99 622.07 702.17
  Q 603.02 713.23 581.86 723.84
  Q 547.38 741.13 512.45 757.18
  Q 494.60 765.38 490.25 767.00
  Q 483.16 769.65 476.00 772.97
  C 471.04 775.27 465.36 777.09 459.25 779.82
  A 1.73 1.65 31.5 0 1 458.55 779.97
  L 455.45 779.97
  Z"
/>
</g>
</svg>
