<?xml version="1.0" encoding="UTF-8" standalone="no"?>
<!DOCTYPE svg PUBLIC "-//W3C//DTD SVG 1.1//EN" "http://www.w3.org/Graphics/SVG/1.1/DTD/svg11.dtd">
<svg xmlns="http://www.w3.org/2000/svg" version="1.1" viewBox="0.00 0.00 1024.00 1024.00">
<path fill="#14304b" d="
  M 645.68 336.28
  Q 694.39 336.23 825.26 336.20
  C 837.95 336.20 848.86 337.53 859.97 342.40
  C 884.07 352.94 901.99 374.06 907.22 399.91
  Q 908.89 408.14 908.87 427.20
  Q 908.76 518.35 908.87 614.75
  Q 908.88 633.60 907.23 642.14
  Q 902.24 668.00 882.72 686.45
  Q 862.16 705.87 832.98 708.04
  C 831.08 708.18 829.49 707.95 827.87 708.11
  A 0.76 0.76 0.0 0 0 827.19 708.87
  Q 827.09 744.57 827.27 794.99
  Q 827.31 807.37 815.68 809.65
  Q 808.48 811.05 803.00 805.62
  Q 731.21 734.41 708.05 711.31
  C 705.99 709.26 704.88 708.26 702.02 708.04
  Q 701.11 707.97 692.00 708.00
  Q 675.81 708.05 487.47 708.07
  Q 465.30 708.08 458.12 706.64
  C 419.85 698.97 393.35 666.41 393.18 627.41
  Q 393.10 608.13 393.25 596.31
  A 0.54 0.54 0.0 0 0 392.71 595.76
  Q 356.46 595.94 321.26 595.70
  Q 318.87 595.68 317.44 596.23
  A 2.23 2.23 0.0 0 0 316.65 596.74
  Q 311.68 601.74 225.44 688.14
  Q 218.36 695.22 215.28 696.18
  Q 208.28 698.36 201.79 692.44
  Q 197.71 688.72 197.73 682.27
  Q 197.84 654.38 197.80 596.38
  A 0.42 0.42 0.0 0 0 197.39 595.97
  C 176.26 595.40 156.17 586.86 141.18 571.79
  Q 117.06 547.56 117.06 511.75
  Q 117.05 317.69 117.03 304.75
  Q 117.02 295.35 117.27 291.00
  Q 119.40 254.71 144.99 231.76
  Q 167.37 211.69 198.00 211.69
  Q 373.23 211.74 549.14 211.63
  Q 572.37 211.61 579.30 212.96
  C 605.63 218.09 627.90 236.06 638.40 260.66
  Q 645.04 276.19 645.01 294.01
  Q 644.96 327.97 645.02 335.63
  A 0.66 0.66 0.0 0 0 645.68 336.28
  Z
  M 224.04 651.87
  A 0.42 0.41 46.4 0 0 224.65 651.89
  C 252.43 623.99 275.61 601.58 300.20 575.19
  C 306.50 568.43 311.58 568.97 321.87 568.98
  Q 380.95 569.02 564.00 568.97
  Q 584.38 568.97 599.87 555.77
  C 612.45 545.04 618.60 530.64 618.60 514.00
  Q 618.58 431.42 618.64 304.35
  Q 618.65 285.85 617.17 279.76
  Q 613.01 262.61 599.55 251.16
  C 588.36 241.64 574.52 238.03 560.25 238.07
  C 538.42 238.13 520.85 238.47 502.89 238.46
  Q 235.08 238.38 201.51 238.50
  C 174.73 238.60 151.08 255.44 144.74 281.54
  Q 143.28 287.57 143.30 306.59
  Q 143.47 468.68 143.29 504.92
  Q 143.21 521.27 144.83 527.52
  C 150.17 548.15 165.57 562.59 186.35 567.63
  C 193.60 569.39 202.07 569.08 208.75 569.11
  C 215.48 569.14 220.95 571.02 223.28 577.79
  Q 224.06 580.05 224.06 586.25
  Q 224.05 602.71 223.90 651.68
  A 0.16 0.08 -86.1 0 0 223.96 651.82
  Q 224.02 651.85 224.04 651.87
  Z
  M 801.00 766.98
  A 0.21 0.21 0.0 0 0 801.17 766.77
  Q 801.23 697.61 801.24 695.75
  C 801.24 689.04 805.89 682.32 813.00 682.18
  Q 831.31 681.80 832.50 681.72
  C 856.49 679.95 875.50 662.50 881.03 639.54
  Q 882.48 633.50 882.42 619.34
  Q 882.30 591.05 882.37 419.43
  Q 882.37 415.62 882.12 411.57
  Q 881.75 405.69 881.29 403.76
  C 875.60 379.97 855.09 363.47 830.49 363.37
  Q 805.17 363.26 645.38 363.33
  A 0.41 0.40 90.0 0 0 644.98 363.74
  Q 645.00 490.06 645.04 496.93
  Q 645.19 521.66 643.95 528.51
  C 637.87 562.37 611.56 587.81 578.26 594.42
  Q 569.99 596.06 547.17 595.85
  Q 534.00 595.72 419.56 595.81
  A 0.58 0.58 0.0 0 0 418.99 596.39
  Q 419.01 603.66 419.04 615.71
  C 419.07 629.74 419.14 639.08 423.69 649.29
  C 432.96 670.05 452.78 681.95 475.50 681.97
  Q 576.47 682.04 654.75 682.02
  Q 694.23 682.00 698.69 681.97
  C 707.98 681.89 713.91 681.39 719.61 686.90
  Q 739.87 706.48 800.54 766.87
  A 0.41 0.32 -7.0 0 0 800.69 766.96
  Q 800.85 767.00 801.00 766.98
  Z"
/>
<path fill="#14304b" d="
  M 345.08 465.42
  Q 345.33 465.49 345.63 465.08
  Q 397.39 393.37 446.82 324.56
  Q 449.44 320.91 452.18 317.21
  Q 455.74 312.38 458.59 311.20
  Q 464.19 308.87 469.53 310.99
  C 476.04 313.59 479.71 321.73 476.91 328.37
  Q 476.58 329.14 472.17 335.27
  Q 416.93 412.01 358.64 493.63
  Q 356.51 496.61 353.67 498.51
  C 348.41 502.03 341.26 501.03 337.11 496.40
  Q 330.34 488.85 299.56 453.43
  Q 287.81 439.92 268.38 418.29
  Q 262.36 411.59 261.55 408.72
  C 259.08 399.96 265.94 391.16 275.28 392.00
  Q 281.19 392.52 285.22 397.09
  Q 325.41 442.62 344.49 464.99
  Q 344.79 465.33 345.08 465.42
  Z"
/>
</svg>
