<?xml version="1.0" encoding="UTF-8" standalone="no"?>
<!DOCTYPE svg PUBLIC "-//W3C//DTD SVG 1.1//EN" "http://www.w3.org/Graphics/SVG/1.1/DTD/svg11.dtd">
<svg xmlns="http://www.w3.org/2000/svg" version="1.1" viewBox="0.00 0.00 1024.00 1024.00">
<path fill="#0b2a46" d="
  M 321.00 355.68
  A 0.71 0.70 -0.0 0 0 320.29 354.98
  L 243.12 354.98
  A 1.46 1.44 9.2 0 0 241.74 355.96
  Q 239.02 363.91 234.24 370.77
  C 223.70 385.91 202.73 394.30 185.05 391.13
  Q 168.11 388.10 156.44 376.69
  C 140.38 361.00 137.45 334.08 149.46 314.49
  Q 159.63 297.92 179.07 291.90
  A 1.12 1.12 0.0 0 0 179.85 290.83
  Q 179.69 247.94 179.85 214.02
  Q 179.87 208.92 181.92 200.29
  Q 183.72 192.71 186.65 187.30
  C 197.06 168.09 215.28 156.60 236.77 154.37
  Q 241.25 153.91 258.24 153.91
  Q 642.06 153.93 780.75 153.92
  Q 788.25 153.92 796.82 155.96
  C 825.88 162.87 844.43 187.64 844.47 217.51
  Q 844.61 315.56 844.49 449.64
  A 0.71 0.71 0.0 0 0 845.02 450.34
  C 853.08 452.56 859.03 455.21 865.59 460.94
  Q 881.48 474.84 882.43 496.25
  C 883.36 517.32 871.77 536.81 852.49 545.21
  C 850.13 546.23 847.45 547.08 845.16 547.86
  A 0.94 0.93 -9.7 0 0 844.53 548.74
  Q 844.51 620.07 844.57 791.05
  Q 844.58 809.72 843.02 816.86
  C 839.68 832.27 830.84 846.43 817.60 855.11
  Q 800.93 866.04 779.50 866.03
  Q 603.02 865.98 251.74 866.02
  Q 234.61 866.02 227.89 864.56
  Q 205.20 859.61 191.33 840.75
  C 181.07 826.81 179.67 811.80 179.72 795.00
  Q 179.86 747.09 179.76 718.50
  A 0.46 0.45 8.8 0 0 179.44 718.07
  Q 155.39 710.92 145.61 687.33
  C 138.62 670.47 142.52 648.54 154.60 634.90
  C 167.29 620.57 186.70 615.22 205.24 619.55
  Q 221.45 623.33 232.22 636.58
  Q 239.59 645.65 241.67 656.07
  A 1.17 1.17 0.0 0 0 242.82 657.01
  L 320.01 657.01
  A 0.99 0.99 0.0 0 0 321.00 656.02
  L 321.00 355.68
  Z
  M 242.12 682.96
  C 236.86 700.19 223.76 713.35 206.17 717.88
  A 0.96 0.95 83.3 0 0 205.46 718.79
  Q 205.45 731.81 205.47 799.93
  C 205.48 808.31 206.56 814.81 210.42 821.33
  Q 221.37 839.81 243.50 839.81
  Q 637.72 839.75 678.10 839.85
  A 0.79 0.79 0.0 0 0 678.89 839.06
  Q 678.97 783.41 678.88 504.68
  C 678.88 496.81 679.37 492.36 685.48 488.21
  Q 688.82 485.94 693.26 485.94
  Q 712.26 485.96 778.76 486.00
  Q 780.86 486.00 782.26 485.68
  A 0.86 0.86 0.0 0 0 782.89 485.06
  C 787.34 467.94 800.75 455.61 817.38 450.65
  A 1.06 1.05 -7.7 0 0 818.14 449.67
  Q 818.26 445.17 818.26 441.00
  Q 818.17 345.21 818.26 220.50
  C 818.27 215.75 818.09 209.36 816.34 204.74
  C 812.05 193.45 802.52 184.01 790.45 181.23
  Q 786.73 180.38 784.25 180.38
  Q 247.88 180.38 247.50 180.37
  Q 238.28 180.21 233.58 181.36
  C 221.13 184.39 211.25 193.60 207.34 205.80
  C 205.90 210.29 205.58 215.74 205.48 220.75
  Q 205.42 223.61 205.52 291.25
  A 0.49 0.49 0.0 0 0 205.90 291.73
  C 221.09 295.28 234.39 306.10 240.05 320.70
  Q 241.63 324.77 242.80 329.08
  A 0.60 0.60 0.0 0 0 243.38 329.52
  Q 289.97 329.57 327.69 329.52
  C 330.02 329.52 334.82 329.21 336.91 330.08
  Q 346.73 334.20 346.72 345.72
  Q 346.60 591.48 346.77 662.45
  Q 346.79 672.20 345.35 674.86
  Q 342.30 680.46 335.18 682.44
  A 4.32 4.26 -52.5 0 1 334.02 682.60
  L 242.61 682.60
  A 0.51 0.51 0.0 0 0 242.12 682.96
  Z
  M 217.05 341.17
  A 23.97 23.97 0.0 0 0 193.08 317.20
  A 23.97 23.97 0.0 0 0 169.11 341.17
  A 23.97 23.97 0.0 0 0 193.08 365.14
  A 23.97 23.97 0.0 0 0 217.05 341.17
  Z
  M 808.0010 497.3826
  A 24.08 23.83 -175.6 0 0 830.1818 522.9898
  A 24.08 23.83 -175.6 0 0 856.0190 501.0774
  A 24.08 23.83 -175.6 0 0 833.8382 475.4702
  A 24.08 23.83 -175.6 0 0 808.0010 497.3826
  Z
  M 705.16 512.69
  L 705.16 839.31
  A 0.50 0.49 90.0 0 0 705.65 839.81
  Q 742.24 839.76 779.51 839.83
  Q 805.19 839.88 815.33 817.99
  C 817.87 812.50 818.31 806.95 818.29 800.75
  Q 818.17 754.04 818.23 547.80
  A 0.31 0.30 -82.8 0 0 818.01 547.50
  Q 790.81 539.49 782.80 512.82
  A 1.18 1.18 0.0 0 0 781.67 511.98
  L 705.87 511.98
  A 0.71 0.71 0.0 0 0 705.16 512.69
  Z
  M 169.4926 664.1972
  A 24.04 23.80 -168.5 0 0 188.3050 692.3122
  A 24.04 23.80 -168.5 0 0 216.6074 673.7828
  A 24.04 23.80 -168.5 0 0 197.7950 645.6678
  A 24.04 23.80 -168.5 0 0 169.4926 664.1972
  Z"
/>
<path fill="#0b2a46" d="
  M 501.02 511.80
  A 0.67 0.67 0.0 0 0 500.36 511.00
  Q 447.39 510.93 404.33 511.02
  C 394.12 511.05 388.41 503.89 389.46 494.11
  Q 389.81 490.85 392.94 486.23
  C 400.08 475.68 405.57 468.54 412.66 457.94
  Q 419.25 448.08 424.08 441.22
  Q 449.08 405.66 477.95 362.43
  Q 492.05 341.31 524.69 295.36
  C 530.28 287.48 537.17 277.09 540.81 271.87
  C 544.81 266.15 548.57 263.21 555.50 262.88
  C 563.93 262.48 568.30 268.86 568.79 276.43
  Q 568.95 279.04 567.03 286.08
  Q 560.45 310.15 545.78 361.94
  Q 541.14 378.35 537.98 390.64
  Q 532.53 411.92 530.35 419.34
  A 0.31 0.31 0.0 0 0 530.65 419.74
  Q 569.66 419.72 575.74 419.79
  Q 580.83 419.84 602.24 419.28
  Q 618.14 418.86 628.74 418.93
  C 642.45 419.02 644.37 433.01 638.08 442.35
  Q 599.41 499.86 536.94 592.29
  C 520.72 616.28 504.45 638.85 489.56 661.54
  Q 486.04 666.92 480.71 668.61
  C 472.82 671.11 464.67 666.26 463.27 658.05
  Q 462.66 654.40 464.63 647.83
  Q 468.11 636.26 471.52 624.05
  Q 489.32 560.27 496.33 532.40
  Q 499.48 519.83 501.02 511.80
  Z
  M 508.65 588.37
  A 0.31 0.31 0.0 0 0 509.22 588.61
  Q 526.85 560.99 543.46 536.59
  C 565.54 504.15 589.69 467.83 605.32 444.77
  A 0.40 0.40 0.0 0 0 604.99 444.14
  Q 583.99 444.23 567.01 444.21
  C 564.70 444.20 561.97 444.69 560.00 444.68
  Q 541.12 444.54 537.01 444.71
  Q 522.56 445.30 515.71 444.76
  C 503.57 443.81 499.58 435.22 502.03 424.36
  Q 502.93 420.35 503.83 417.07
  Q 512.42 385.70 525.68 340.19
  Q 525.82 339.71 525.74 339.45
  A 0.33 0.33 0.0 0 0 525.15 339.36
  L 426.27 485.26
  A 0.44 0.44 0.0 0 0 426.63 485.95
  Q 468.61 486.14 514.72 485.88
  Q 527.31 485.81 530.48 498.02
  C 531.18 500.72 530.71 503.21 529.96 505.99
  Q 520.66 540.65 508.65 588.37
  Z"
/>
</svg>
