<?xml version="1.0" encoding="UTF-8" standalone="no"?>
<!DOCTYPE svg PUBLIC "-//W3C//DTD SVG 1.1//EN" "http://www.w3.org/Graphics/SVG/1.1/DTD/svg11.dtd">
<svg xmlns="http://www.w3.org/2000/svg" version="1.1" viewBox="0.00 0.00 1024.00 1024.00">
<g fill="#214874">
<path d="
  M 276.97 647.37
  Q 277.39 644.62 275.81 641.94
  Q 264.52 622.81 258.51 602.59
  Q 254.52 589.16 254.40 588.85
  Q 252.37 583.69 246.63 583.34
  C 235.90 582.68 226.09 581.57 215.96 580.70
  Q 207.01 579.92 199.11 577.85
  C 190.32 575.54 182.95 566.59 181.36 557.94
  Q 180.67 554.14 180.67 547.25
  Q 180.64 492.01 180.72 472.75
  C 180.78 460.89 185.12 450.39 196.44 445.27
  Q 198.65 444.27 203.65 443.70
  Q 230.16 440.69 239.50 439.95
  Q 244.40 439.57 249.84 438.63
  C 253.62 437.98 255.00 435.27 256.44 431.20
  Q 263.48 411.29 268.04 401.77
  Q 273.89 389.53 276.71 383.21
  C 279.00 378.07 276.23 374.80 272.52 369.84
  Q 262.62 356.57 249.47 339.56
  C 243.91 332.37 241.83 323.94 245.93 315.93
  Q 248.28 311.33 251.97 306.95
  Q 259.73 297.73 270.44 286.95
  Q 271.15 286.23 302.97 254.47
  Q 306.19 251.25 312.07 246.00
  C 319.34 239.51 325.87 236.88 334.85 239.95
  A 5.18 5.11 71.9 0 1 336.05 240.57
  Q 340.63 243.76 341.97 244.91
  Q 363.03 262.95 377.51 274.78
  Q 381.45 278.00 385.95 275.46
  Q 410.67 261.48 437.30 254.61
  C 441.64 253.48 442.90 250.85 443.43 246.22
  Q 444.94 233.06 445.00 230.50
  C 445.13 224.01 446.03 218.96 446.00 213.34
  C 445.95 203.75 447.41 194.56 454.23 187.27
  Q 460.71 180.34 469.04 179.22
  C 473.50 178.63 476.28 178.09 480.34 178.09
  Q 502.28 178.06 543.25 178.07
  Q 550.06 178.07 554.26 178.96
  Q 569.30 182.12 575.60 195.88
  Q 577.03 199.00 577.59 204.82
  Q 578.11 210.25 580.09 237.30
  C 580.26 239.67 581.06 242.54 580.97 245.08
  C 580.90 246.79 581.61 248.52 582.27 250.50
  C 582.99 252.64 585.14 253.85 587.38 254.47
  Q 606.29 259.69 625.79 267.72
  C 630.46 269.64 633.48 273.71 633.34 278.80
  C 633.12 286.97 625.36 292.31 617.75 289.23
  Q 604.60 283.90 599.35 282.18
  Q 598.53 281.91 575.50 275.06
  Q 569.51 273.27 564.34 266.40
  Q 560.19 260.86 558.96 251.01
  Q 557.80 241.60 557.41 235.95
  Q 556.33 220.30 555.83 214.77
  Q 555.50 211.20 554.56 207.69
  C 553.12 202.35 547.25 201.96 542.50 201.96
  Q 505.46 201.95 487.50 201.98
  C 480.13 201.99 473.22 201.05 469.57 207.07
  A 2.82 2.76 -23.8 0 0 469.21 207.97
  C 468.83 209.93 468.22 213.16 468.11 216.37
  Q 467.89 222.94 467.06 234.25
  Q 466.23 245.53 465.63 250.88
  C 464.52 260.72 461.55 266.83 454.09 272.32
  Q 450.90 274.67 443.48 276.69
  C 433.91 279.29 426.96 281.20 419.10 284.42
  C 409.15 288.48 399.68 293.48 390.28 298.81
  Q 385.46 301.54 381.89 301.70
  Q 376.74 301.93 372.38 299.55
  Q 368.73 297.56 364.05 293.48
  Q 339.11 271.73 339.07 271.69
  Q 335.17 268.21 330.67 265.21
  C 327.63 263.18 324.03 265.64 321.51 268.00
  Q 319.63 269.77 300.81 288.07
  C 290.08 298.50 280.15 309.07 269.26 320.55
  C 264.93 325.11 267.81 327.63 271.25 331.89
  Q 280.87 343.75 297.06 366.08
  Q 304.98 377.00 299.18 388.91
  Q 287.87 412.13 285.12 419.12
  Q 282.70 425.28 275.04 446.51
  Q 273.97 449.46 270.52 453.03
  Q 263.30 460.49 252.47 461.80
  Q 249.24 462.19 246.08 462.61
  C 242.69 463.06 239.66 462.76 236.64 463.26
  Q 233.93 463.70 232.90 463.74
  Q 228.57 463.90 212.59 465.31
  Q 203.51 466.11 203.48 474.99
  Q 203.35 503.96 203.47 545.67
  C 203.49 552.45 204.98 555.34 211.65 556.03
  Q 218.95 556.78 238.25 558.55
  Q 244.85 559.15 250.15 559.14
  A 3.07 2.86 47.0 0 1 250.57 559.17
  L 257.01 560.24
  A 1.10 1.05 -28.0 0 1 257.26 560.31
  Q 271.19 565.56 274.83 579.61
  C 278.29 593.01 282.45 606.78 288.65 619.37
  Q 294.22 630.68 297.46 636.52
  C 301.23 643.31 302.30 648.38 298.85 654.87
  Q 295.75 660.73 291.35 665.85
  Q 280.05 679.00 270.24 691.24
  Q 270.04 691.49 267.64 694.96
  A 2.96 2.95 69.1 0 0 267.18 695.99
  Q 266.26 700.09 269.15 703.36
  Q 277.87 713.25 288.53 723.97
  Q 306.38 741.93 326.17 761.58
  C 331.65 767.02 331.50 775.64 324.53 779.80
  Q 321.01 781.91 316.41 780.34
  Q 312.62 779.04 308.63 775.10
  Q 270.73 737.70 262.97 729.28
  C 255.50 721.18 249.44 716.01 245.65 707.15
  C 242.11 698.88 244.24 690.47 249.30 683.29
  Q 260.89 666.86 274.49 651.73
  Q 274.88 651.30 276.67 648.24
  A 2.60 2.53 -26.8 0 0 276.97 647.37
  Z"
/>
<path d="
  M 610.34 463.94
  C 613.83 464.02 616.96 463.64 620.91 463.63
  Q 664.08 463.47 686.24 462.92
  Q 692.32 462.77 695.62 466.61
  C 701.43 473.36 698.32 481.13 692.56 486.56
  Q 661.84 515.55 638.95 537.69
  Q 603.22 572.26 585.50 589.25
  Q 561.14 612.62 560.23 613.48
  Q 505.93 664.88 487.96 681.96
  Q 487.73 682.18 486.93 682.94
  Q 429.99 736.67 422.60 743.59
  Q 395.61 768.85 355.45 806.70
  Q 354.17 807.91 350.80 810.48
  A 3.56 3.47 -74.8 0 1 350.07 810.91
  C 346.11 812.58 339.71 811.71 336.81 808.06
  C 333.55 803.97 334.61 798.36 337.64 794.38
  Q 345.36 784.23 352.20 773.18
  Q 379.89 728.45 384.34 721.10
  C 416.24 668.49 448.26 617.28 483.78 560.77
  Q 485.16 558.56 491.31 549.18
  A 0.73 0.73 0.0 0 0 490.70 548.05
  Q 434.80 547.84 406.40 548.11
  Q 401.57 548.15 399.79 547.37
  C 395.35 545.39 392.72 540.98 393.23 536.01
  C 393.70 531.51 396.34 528.88 399.67 525.49
  Q 403.22 521.89 403.48 521.64
  Q 417.93 508.00 432.00 494.99
  Q 468.36 461.35 502.66 429.68
  Q 534.34 400.42 612.54 327.79
  Q 663.33 280.63 700.00 245.69
  C 703.91 241.97 708.55 238.19 712.21 234.13
  C 713.57 232.62 716.61 229.70 718.31 228.98
  Q 724.41 226.38 728.92 229.54
  Q 733.30 232.62 733.64 238.00
  Q 733.82 240.90 730.43 247.43
  Q 726.99 254.08 715.18 275.42
  Q 680.12 338.78 637.07 415.95
  C 630.51 427.69 619.53 446.33 610.08 463.49
  A 0.31 0.30 -75.4 0 0 610.34 463.94
  Z
  M 401.56 733.76
  Q 402.15 733.44 405.34 729.85
  Q 407.01 727.98 409.05 726.04
  Q 487.62 651.31 505.83 634.08
  Q 514.27 626.09 519.41 621.32
  Q 527.34 613.96 532.96 608.53
  Q 557.30 585.00 596.54 547.53
  Q 625.78 519.61 649.45 497.20
  Q 654.09 492.80 659.35 488.14
  A 0.55 0.54 -66.0 0 0 658.99 487.19
  Q 626.90 487.39 594.00 487.34
  C 585.91 487.33 580.32 482.19 580.91 473.93
  A 4.69 4.62 57.8 0 1 581.18 472.69
  Q 583.14 467.33 584.29 465.28
  Q 597.06 442.54 610.51 418.47
  Q 661.65 326.95 673.23 307.15
  Q 676.77 301.10 680.20 294.72
  A 0.34 0.34 0.0 0 0 679.66 294.33
  Q 674.20 300.01 668.10 305.61
  Q 664.38 309.02 635.93 335.93
  Q 607.32 362.99 590.30 378.81
  Q 540.33 425.25 519.04 445.05
  Q 451.81 507.59 440.70 517.96
  C 437.95 520.53 434.65 522.86 432.72 525.02
  A 0.55 0.55 0.0 0 0 433.26 525.92
  L 434.71 525.57
  A 2.05 2.03 37.2 0 1 435.24 525.50
  Q 504.84 525.47 506.25 525.49
  C 513.46 525.59 518.77 526.42 521.55 533.19
  C 522.83 536.30 522.17 540.92 520.47 543.74
  Q 512.69 556.71 501.54 574.10
  Q 494.02 585.83 482.44 604.36
  Q 433.27 683.05 422.32 700.59
  C 417.37 708.52 413.06 715.29 408.30 722.05
  Q 405.47 726.08 403.85 729.50
  A 0.36 0.35 -17.4 0 1 403.79 729.61
  L 401.29 733.50
  A 0.19 0.19 0.0 0 0 401.56 733.76
  Z"
/>
<path d="
  M 567.96 346.01
  C 566.45 351.27 562.15 353.86 556.82 353.84
  A 4.92 4.73 50.5 0 1 555.71 353.71
  Q 519.74 345.21 483.28 350.19
  C 446.14 355.27 412.10 374.39 387.10 402.61
  Q 357.18 436.39 350.00 481.21
  C 348.91 488.00 348.14 493.17 347.96 499.12
  Q 347.35 519.31 348.21 528.42
  Q 348.79 534.58 350.67 544.67
  Q 352.27 553.29 354.62 560.58
  Q 369.34 606.28 407.19 636.79
  C 410.58 639.52 412.45 642.24 412.53 646.70
  Q 412.63 652.39 407.19 655.99
  C 401.57 659.70 397.46 657.78 392.31 653.73
  Q 357.85 626.64 340.47 587.08
  Q 330.16 563.61 326.53 537.15
  Q 326.04 533.58 325.97 531.07
  C 325.89 528.45 325.21 525.84 325.14 522.96
  Q 324.89 512.82 325.04 503.91
  Q 325.11 500.00 325.60 497.09
  C 326.10 494.19 325.93 491.23 326.35 488.00
  Q 329.60 463.13 337.43 442.65
  Q 347.98 415.04 367.03 392.15
  Q 384.36 371.31 406.62 356.26
  Q 428.60 341.40 453.00 333.74
  Q 460.11 331.51 469.27 329.46
  Q 477.39 327.64 485.87 326.70
  Q 522.10 322.68 558.29 331.00
  C 565.74 332.72 570.24 338.01 567.96 346.01
  Z"
/>
<path d="
  M 771.60 437.79
  C 772.54 438.16 774.86 438.75 776.16 438.92
  Q 784.38 439.99 789.75 440.48
  Q 804.08 441.79 815.01 442.90
  Q 822.18 443.62 825.88 445.09
  Q 835.23 448.80 839.36 457.11
  Q 842.82 464.05 842.87 472.75
  Q 843.00 492.43 842.89 546.64
  Q 842.88 550.81 842.55 552.34
  C 842.07 554.55 842.09 557.23 841.25 559.85
  Q 835.72 577.12 816.28 579.53
  Q 795.37 582.12 776.98 583.05
  Q 770.82 583.36 769.15 588.87
  Q 768.42 591.26 765.89 600.43
  C 761.95 614.73 755.51 628.55 747.94 641.46
  Q 745.39 645.81 748.05 649.45
  Q 750.03 652.15 753.39 656.15
  Q 764.99 669.95 775.54 684.73
  C 780.47 691.65 782.15 699.39 778.59 707.24
  Q 777.24 710.22 773.09 714.66
  Q 762.14 726.35 761.50 727.00
  Q 738.69 749.90 715.78 773.28
  Q 713.62 775.48 710.37 778.38
  Q 700.92 786.82 688.84 781.66
  Q 686.63 780.71 680.82 775.92
  Q 662.77 761.04 647.02 747.74
  C 643.50 744.77 640.75 745.62 636.77 747.76
  Q 621.51 755.99 612.93 759.40
  Q 600.58 764.30 589.63 767.39
  Q 588.26 767.78 584.89 769.23
  A 3.19 3.16 -81.8 0 0 583.66 770.16
  Q 582.00 772.23 581.34 774.85
  Q 580.66 777.56 580.23 782.99
  Q 578.83 800.74 578.09 813.60
  Q 577.61 822.03 575.97 826.24
  Q 571.30 838.20 558.54 842.62
  Q 554.33 844.08 548.29 843.97
  Q 542.48 843.86 475.05 843.97
  Q 468.42 843.98 464.40 842.62
  Q 449.95 837.71 446.42 822.13
  Q 445.62 818.59 444.90 808.22
  Q 444.66 804.76 444.37 802.86
  C 444.02 800.47 444.15 797.83 443.91 795.73
  Q 443.00 787.53 442.24 781.09
  C 441.53 775.05 440.14 770.86 437.78 765.47
  Q 437.07 763.85 436.41 760.68
  C 435.30 755.39 439.83 750.83 444.72 749.99
  C 453.04 748.56 459.58 755.62 462.01 763.03
  C 462.76 765.29 463.61 769.03 463.92 771.86
  Q 465.62 787.47 465.70 788.76
  Q 466.16 796.13 466.31 797.09
  C 467.13 802.20 466.84 808.51 468.13 813.77
  Q 468.92 817.04 472.33 818.75
  Q 474.04 819.61 478.90 819.56
  Q 498.73 819.37 543.48 819.44
  Q 546.26 819.45 551.02 818.82
  A 1.86 1.81 21.1 0 0 551.91 818.44
  Q 554.24 816.57 554.56 815.30
  C 555.14 813.07 555.73 810.61 555.91 808.19
  Q 558.12 778.69 559.39 768.61
  Q 560.69 758.36 568.90 751.68
  Q 572.09 749.08 579.57 746.87
  C 589.35 743.96 597.12 741.66 605.11 738.34
  Q 617.47 733.19 633.83 724.36
  Q 641.07 720.45 649.10 722.61
  Q 653.03 723.67 659.97 729.38
  Q 676.92 743.32 688.81 753.43
  C 691.16 755.43 692.22 756.25 693.96 757.60
  Q 697.41 760.27 700.59 757.07
  Q 741.93 715.41 751.40 706.15
  Q 754.98 702.66 756.61 698.88
  C 757.80 696.12 753.74 691.54 751.99 689.26
  Q 741.35 675.34 730.28 661.95
  Q 729.14 660.57 726.72 656.91
  Q 724.65 653.80 724.03 651.58
  Q 721.97 644.17 725.55 637.56
  Q 734.06 621.89 738.91 609.92
  Q 744.55 596.00 748.50 579.29
  Q 751.73 565.65 763.97 560.81
  Q 767.97 559.22 779.19 558.72
  Q 793.93 558.07 812.85 555.59
  Q 816.19 555.16 818.47 552.00
  A 2.35 2.22 -23.5 0 0 818.87 551.06
  Q 819.55 547.30 819.56 542.75
  Q 819.71 489.58 819.59 475.23
  Q 819.55 471.36 817.76 468.51
  C 816.01 465.74 810.19 465.28 807.24 465.04
  Q 779.10 462.77 772.27 461.95
  Q 765.47 461.13 758.92 457.38
  C 751.51 453.13 748.83 445.91 746.15 437.66
  Q 743.08 428.22 740.15 421.37
  Q 728.53 394.28 713.15 369.36
  C 709.72 363.79 708.57 357.65 713.75 352.82
  A 3.21 3.13 10.2 0 1 714.61 352.24
  Q 721.83 348.78 728.32 353.10
  C 730.66 354.66 732.56 358.28 734.13 360.93
  Q 750.15 387.90 761.97 416.11
  C 764.41 421.93 766.54 428.22 768.12 433.13
  Q 768.99 435.85 770.74 437.29
  A 3.12 3.10 75.0 0 0 771.60 437.79
  Z"
/>
<path d="
  M 686.72 518.08
  C 695.13 516.73 701.74 522.39 700.41 531.27
  Q 698.72 542.61 697.41 547.72
  C 691.19 572.02 681.87 595.08 668.19 615.68
  Q 660.75 626.87 650.38 638.06
  Q 606.24 685.67 540.37 696.82
  Q 533.86 697.92 523.78 698.74
  Q 517.80 699.23 514.96 698.88
  A 4.51 4.26 56.9 0 1 514.00 698.65
  Q 507.14 696.20 506.06 690.05
  C 504.84 683.06 508.74 677.18 515.89 676.43
  Q 537.39 674.19 552.00 670.96
  Q 567.26 667.60 584.09 659.58
  Q 635.76 634.98 660.88 584.38
  Q 674.10 557.75 677.82 529.72
  C 678.55 524.23 680.94 519.01 686.72 518.08
  Z"
/>
</g>
</svg>
