<?xml version="1.0" encoding="UTF-8" standalone="no"?>
<!DOCTYPE svg PUBLIC "-//W3C//DTD SVG 1.1//EN" "http://www.w3.org/Graphics/SVG/1.1/DTD/svg11.dtd">
<svg xmlns="http://www.w3.org/2000/svg" version="1.1" viewBox="0.00 0.00 1024.00 1024.00">
<path fill="#132d4a" d="
  M 505.3315 181.2504
  A 123.31 123.01 -93.1 0 1 634.8300 297.7278
  A 123.31 123.01 -93.1 0 1 518.6685 427.5096
  A 123.31 123.01 -93.1 0 1 389.1700 311.0322
  A 123.31 123.01 -93.1 0 1 505.3315 181.2504
  Z
  M 502.4322 209.0538
  A 95.83 95.65 -95.7 0 0 416.7729 313.9099
  A 95.83 95.65 -95.7 0 0 521.4678 399.7662
  A 95.83 95.65 -95.7 0 0 607.1271 294.9101
  A 95.83 95.65 -95.7 0 0 502.4322 209.0538
  Z"
/>
<path fill="#132d4a" d="
  M 322.33 394.54
  A 0.26 0.26 0.0 0 0 322.39 395.02
  Q 349.87 401.22 373.23 417.79
  C 377.98 421.16 385.08 427.19 387.56 432.91
  C 389.78 438.02 388.41 444.45 384.04 448.16
  Q 379.80 451.75 372.95 451.10
  Q 370.43 450.86 369.40 449.86
  Q 357.69 438.56 345.52 431.54
  C 334.00 424.90 321.33 421.56 307.01 419.08
  C 274.09 413.39 239.44 418.11 209.75 432.65
  Q 197.83 438.49 187.99 448.25
  Q 176.17 459.97 172.32 476.87
  Q 170.86 483.27 170.94 505.23
  Q 171.03 531.13 171.12 536.43
  Q 171.20 541.63 176.51 541.60
  Q 219.50 541.40 273.86 541.78
  A 1.18 1.17 12.1 0 0 274.95 541.08
  C 293.76 498.56 334.21 476.19 376.88 463.91
  Q 409.28 454.59 429.44 448.43
  Q 435.68 446.52 442.83 445.56
  Q 449.06 444.72 454.46 447.51
  Q 464.48 452.69 474.28 456.47
  C 498.53 465.83 524.57 465.44 548.84 456.57
  Q 557.09 453.56 570.14 447.40
  Q 577.75 443.81 586.69 446.56
  Q 610.50 453.86 648.95 464.80
  Q 656.04 466.82 672.18 473.11
  Q 689.85 479.99 705.51 490.47
  Q 734.31 509.74 748.49 540.98
  A 1.24 1.24 0.0 0 0 749.57 541.70
  C 759.45 541.98 770.35 541.53 779.15 541.53
  Q 839.46 541.58 847.37 541.61
  C 852.86 541.63 853.28 538.07 853.28 533.26
  Q 853.33 504.84 853.34 504.15
  Q 853.54 483.28 852.13 476.95
  C 844.59 442.97 808.17 426.15 777.45 420.07
  Q 741.58 412.97 706.83 421.48
  C 691.73 425.17 678.54 431.25 666.80 440.58
  Q 659.06 446.73 655.66 449.74
  A 3.63 3.54 16.9 0 1 654.08 450.56
  C 637.57 454.55 629.51 436.30 641.87 425.59
  Q 668.03 402.93 702.05 395.35
  A 0.32 0.32 0.0 0 0 702.15 394.76
  Q 694.79 390.08 688.71 383.55
  C 662.23 355.09 657.30 312.47 679.53 280.07
  C 698.50 252.42 731.88 238.54 765.05 246.50
  C 796.82 254.13 821.93 281.46 826.26 314.25
  Q 830.39 345.57 813.22 371.70
  Q 804.03 385.69 790.02 394.98
  A 0.50 0.50 0.0 0 0 790.25 395.90
  C 795.25 396.32 798.90 397.41 804.96 399.28
  C 844.60 411.48 880.11 443.04 880.11 487.75
  Q 880.12 540.27 880.07 541.00
  Q 879.78 546.08 877.97 550.26
  C 873.97 559.53 864.74 566.10 855.01 568.27
  Q 850.95 569.17 834.41 568.97
  Q 813.05 568.70 757.94 568.96
  A 0.40 0.39 -5.4 0 0 757.55 569.42
  Q 759.52 580.21 759.53 591.77
  Q 759.56 629.10 759.56 756.02
  Q 759.56 767.17 755.94 775.39
  C 748.69 791.85 732.78 801.59 714.74 801.60
  Q 646.71 801.63 314.94 801.62
  Q 303.02 801.62 297.72 800.23
  C 278.45 795.19 264.67 777.82 264.61 757.52
  Q 264.49 719.51 264.54 588.25
  Q 264.54 580.08 266.65 569.40
  A 0.40 0.40 0.0 0 0 266.26 568.92
  Q 215.77 568.87 188.48 568.94
  Q 173.24 568.98 169.14 568.02
  C 157.98 565.42 147.48 557.17 144.97 545.79
  Q 144.12 541.89 144.12 535.75
  Q 144.12 512.75 144.28 484.27
  C 144.47 450.03 169.71 422.02 198.73 407.46
  Q 215.49 399.05 233.62 395.45
  A 0.33 0.33 0.0 0 0 233.74 394.85
  C 197.72 371.05 185.40 321.40 208.10 284.03
  C 229.59 248.65 272.81 234.18 310.96 251.52
  C 340.01 264.72 358.77 291.91 359.16 324.11
  Q 359.63 362.88 330.11 389.15
  Q 326.43 392.43 322.33 394.54
  Z
  M 332.03 326.17
  A 54.10 54.10 0.0 0 0 277.93 272.07
  A 54.10 54.10 0.0 0 0 223.83 326.17
  A 54.10 54.10 0.0 0 0 277.93 380.27
  A 54.10 54.10 0.0 0 0 332.03 326.17
  Z
  M 764.7868 275.4151
  A 54.06 53.88 -69.8 0 0 695.5540 307.5453
  A 54.06 53.88 -69.8 0 0 727.4532 376.8849
  A 54.06 53.88 -69.8 0 0 796.6860 344.7547
  A 54.06 53.88 -69.8 0 0 764.7868 275.4151
  Z
  M 457.69 478.19
  A 0.41 0.41 0.0 0 0 457.15 478.68
  C 463.31 500.18 467.92 516.47 475.22 539.37
  Q 493.76 597.56 512.42 659.86
  A 0.48 0.47 -45.4 0 0 513.33 659.85
  C 526.89 612.89 542.42 560.51 557.72 512.42
  C 560.54 503.58 564.12 489.47 567.84 478.60
  A 0.40 0.40 0.0 0 0 567.29 478.11
  Q 540.75 490.31 511.71 491.12
  Q 493.49 491.63 475.86 485.14
  Q 469.70 482.87 457.69 478.19
  Z
  M 581.72 775.00
  L 639.06 774.94
  A 0.87 0.86 0.0 0 0 639.93 774.08
  Q 639.92 694.10 639.63 642.65
  Q 639.59 634.66 639.91 633.38
  C 643.13 620.52 660.61 620.31 664.83 632.04
  C 665.82 634.82 665.63 638.57 665.64 642.25
  Q 665.98 717.58 665.85 773.92
  A 1.13 1.13 0.0 0 0 666.98 775.05
  Q 693.16 775.08 711.26 775.04
  C 722.69 775.01 733.03 767.43 733.03 755.50
  Q 733.04 611.47 733.02 598.75
  Q 733.00 585.63 730.99 574.50
  Q 724.10 536.28 691.62 513.65
  C 676.45 503.08 659.73 496.41 641.81 491.44
  Q 615.10 484.04 597.01 479.25
  A 1.09 1.08 17.0 0 0 595.70 479.94
  C 590.94 493.62 587.35 507.00 580.80 530.70
  Q 578.57 538.77 576.28 545.56
  C 571.86 558.70 568.14 569.68 564.18 582.52
  C 557.29 604.85 548.62 634.54 539.79 662.24
  Q 530.61 691.06 529.30 695.56
  Q 527.25 702.61 525.43 705.66
  Q 520.45 713.39 512.34 713.10
  C 506.30 712.87 501.40 709.15 499.53 703.45
  Q 491.67 679.51 476.98 634.67
  C 466.80 603.65 458.38 572.01 447.72 541.61
  C 440.48 520.94 436.46 501.14 429.00 479.05
  A 0.76 0.76 0.0 0 0 428.08 478.56
  C 404.96 484.81 383.33 490.34 362.65 497.67
  Q 344.98 503.93 329.56 515.31
  Q 301.13 536.30 293.82 570.29
  Q 291.17 582.67 291.17 599.00
  Q 291.23 714.74 291.25 754.50
  C 291.25 765.03 298.39 772.78 308.68 774.59
  Q 311.42 775.07 320.74 775.04
  C 407.77 774.74 494.77 775.04 581.72 775.00
  Z"
/>
</svg>
