<?xml version="1.0" encoding="UTF-8" standalone="no"?>
<!DOCTYPE svg PUBLIC "-//W3C//DTD SVG 1.1//EN" "http://www.w3.org/Graphics/SVG/1.1/DTD/svg11.dtd">
<svg xmlns="http://www.w3.org/2000/svg" version="1.1" viewBox="0.00 0.00 1024.00 1024.00">
<path fill="#1a3755" d="
  M 585.15 481.31
  L 830.19 481.31
  A 0.56 0.55 90.0 0 0 830.74 480.75
  Q 830.78 470.37 830.65 455.29
  C 830.57 447.04 832.27 441.10 840.31 438.97
  A 3.52 3.45 37.4 0 1 841.29 438.85
  Q 867.48 438.91 904.96 438.85
  Q 907.62 438.85 910.74 441.33
  Q 916.10 445.59 916.11 452.51
  Q 916.15 529.11 916.10 687.75
  C 916.10 690.62 915.93 694.13 914.39 696.70
  C 910.25 703.60 904.91 703.14 896.43 703.01
  Q 884.23 702.84 843.74 703.01
  Q 835.65 703.04 832.26 696.87
  Q 830.42 693.51 830.73 686.39
  Q 830.80 684.91 830.76 659.90
  A 0.33 0.33 0.0 0 0 830.43 659.57
  L 584.86 659.57
  A 0.39 0.38 -0.7 0 0 584.47 659.96
  Q 584.79 687.20 584.50 713.72
  Q 584.41 721.52 580.72 731.76
  C 572.20 755.37 551.59 773.45 526.57 778.10
  Q 517.47 779.79 506.24 778.95
  C 487.56 777.55 470.30 768.44 458.05 754.23
  Q 441.16 734.64 441.06 708.50
  Q 440.99 687.16 441.00 659.97
  A 0.40 0.40 0.0 0 0 440.60 659.57
  L 195.16 659.57
  A 0.52 0.52 0.0 0 0 194.64 660.09
  Q 194.59 683.19 194.68 687.41
  Q 194.83 693.87 193.38 696.38
  C 189.80 702.53 185.28 703.12 177.76 703.03
  Q 163.05 702.85 129.65 703.00
  C 119.87 703.05 113.29 703.64 109.77 694.69
  A 5.94 5.44 33.0 0 1 109.41 693.30
  Q 109.04 690.68 109.05 683.25
  Q 109.11 480.30 109.03 454.52
  C 109.01 448.49 110.65 442.93 116.11 440.05
  Q 118.79 438.63 127.06 438.81
  Q 134.09 438.96 178.11 438.80
  Q 185.07 438.77 188.11 440.39
  Q 194.65 443.86 194.66 451.76
  Q 194.68 472.98 194.61 480.91
  A 0.39 0.38 -89.3 0 0 194.99 481.31
  L 440.46 481.31
  A 0.48 0.47 -89.4 0 0 440.93 480.84
  Q 441.03 471.32 440.89 463.82
  C 440.82 460.48 439.67 459.18 436.89 457.29
  Q 426.80 450.42 424.43 448.57
  C 385.32 417.97 366.59 369.84 373.79 320.72
  Q 379.39 282.50 403.81 253.93
  C 415.30 240.48 428.77 230.21 444.09 221.36
  Q 452.75 216.37 460.93 221.55
  C 466.45 225.06 467.17 229.95 467.16 236.85
  Q 467.08 309.26 467.20 329.49
  Q 467.24 335.47 471.95 338.55
  Q 477.67 342.29 511.22 363.74
  A 2.64 2.62 -44.6 0 0 514.04 363.75
  Q 551.33 340.17 553.72 338.71
  Q 558.44 335.84 558.49 330.24
  Q 558.68 309.63 558.55 235.09
  Q 558.54 229.30 559.85 226.53
  C 562.96 219.99 571.18 217.49 577.57 219.85
  C 581.67 221.36 587.04 225.03 590.11 226.97
  Q 629.53 252.02 645.28 294.72
  C 661.64 339.05 653.42 387.39 624.91 424.90
  Q 614.55 438.51 602.13 447.88
  Q 596.80 451.89 586.40 458.90
  A 4.18 4.17 73.1 0 0 584.55 462.37
  L 584.55 480.71
  A 0.60 0.60 0.0 0 0 585.15 481.31
  Z
  M 584.45 254.77
  Q 584.54 285.16 584.64 329.98
  Q 584.66 338.21 583.74 341.49
  C 581.32 350.14 575.00 356.88 567.15 361.64
  Q 549.56 372.33 529.07 385.58
  Q 521.10 390.73 516.77 391.51
  Q 508.27 393.05 501.23 388.51
  Q 478.32 373.76 457.81 360.68
  C 450.13 355.79 444.18 349.59 441.82 340.63
  Q 440.86 336.99 440.94 322.80
  Q 441.15 287.92 441.03 255.65
  A 0.44 0.44 0.0 0 0 440.33 255.30
  Q 415.02 274.63 404.90 304.90
  Q 393.73 338.30 402.37 370.41
  C 409.94 398.56 427.66 420.87 452.74 436.04
  C 459.02 439.84 465.40 444.99 466.78 452.01
  Q 467.14 453.82 467.14 462.97
  Q 467.12 613.50 467.12 705.99
  C 467.11 729.42 483.49 750.98 507.76 753.15
  Q 531.19 755.24 546.48 738.24
  Q 554.31 729.53 557.18 718.65
  Q 558.61 713.22 558.61 701.27
  Q 558.61 584.58 558.58 455.34
  C 558.57 447.53 563.30 442.30 569.72 438.23
  C 576.24 434.10 582.96 429.92 589.22 424.28
  C 610.01 405.53 623.29 381.57 626.45 354.15
  C 630.76 316.80 615.14 277.26 584.76 254.62
  A 0.19 0.19 0.0 0 0 584.45 254.77
  Z
  M 168.98 465.79
  A 0.84 0.84 0.0 0 0 168.14 464.95
  L 135.78 464.95
  A 0.84 0.84 0.0 0 0 134.94 465.79
  L 134.94 675.99
  A 0.84 0.84 0.0 0 0 135.78 676.83
  L 168.14 676.83
  A 0.84 0.84 0.0 0 0 168.98 675.99
  L 168.98 465.79
  Z
  M 890.44 465.23
  A 0.29 0.29 0.0 0 0 890.15 464.94
  L 856.39 464.94
  A 0.29 0.29 0.0 0 0 856.10 465.23
  L 856.10 676.51
  A 0.29 0.29 0.0 0 0 856.39 676.80
  L 890.15 676.80
  A 0.29 0.29 0.0 0 0 890.44 676.51
  L 890.44 465.23
  Z
  M 441.06 508.07
  A 0.84 0.84 0.0 0 0 440.22 507.23
  L 195.46 507.23
  A 0.84 0.84 0.0 0 0 194.62 508.07
  L 194.62 633.13
  A 0.84 0.84 0.0 0 0 195.46 633.97
  L 440.22 633.97
  A 0.84 0.84 0.0 0 0 441.06 633.13
  L 441.06 508.07
  Z
  M 830.72 507.76
  A 0.54 0.54 0.0 0 0 830.18 507.22
  L 585.14 507.22
  A 0.54 0.54 0.0 0 0 584.60 507.76
  L 584.60 633.42
  A 0.54 0.54 0.0 0 0 585.14 633.96
  L 830.18 633.96
  A 0.54 0.54 0.0 0 0 830.72 633.42
  L 830.72 507.76
  Z"
/>
</svg>
