<?xml version="1.0" encoding="UTF-8" standalone="no"?>
<!DOCTYPE svg PUBLIC "-//W3C//DTD SVG 1.1//EN" "http://www.w3.org/Graphics/SVG/1.1/DTD/svg11.dtd">
<svg xmlns="http://www.w3.org/2000/svg" version="1.1" viewBox="0.00 0.00 1024.00 1024.00">
<path fill="#1a3550" d="
  M 517.70 878.94
  C 513.58 881.22 508.59 879.40 504.02 876.86
  C 455.00 849.65 408.83 820.68 367.45 787.80
  Q 335.46 762.39 308.31 730.94
  C 296.10 716.80 284.26 703.10 273.35 687.70
  Q 255.50 662.52 240.87 635.64
  Q 233.23 621.61 228.84 609.46
  Q 211.16 560.60 204.27 511.56
  Q 202.15 496.49 201.28 472.74
  Q 200.34 447.09 200.70 425.50
  C 200.97 409.42 200.83 395.42 201.30 379.50
  Q 203.47 307.32 203.54 305.50
  Q 204.18 290.68 204.34 270.50
  Q 204.40 263.01 204.82 257.50
  C 205.40 249.82 212.16 247.01 219.01 246.53
  C 268.63 243.03 317.63 233.51 363.52 216.48
  Q 378.11 211.06 402.42 200.65
  Q 454.65 178.28 503.36 145.37
  C 508.43 141.94 512.55 141.19 517.76 144.79
  Q 551.31 167.95 587.32 184.97
  Q 607.93 194.71 633.77 206.00
  Q 672.74 223.02 712.14 231.87
  Q 758.92 242.37 808.91 247.13
  Q 820.21 248.20 820.30 260.02
  Q 820.35 266.95 821.32 297.25
  C 822.28 327.33 824.40 384.51 824.41 426.84
  Q 824.41 464.79 823.43 482.65
  Q 821.36 520.43 813.00 557.78
  Q 808.78 576.63 797.54 609.06
  Q 793.05 622.00 786.69 634.39
  Q 778.93 649.51 766.61 668.83
  Q 748.21 697.68 727.46 720.68
  C 682.40 770.62 629.51 813.03 572.15 847.38
  Q 540.84 866.13 517.70 878.94
  Z
  M 227.05 268.74
  Q 226.82 282.94 226.46 294.75
  Q 225.39 329.48 224.11 370.00
  Q 223.53 388.40 223.28 395.50
  Q 222.47 418.87 222.65 457.00
  Q 222.75 478.98 225.00 501.90
  C 228.38 536.47 237.07 570.34 249.59 602.60
  C 253.66 613.10 258.28 622.47 263.28 631.23
  C 294.81 686.48 337.06 735.45 386.53 774.45
  Q 427.39 806.67 473.91 833.85
  Q 491.78 844.29 512.21 854.64
  A 1.94 1.92 44.5 0 0 513.96 854.63
  Q 548.36 836.88 580.17 816.65
  Q 634.58 782.05 680.41 737.90
  Q 704.64 714.55 726.30 687.29
  Q 743.91 665.11 757.27 642.80
  Q 767.18 626.24 773.29 611.40
  C 785.41 581.95 794.17 550.40 798.33 519.11
  Q 802.35 488.91 802.52 455.75
  Q 802.74 411.38 801.61 376.76
  Q 798.76 290.02 798.62 285.50
  Q 798.33 276.70 798.43 268.49
  A 0.49 0.48 -89.4 0 0 797.96 268.00
  Q 791.00 267.83 782.01 266.77
  Q 743.44 262.24 704.07 253.16
  Q 684.14 248.56 668.47 243.01
  Q 648.65 235.99 633.82 229.92
  C 597.94 215.24 562.43 198.94 529.62 179.37
  Q 520.28 173.80 512.61 168.21
  A 1.59 1.58 -43.4 0 0 510.81 168.17
  Q 499.35 175.64 481.17 186.13
  Q 436.50 211.93 389.37 230.09
  C 378.63 234.22 365.31 239.62 354.10 243.37
  Q 298.75 261.88 241.00 267.04
  Q 240.14 267.12 227.56 268.19
  A 0.55 0.55 0.0 0 0 227.05 268.74
  Z"
/>
<path fill="#1a3550" d="
  M 620.96 661.45
  Q 620.64 666.97 620.62 667.16
  C 619.04 682.45 611.96 694.56 598.21 701.17
  C 587.42 706.36 576.28 706.10 564.69 702.81
  A 0.43 0.42 10.9 0 0 564.15 703.17
  C 562.65 717.38 553.85 730.30 540.78 736.02
  C 526.67 742.21 509.45 738.04 498.55 727.22
  Q 494.66 723.36 491.27 718.64
  A 0.63 0.63 0.0 0 0 490.34 718.54
  C 473.78 733.44 450.78 735.54 434.28 718.97
  Q 422.72 707.36 421.90 691.11
  A 0.62 0.62 0.0 0 0 421.24 690.52
  Q 411.78 691.20 403.58 687.13
  C 391.06 680.92 381.88 671.31 381.15 657.38
  Q 380.96 653.65 380.95 650.71
  A 0.57 0.57 0.0 0 0 380.36 650.14
  C 374.96 650.35 369.75 650.30 364.88 648.64
  C 349.89 643.55 340.35 631.40 339.26 615.53
  Q 338.92 610.54 339.16 606.04
  A 0.66 0.66 0.0 0 0 338.58 605.35
  Q 318.22 603.09 306.48 586.51
  Q 302.07 580.28 301.32 571.45
  Q 299.61 551.42 314.10 537.61
  A 1.17 1.16 -40.5 0 0 314.23 536.07
  C 301.85 519.63 297.03 500.82 296.54 480.25
  Q 296.48 477.74 295.79 475.93
  C 295.01 473.90 291.76 470.23 289.61 468.14
  Q 271.84 450.85 270.08 449.36
  Q 262.48 442.93 258.32 438.54
  C 251.75 431.61 248.90 421.55 256.38 414.12
  C 286.14 384.57 302.63 367.84 328.61 342.20
  Q 350.01 321.09 364.32 306.08
  C 369.17 300.99 376.50 298.15 382.90 302.21
  Q 386.34 304.39 390.99 308.83
  Q 406.38 323.53 419.13 335.34
  A 1.87 1.85 -31.1 0 0 420.90 335.77
  Q 434.78 331.91 435.04 331.84
  C 455.62 325.78 482.29 325.94 501.96 335.19
  A 1.30 1.28 43.4 0 0 503.08 335.17
  Q 504.63 334.38 509.66 332.21
  C 523.49 326.26 539.56 326.54 554.76 327.11
  Q 569.71 327.68 606.53 330.88
  A 2.19 2.17 -53.8 0 0 607.59 330.71
  Q 609.31 329.95 610.74 328.74
  C 619.44 321.32 627.80 313.64 636.25 305.94
  C 641.73 300.94 646.20 298.30 653.21 301.01
  C 655.71 301.98 660.67 306.57 664.06 310.52
  Q 664.43 310.95 751.18 396.82
  Q 754.03 399.64 766.99 412.05
  C 769.97 414.90 772.23 417.90 772.84 421.94
  Q 774.37 431.96 766.58 438.83
  C 759.71 444.89 754.96 448.93 749.84 454.12
  Q 742.74 461.32 727.88 476.14
  Q 726.03 477.98 725.65 479.87
  Q 725.10 482.64 721.90 500.67
  Q 717.75 524.07 702.34 541.91
  A 0.52 0.52 0.0 0 0 702.37 542.64
  C 709.72 549.56 717.20 560.63 718.89 570.60
  C 720.83 581.94 719.78 592.66 712.49 601.97
  Q 697.76 620.77 673.97 619.02
  Q 671.08 618.81 670.79 618.81
  A 0.46 0.46 0.0 0 0 670.32 619.27
  C 670.28 639.77 661.01 656.53 639.98 661.74
  Q 630.29 664.14 621.52 661.07
  A 0.42 0.42 0.0 0 0 620.96 661.45
  Z
  M 402.13 541.24
  A 0.19 0.18 88.8 0 0 402.33 541.44
  C 425.32 539.56 444.93 554.80 446.88 578.12
  C 446.99 579.50 446.72 581.44 446.36 582.72
  A 0.45 0.44 7.2 0 0 446.80 583.28
  Q 448.57 583.25 454.97 584.80
  Q 474.91 589.64 481.88 607.39
  C 484.31 613.59 484.73 619.33 484.23 626.13
  A 0.72 0.71 3.5 0 0 484.92 626.90
  Q 503.75 627.63 518.28 640.31
  Q 551.62 669.42 555.49 673.17
  C 558.86 676.45 562.66 679.87 566.60 682.13
  C 573.08 685.83 582.65 686.61 589.38 682.32
  C 603.06 673.60 604.57 656.23 593.90 644.36
  Q 589.51 639.48 588.88 638.86
  Q 564.26 614.44 539.04 590.45
  Q 536.03 587.59 533.31 584.67
  C 530.24 581.37 530.94 575.10 532.94 571.78
  C 536.14 566.47 542.50 564.73 547.18 569.33
  Q 565.39 587.23 604.25 624.75
  Q 608.11 628.47 615.22 636.70
  A 6.53 6.42 -3.5 0 0 616.62 637.92
  Q 620.82 640.60 626.84 641.98
  C 635.92 644.04 645.09 637.18 648.72 629.26
  Q 652.60 620.80 648.99 611.34
  C 647.29 606.88 643.88 603.39 640.53 599.84
  Q 635.42 594.43 630.14 589.48
  Q 612.37 572.85 580.25 541.29
  Q 576.83 537.93 576.16 535.98
  C 574.23 530.34 576.48 523.68 582.20 521.51
  C 588.26 519.22 591.73 523.25 595.61 527.14
  Q 616.04 547.59 640.10 570.98
  Q 654.77 585.23 659.97 590.59
  C 667.26 598.10 676.06 602.40 685.90 598.49
  C 698.29 593.57 703.63 577.50 695.92 565.92
  Q 694.13 563.23 693.33 562.42
  Q 683.94 552.89 672.21 541.29
  Q 606.44 476.20 573.24 442.41
  C 570.45 439.57 567.76 440.02 564.02 439.99
  Q 554.80 439.91 507.27 439.85
  Q 505.20 439.85 503.49 441.49
  C 486.14 458.20 473.06 471.06 459.66 482.91
  C 450.11 491.35 437.62 494.81 425.23 491.33
  Q 410.26 487.13 401.85 474.38
  C 396.33 466.01 396.90 452.53 399.84 443.73
  C 402.00 437.29 406.44 430.87 411.05 426.04
  C 427.11 409.21 444.56 392.13 458.78 377.45
  Q 478.68 356.91 484.59 351.35
  A 0.57 0.57 0.0 0 0 484.29 350.37
  Q 478.79 349.48 471.34 348.69
  C 463.20 347.82 456.36 348.12 448.96 349.46
  Q 445.21 350.13 427.08 355.33
  Q 414.96 358.80 405.65 350.86
  Q 391.80 339.05 376.93 324.53
  A 0.69 0.68 -45.3 0 0 375.97 324.54
  L 276.08 424.43
  A 0.91 0.91 0.0 0 0 276.09 425.73
  Q 286.86 436.15 302.02 451.48
  C 309.80 459.34 316.20 467.48 317.21 478.74
  Q 317.72 484.47 317.98 490.56
  C 318.49 502.42 322.95 511.58 329.04 521.30
  A 1.12 1.12 0.0 0 0 330.80 521.48
  Q 335.31 516.77 337.43 514.71
  C 349.25 503.22 367.14 499.10 381.99 506.80
  C 388.98 510.41 396.88 517.82 399.81 525.29
  Q 402.71 532.67 402.13 541.24
  Z
  M 688.06 526.57
  Q 688.11 526.55 688.17 526.54
  A 0.32 0.22 6.4 0 0 688.36 526.44
  Q 693.81 518.88 697.20 511.48
  Q 699.74 505.95 702.01 494.83
  Q 704.20 484.09 704.54 482.38
  Q 706.22 473.98 708.14 470.27
  Q 711.62 463.56 715.35 459.58
  Q 730.25 443.69 749.14 426.03
  A 1.11 1.09 -45.3 0 0 749.14 424.41
  Q 738.97 415.08 729.92 406.08
  Q 690.20 366.56 648.03 324.49
  A 0.75 0.75 0.0 0 0 646.98 324.48
  Q 635.10 335.92 623.26 345.48
  Q 614.88 352.25 604.26 351.58
  C 599.93 351.31 593.72 350.37 589.26 350.22
  C 576.89 349.80 554.39 347.61 536.63 347.87
  Q 529.36 347.98 525.08 348.83
  C 516.05 350.63 508.38 355.99 501.91 362.66
  Q 467.25 398.40 431.67 434.17
  C 423.38 442.51 416.66 450.00 419.19 462.81
  A 3.96 3.94 20.7 0 0 419.93 464.44
  Q 422.06 467.23 423.43 468.12
  Q 436.99 477.03 449.38 465.15
  Q 475.53 440.07 490.64 424.88
  Q 495.56 419.94 502.74 419.93
  Q 565.55 419.84 574.92 419.83
  Q 581.24 419.82 585.62 424.19
  Q 665.01 503.43 687.46 526.43
  A 0.57 0.55 57.2 0 0 688.06 526.57
  Z
  M 338.96 541.23
  C 332.61 547.68 325.06 554.00 322.03 562.87
  A 4.45 4.03 59.2 0 0 321.82 563.93
  Q 320.89 576.42 330.84 582.34
  C 340.01 587.79 348.23 583.99 355.12 577.36
  Q 360.42 572.26 365.38 567.21
  Q 370.34 562.17 375.36 556.78
  C 381.87 549.78 385.53 541.49 379.92 532.42
  Q 373.84 522.57 361.36 523.71
  A 4.45 4.03 29.8 0 0 360.31 523.94
  C 351.49 527.12 345.30 534.78 338.96 541.23
  Z
  M 418.31 565.68
  C 407.98 558.44 397.26 562.10 389.39 570.89
  Q 378.88 582.60 366.47 595.18
  Q 358.53 603.22 358.98 612.62
  C 359.61 625.79 372.69 633.82 384.52 628.93
  Q 388.13 627.43 395.47 619.58
  Q 404.08 610.35 422.12 592.38
  C 430.57 583.97 427.08 571.82 418.31 565.68
  Z
  M 406.47 664.68
  C 414.51 672.42 426.07 671.56 433.60 663.80
  Q 441.43 655.73 453.43 643.20
  Q 456.88 639.60 461.04 634.08
  C 466.89 626.33 466.78 616.22 459.68 609.39
  C 452.58 602.56 442.48 602.83 434.95 608.98
  Q 429.60 613.34 426.13 616.93
  Q 414.07 629.40 406.31 637.53
  C 398.85 645.36 398.42 656.94 406.47 664.68
  Z
  M 460.18 665.45
  Q 451.43 674.18 449.29 676.49
  Q 445.66 680.43 444.06 683.93
  C 440.96 690.74 442.51 699.28 447.90 704.68
  C 453.29 710.08 461.83 711.64 468.65 708.55
  Q 472.15 706.96 476.09 703.34
  Q 478.41 701.21 487.16 692.47
  Q 495.91 683.73 498.04 681.42
  Q 501.67 677.48 503.27 673.99
  C 506.37 667.17 504.82 658.63 499.43 653.24
  C 494.04 647.84 485.50 646.27 478.69 649.36
  Q 475.19 650.95 471.24 654.58
  Q 468.93 656.71 460.18 665.45
  Z
  M 523.97 673.44
  C 522.50 686.49 515.19 695.12 505.51 703.14
  A 0.86 0.85 -39.6 0 0 505.39 704.35
  C 510.50 710.59 516.78 717.48 525.03 718.13
  Q 531.55 718.65 535.82 715.25
  Q 546.74 706.55 544.29 692.57
  A 5.10 5.09 -73.8 0 0 542.71 689.69
  L 524.59 673.20
  A 0.37 0.37 0.0 0 0 523.97 673.44
  Z"
/>
</svg>
