<?xml version="1.0" encoding="UTF-8" standalone="no"?>
<!DOCTYPE svg PUBLIC "-//W3C//DTD SVG 1.1//EN" "http://www.w3.org/Graphics/SVG/1.1/DTD/svg11.dtd">
<svg xmlns="http://www.w3.org/2000/svg" version="1.1" viewBox="0.00 0.00 1024.00 1024.00">
<rect fill="#1b3a5d" x="-11.01" y="-47.03" transform="translate(512.21,212.91) rotate(-0.1)" width="22.02" height="94.06" rx="10.73"/>
<rect fill="#1b3a5d" x="-10.88" y="-41.45" transform="translate(396.22,257.48) rotate(-40.8)" width="21.76" height="82.90" rx="10.67"/>
<rect fill="#1b3a5d" x="-10.82" y="-41.61" transform="translate(628.56,257.43) rotate(40.9)" width="21.64" height="83.22" rx="10.62"/>
<path fill="#1b3a5d" d="
  M 458.73 441.39
  A 0.34 0.34 0.0 0 0 458.43 440.89
  C 396.85 439.99 326.18 440.29 276.50 440.47
  C 273.35 440.48 269.15 440.53 266.59 438.95
  C 262.17 436.22 260.18 431.33 261.57 426.32
  C 263.03 421.07 267.97 418.42 273.26 418.38
  Q 284.07 418.31 390.37 418.39
  A 0.62 0.61 -0.9 0 0 390.99 417.76
  Q 390.63 407.05 390.94 399.51
  C 391.40 388.33 394.42 375.48 398.83 364.58
  Q 415.98 322.19 457.75 299.98
  Q 471.47 292.69 485.02 289.60
  C 549.68 274.89 612.94 314.71 630.50 378.16
  C 634.24 391.69 635.20 404.39 634.32 417.86
  A 0.48 0.47 2.2 0 0 634.80 418.37
  Q 700.87 418.40 751.25 418.34
  C 767.42 418.32 766.77 440.32 752.25 440.31
  C 680.71 440.27 626.34 440.89 566.29 440.84
  A 0.13 0.13 0.0 0 0 566.18 441.03
  Q 616.36 534.89 665.90 625.37
  Q 739.84 760.44 747.24 773.77
  Q 767.53 810.32 777.30 827.45
  C 782.33 836.27 775.27 845.46 765.50 845.41
  Q 716.73 845.18 421.32 845.18
  C 374.49 845.18 317.95 844.92 265.75 845.29
  C 262.94 845.31 256.19 845.67 253.12 844.39
  C 247.33 841.97 244.50 835.93 246.30 829.97
  Q 246.66 828.77 249.69 823.32
  Q 352.73 637.78 458.73 441.39
  Z
  M 412.97 418.17
  L 611.82 418.51
  A 0.76 0.76 0.0 0 0 612.59 417.75
  L 612.60 410.75
  A 100.98 99.92 -89.9 0 0 512.85 309.60
  L 512.31 309.60
  A 100.98 99.92 -89.9 0 0 412.22 410.41
  L 412.21 417.41
  A 0.76 0.76 0.0 0 0 412.97 418.17
  Z
  M 522.91 773.77
  L 522.91 822.76
  A 0.53 0.53 0.0 0 0 523.44 823.29
  L 749.60 823.29
  A 0.55 0.55 0.0 0 0 750.08 822.48
  Q 675.41 688.75 609.01 565.85
  C 583.77 519.14 571.70 497.55 556.63 469.10
  Q 551.02 458.53 542.19 442.04
  A 1.97 1.96 75.6 0 0 540.47 441.02
  L 484.19 441.02
  A 1.73 1.71 13.6 0 0 482.66 441.94
  C 465.68 474.47 446.62 509.08 412.73 571.51
  Q 396.83 600.79 310.76 757.54
  Q 293.67 788.67 274.20 823.10
  A 0.17 0.17 0.0 0 0 274.35 823.36
  L 501.33 823.36
  A 0.62 0.62 0.0 0 0 501.95 822.74
  L 501.95 773.73
  A 0.43 0.43 0.0 0 0 501.21 773.44
  Q 497.00 777.96 486.53 788.98
  Q 483.40 792.28 481.54 792.93
  C 470.69 796.73 461.87 784.30 470.00 775.74
  Q 491.00 753.60 501.05 742.81
  Q 505.71 737.81 507.28 737.10
  C 514.80 733.69 518.85 737.41 524.72 743.66
  Q 542.05 762.06 554.07 774.64
  Q 558.46 779.23 557.20 785.23
  C 555.58 792.97 545.10 796.67 539.37 790.59
  Q 528.61 779.19 523.35 773.60
  A 0.25 0.25 0.0 0 0 522.91 773.77
  Z"
/>
<rect fill="#1b3a5d" x="-41.27" y="-11.12" transform="translate(331.75,343.06) rotate(23.8)" width="82.54" height="22.24" rx="10.87"/>
<rect fill="#1b3a5d" x="-41.28" y="-11.10" transform="translate(692.56,343.07) rotate(-23.8)" width="82.56" height="22.20" rx="10.85"/>
<path fill="#1b3a5d" d="
  M 501.84 504.67
  A 0.41 0.41 0.0 0 0 501.11 504.42
  Q 498.33 507.86 496.52 510.01
  C 492.36 514.94 485.70 516.15 480.88 511.38
  C 475.78 506.36 477.33 500.34 481.74 495.49
  Q 491.12 485.16 502.06 473.36
  Q 505.92 469.18 508.41 468.38
  C 514.21 466.49 517.88 469.10 522.20 473.57
  Q 523.60 475.02 541.13 494.01
  Q 544.84 498.03 545.65 500.41
  C 547.64 506.29 544.50 512.54 538.44 514.09
  C 531.73 515.81 527.07 510.18 523.59 505.42
  A 0.45 0.45 0.0 0 0 522.77 505.69
  Q 522.97 543.63 522.98 562.25
  C 522.98 565.21 523.02 569.03 521.70 571.41
  C 518.60 576.98 512.12 578.77 506.65 575.57
  Q 501.75 572.70 501.80 565.75
  Q 502.06 535.20 501.84 504.67
  Z"
/>
<path fill="#1b3a5d" d="
  M 501.81 635.98
  A 0.54 0.54 0.0 0 0 500.98 635.93
  Q 495.47 641.83 490.14 647.62
  Q 486.33 651.76 483.48 652.73
  C 475.02 655.63 467.30 647.45 470.54 639.10
  Q 471.39 636.90 474.70 633.45
  Q 482.33 625.46 500.64 605.67
  Q 506.13 599.74 508.71 599.05
  C 518.35 596.46 523.60 605.59 529.52 611.81
  Q 543.10 626.04 548.72 631.94
  Q 553.13 636.57 554.04 638.81
  C 556.23 644.19 553.35 650.58 548.00 652.55
  C 542.33 654.64 538.16 651.89 534.25 647.74
  Q 528.58 641.73 523.51 636.02
  A 0.41 0.41 0.0 0 0 522.79 636.29
  Q 523.12 671.32 523.08 699.81
  Q 523.07 704.91 522.13 707.00
  C 517.59 717.14 501.89 714.09 501.90 702.99
  Q 501.95 666.11 501.91 636.37
  Q 501.91 636.11 501.81 635.98
  Z"
/>
</svg>
